<svg width="65" height="48" viewBox="0 0 65 48" fill="none" xmlns="http://www.w3.org/2000/svg">
<g clip-path="url(#clip0_64_29)">
<path d="M38.1688 31.8288V20.0701C38.1688 19.8622 38.3363 19.6929 38.5442 19.6905L41.1131 19.6638C41.3239 19.6614 41.4968 19.8325 41.4968 20.0434V20.8719C42.0771 20.4282 42.7085 20.0784 43.3909 19.8224C44.0906 19.5664 44.8414 19.4387 45.6438 19.4387C46.4973 19.4387 47.1543 19.5664 47.6152 19.8224C48.0927 20.0784 48.4598 20.4455 48.7158 20.923C49.2789 20.4793 49.9192 20.1212 50.6361 19.8479C51.3702 19.5747 52.2315 19.4381 53.2216 19.4381C54.621 19.4381 55.6539 19.8052 56.3191 20.5387C56.9849 21.2556 57.3176 22.3563 57.3176 23.8412V31.8282H53.913V24.2249C53.913 23.423 53.7425 22.851 53.401 22.5095C53.0594 22.1513 52.5136 21.972 51.7628 21.972C50.7388 21.972 50.0136 22.339 49.3305 23.0726C49.3305 23.4765 49.3228 23.7295 49.3305 24.1221V31.8276H46.1053V24.2243C46.1053 23.4735 45.977 22.9104 45.721 22.5344C45.465 22.1591 44.9703 21.9714 44.2361 21.9714C43.7241 21.9714 43.2377 22.108 42.7768 22.3812C42.3331 22.6372 41.9321 22.936 41.5734 23.2775V31.8276H38.1688V31.8288Z" fill="black"/>
<path d="M28.5763 32.0847C27.8083 32.0847 27.0914 31.9481 26.4261 31.6749C25.7775 31.385 25.2483 30.9669 24.8391 30.4204C24.4465 29.8574 24.2504 29.1577 24.2504 28.3214C24.2504 27.1269 24.6686 26.1712 25.5049 25.4543C26.3584 24.7374 27.6123 24.3792 29.2682 24.3792H32.8522V24.0466C32.8522 23.2959 32.639 22.7666 32.2125 22.4596C31.8027 22.1525 30.967 21.9986 29.7036 21.9986C28.4403 21.9986 27.3379 22.1602 26.2129 22.4827C25.964 22.554 25.7098 22.3711 25.7098 22.1121V20.465C25.7098 20.3088 25.8048 20.168 25.9521 20.1164C26.4653 19.9358 27.0676 19.7867 27.7578 19.6691C28.5769 19.5153 29.4643 19.4387 30.4199 19.4387C32.2464 19.4387 33.6541 19.814 34.6442 20.5648C35.651 21.299 36.1547 22.4851 36.1547 24.1232V31.8287L32.9805 31.7806V30.7275C32.5024 31.154 31.9138 31.4872 31.2141 31.726C30.5144 31.9647 29.6353 32.0847 28.5775 32.0847H28.5763ZM29.5231 29.8063C30.291 29.8063 30.9569 29.678 31.52 29.422C32.083 29.166 32.5267 28.8417 32.851 28.4491V26.5288H29.3437C27.9954 26.5288 27.3212 27.0836 27.3212 28.1931C27.3212 29.3026 28.0554 29.8057 29.5231 29.8057V29.8063Z" fill="black"/>
<path d="M17.9782 32.0848C15.8791 32.0848 14.2149 31.5645 12.9859 30.5232C11.757 29.4648 11.1429 27.8694 11.1429 25.7359C11.1429 23.8073 11.6549 22.2796 12.6789 21.1535C13.7201 20.0101 15.2644 19.4381 17.3124 19.4381C19.1899 19.4381 20.6231 19.9329 21.6133 20.923C22.62 21.8959 23.1237 23.1759 23.1237 24.763V26.7118C23.1237 26.8514 23.0103 26.9648 22.8707 26.9648H14.3431C14.5308 27.9377 14.9745 28.603 15.6742 28.9617C16.3911 29.3205 17.3979 29.4993 18.6951 29.4993C19.3437 29.4993 20.0006 29.4393 20.6665 29.3199C21.1155 29.2415 21.52 29.1476 21.8805 29.0395C22.1365 28.9629 22.4074 29.1482 22.4074 29.4161V31.1534C22.4074 31.2526 22.3498 31.3435 22.2583 31.3815C21.7291 31.6043 21.122 31.7706 20.4366 31.8793C19.6858 32.0159 18.8668 32.0842 17.9788 32.0842L17.9782 32.0848ZM14.3426 24.8396H20.1028V24.1738C20.1028 23.4741 19.8979 22.9276 19.4887 22.5356C19.0788 22.1258 18.388 21.9215 17.4151 21.9215C16.2717 21.9215 15.4693 22.1519 15.009 22.6128C14.5653 23.0738 14.3431 23.8162 14.3431 24.8402L14.3426 24.8396Z" fill="black"/>
<path d="M62.6383 25.7549H59.8597C59.6667 25.7549 59.5105 25.5987 59.5105 25.4056V18.7657C59.5105 18.5727 59.3543 18.4165 59.1612 18.4165H57.6425C57.4494 18.4165 57.2932 18.2603 57.2932 18.0672V15.3493C57.2932 15.1562 57.4494 15 57.6425 15H62.6377C62.8307 15 62.9869 15.1562 62.9869 15.3493V25.4056C62.9869 25.5987 62.8307 25.7549 62.6377 25.7549H62.6383Z" fill="black"/>
<path d="M7.83687 32.1643C6.4375 32.1643 5.39628 31.7973 4.71382 31.0637C4.04798 30.3296 3.71537 29.3317 3.71537 28.0684V22.6894C3.71537 22.5499 3.60192 22.4364 3.46234 22.4364H2.37954C2.16987 22.4364 2 22.2665 2 22.0569V20.1538C2 19.9441 2.16987 19.7743 2.37954 19.7743H3.33582C3.54549 19.7743 3.71537 19.6044 3.71537 19.3947V16.5182C3.71537 16.3085 3.88524 16.1386 4.09491 16.1386H6.7915C7.00117 16.1386 7.17104 16.3085 7.17104 16.5182V19.3941C7.17104 19.6038 7.34092 19.7737 7.55058 19.7737H9.83318C10.0541 19.7737 10.2288 19.962 10.2115 20.1823L10.0654 22.0854C10.05 22.2832 9.88545 22.4358 9.68707 22.4358H7.55118C7.34151 22.4358 7.17164 22.6057 7.17164 22.8154V27.8373C7.17164 28.5031 7.32547 28.9641 7.63255 29.2201C7.93963 29.4588 8.41777 29.5782 9.06638 29.5782C9.38474 29.5782 9.71083 29.5402 10.044 29.4648C10.2965 29.4072 10.5507 29.5901 10.5507 29.8491V31.5335C10.5507 31.6363 10.4889 31.7296 10.3921 31.7652C10.0607 31.8875 9.7037 31.9778 9.32178 32.0366C8.87809 32.1222 8.38332 32.1649 7.83687 32.1649V32.1643Z" fill="black"/>
</g>
<defs>
<clipPath id="clip0_64_29">
<rect width="61" height="17.1655" fill="white" transform="translate(2 15)"/>
</clipPath>
</defs>
</svg>
