<svg width="148" height="53" viewBox="0 0 148 53" fill="none" xmlns="http://www.w3.org/2000/svg">
<path d="M19.6222 50.0634V46.5591H20.33V50.1039C20.33 51.0626 20.826 51.649 21.8097 51.649C22.7935 51.649 23.3062 51.0638 23.3062 50.1039V46.5591H24.0139V50.0634C24.0139 51.4694 23.2336 52.2985 21.8109 52.2985C20.3883 52.2985 19.6246 51.4694 19.6246 50.0634H19.6222Z" fill="black" />
<path d="M25.0275 46.5603H25.6781L28.7352 50.9508V46.5603H29.4263V52.251H28.7757L25.7186 47.8604V52.251H25.0275V46.5603Z" fill="black" />
<path d="M30.4846 46.5603H31.1924V52.251H30.4846V46.5603Z" fill="black" />
<path
d="M36.2948 51.861L36.2782 51.8443C35.8559 52.137 35.3349 52.2999 34.7413 52.2999C33.1402 52.2999 32.0256 51.0807 32.0256 49.4058C32.0256 47.731 33.139 46.5117 34.7413 46.5117C36.3436 46.5117 37.457 47.731 37.457 49.4058C37.457 50.2028 37.2048 50.8939 36.7659 51.4054C36.8955 51.5434 37.0264 51.6005 37.2369 51.6005H37.6759V52.2512H37.156C36.7254 52.2512 36.4971 52.137 36.2948 51.861ZM35.8809 51.2912L35.6775 51.0152C35.5228 50.8118 35.3848 50.731 35.1814 50.731H34.7021V50.0803H35.2956C35.6775 50.0803 35.8809 50.2028 36.0843 50.4788L36.3365 50.8202C36.5886 50.4467 36.735 49.9578 36.735 49.4058C36.735 48.0973 35.9297 47.1624 34.7437 47.1624C33.5577 47.1624 32.7524 48.0973 32.7524 49.4058C32.7524 50.7143 33.5577 51.6493 34.7437 51.6493C35.1826 51.6493 35.5728 51.5196 35.8821 51.2912H35.8809Z"
fill="black" />
<path d="M38.2571 50.0634V46.5591H38.9649V50.1039C38.9649 51.0626 39.4609 51.649 40.4447 51.649C41.4284 51.649 41.9411 51.0638 41.9411 50.1039V46.5591H42.6488V50.0634C42.6488 51.4694 41.8685 52.2985 40.4459 52.2985C39.0232 52.2985 38.2595 51.4694 38.2595 50.0634H38.2571Z" fill="black" />
<path d="M43.6614 46.5603H47.287V47.211H44.368V49.0321H46.7993V49.6828H44.368V51.6015H47.3917V52.2522H43.6602V46.5615L43.6614 46.5603Z" fill="black" />
<path
d="M49.9557 50.3896H50.6872C50.7443 51.1532 51.3379 51.6576 52.2074 51.6576C52.9711 51.6576 53.5159 51.3079 53.5159 50.6905C53.5159 49.9827 52.8165 49.8364 51.9553 49.6901C51.0369 49.5355 50.0937 49.2345 50.0937 48.1295C50.0937 47.1624 50.8823 46.5117 52.0361 46.5117C53.3042 46.5117 54.0845 47.2195 54.1499 48.2437H53.4184C53.3375 47.5847 52.8081 47.1541 52.0361 47.1541C51.2641 47.1541 50.8002 47.4788 50.8002 48.089C50.8002 48.7718 51.4913 48.9098 52.3454 49.0561C53.2721 49.2107 54.2237 49.52 54.2237 50.6251C54.2237 51.6088 53.3946 52.2999 52.1991 52.2999C50.8086 52.2999 49.9961 51.5113 49.9557 50.3896Z"
fill="black" />
<path d="M56.3289 47.2098H54.484V46.5591H58.8816V47.2098H57.0367V52.2498H56.3289V47.2098Z" fill="black" />
<path d="M59.5473 50.0634V46.5591H60.255V50.1039C60.255 51.0626 60.7511 51.649 61.7348 51.649C62.7185 51.649 63.2312 51.0638 63.2312 50.1039V46.5591H63.939V50.0634C63.939 51.4694 63.1586 52.2985 61.736 52.2985C60.3133 52.2985 59.5496 51.4694 59.5496 50.0634H59.5473Z" fill="black" />
<path d="M64.9547 46.5603H66.7759C68.5566 46.5603 69.6379 47.6987 69.6379 49.4056C69.6379 51.1126 68.5566 52.251 66.7759 52.251H64.9547V46.5603ZM66.7759 51.6003C68.1093 51.6003 68.9135 50.7795 68.9135 49.4056C68.9135 48.0317 68.1165 47.211 66.7759 47.211H65.6625V51.6015H66.7759V51.6003Z" fill="black" />
<path d="M70.4748 46.5603H74.1005V47.211H71.1814V49.0321H73.6127V49.6828H71.1814V51.6015H74.2051V52.2522H70.4736V46.5615L70.4748 46.5603Z" fill="black" />
<path d="M74.9633 46.5603H75.6139L78.671 50.9508V46.5603H79.3621V52.251H78.7115L75.6544 47.8604V52.251H74.9633V46.5603Z" fill="black" />
<path d="M81.9134 47.2098H80.0685V46.5591H84.4662V47.2098H82.6212V52.2498H81.9134V47.2098Z" fill="black" />
<path d="M87.2233 46.5603H87.9311V49.0321H90.874V46.5603H91.5817V52.251H90.874V49.6816H87.9311V52.251H87.2233V46.5603Z" fill="black" />
<path d="M92.419 49.4056C92.419 47.7307 93.5324 46.5115 95.1347 46.5115C96.7369 46.5115 97.8503 47.7307 97.8503 49.4056C97.8503 51.0804 96.7369 52.2997 95.1347 52.2997C93.5324 52.2997 92.419 51.0804 92.419 49.4056ZM97.1259 49.4056C97.1259 48.0971 96.3206 47.1621 95.1347 47.1621C93.9487 47.1621 93.1434 48.0971 93.1434 49.4056C93.1434 50.7141 93.9487 51.649 95.1347 51.649C96.3206 51.649 97.1259 50.7141 97.1259 49.4056Z" fill="black" />
<path d="M98.6858 46.5603H99.5803L101.597 51.2839L103.589 46.5603H104.467V52.251H103.776V47.7629L101.889 52.251H101.263L99.3769 47.7629V52.251H98.6858V46.5603Z" fill="black" />
<path d="M105.525 46.5603H109.151V47.211H106.232V49.0321H108.662V49.6828H106.232V51.6015H109.256V52.2522H105.524V46.5615L105.525 46.5603Z" fill="black" />
<path
d="M109.687 50.3893H110.419C110.476 51.153 111.069 51.6573 111.939 51.6573C112.703 51.6573 113.247 51.3076 113.247 50.6903C113.247 49.9825 112.548 49.8362 111.687 49.6899C110.768 49.5352 109.825 49.2343 109.825 48.1292C109.825 47.1621 110.614 46.5115 111.768 46.5115C113.036 46.5115 113.816 47.2192 113.881 48.2434H113.15C113.069 47.5844 112.54 47.1538 111.768 47.1538C110.996 47.1538 110.532 47.4786 110.532 48.0888C110.532 48.7716 111.223 48.9095 112.077 49.0559C113.004 49.2105 113.955 49.5198 113.955 50.6248C113.955 51.6086 113.126 52.2997 111.931 52.2997C110.54 52.2997 109.728 51.511 109.687 50.3893Z"
fill="black" />
<path d="M0 27.704V8.32666H11.7227V24.5993C11.7227 27.6504 12.6327 29.0957 14.6133 29.0957C16.915 29.0957 17.825 27.2757 17.825 24.3317V8.32666H29.5477V37.7685H19.2167V28.8828H18.6279C18.3067 33.1115 16.4868 38.3038 9.52807 38.3038C2.56937 38.3038 0 33.9133 0 27.704Z" fill="black" />
<path d="M47.9601 16.9982C45.6584 16.9982 44.6948 18.8181 44.6948 21.7622V37.7672H32.9721V8.32654H43.3566V17.2123H43.9454C44.2666 12.9835 46.0866 7.79126 53.527 7.79126C59.3081 7.79126 62.6269 11.5383 62.6269 17.7476V37.7672H50.9042V21.441C50.9042 18.4434 49.9942 16.9982 47.9601 16.9982Z" fill="black" />
<path d="M66.1571 8.32666H77.881V37.7685H66.1571V8.32666Z" fill="black" />
<path d="M83.4981 29.2028V16.5688H80.3399V8.32546H84.4616V0H95.2208V8.32665H101.109V16.57H95.2208V26.2587C95.2208 28.0787 95.9702 29.0957 97.6831 29.0957C98.7001 29.0957 99.9848 28.7745 101.109 28.1857V36.5897C99.8242 37.3391 97.3084 38.3026 93.1867 38.3026C86.5492 38.3026 83.4981 34.6627 83.4981 29.2028Z" fill="black" />
<path
d="M102.875 26.4727H114.17C114.116 28.935 115.615 30.755 119.095 30.755C122.039 30.755 123.109 29.5774 123.109 27.8109C123.109 25.7768 121.182 25.5092 119.148 25.2951C113.046 24.6527 103.678 25.4021 103.678 17.4799C103.678 10.9494 110.102 7.79126 118.559 7.79126C127.017 7.79126 133.547 10.9494 133.547 19.1928H122.895C122.895 17.2123 121.985 15.4458 118.72 15.4458C116.043 15.4458 114.491 16.3558 114.491 18.1223C114.491 19.8887 116.258 20.4775 121.022 20.7987C129.158 21.3875 134.136 22.1369 134.136 28.6674C134.136 34.8231 129.693 38.356 119.255 38.356C106.248 38.356 102.874 32.8426 102.874 26.4727H102.875Z"
fill="black" />
<path d="M147.976 37.7674H136.256V29.9463L142.116 26.0352L147.976 29.9463V37.7674Z" fill="black" />
<path d="M77.8861 0H66.1538V5.86672H77.8861V0Z" fill="black" />
</svg>
