<svg width="1325" height="472" viewBox="0 0 1325 472" fill="none" xmlns="http://www.w3.org/2000/svg">
<path d="M656.898 321.276H776.449V354.461H736.244V470.183H697.103V354.461H656.898V321.276Z" fill="#D31A27"/>
<path d="M516.293 395.73C516.293 349.781 544.16 320 590.321 320C626.909 320 652.436 343.612 655.201 376.797H616.06C613.295 362.545 603.509 352.334 588.193 352.334C567.772 352.334 556.285 370.203 556.285 395.73C556.285 421.256 567.772 439.125 588.193 439.125C603.509 439.125 613.295 428.914 616.06 414.662H655.201C652.436 447.847 626.909 471.459 590.321 471.459C544.16 471.459 516.293 441.678 516.293 395.73Z" fill="#D31A27"/>
<path d="M364.098 470.183L417.278 321.276H464.503L517.258 470.183H475.139L465.779 441.891H413.875L404.728 470.183H364.098ZM423.873 411.046H455.569L439.614 362.757L423.873 411.046Z" fill="#D31A27"/>
<path d="M257.387 321.276H319.927C353.75 321.276 376.299 341.485 376.299 372.755C376.299 404.026 353.75 424.234 319.927 424.234H296.528V470.183H257.387V321.276ZM296.528 353.185V392.326H316.311C328.649 392.326 336.52 384.881 336.52 372.755C336.52 360.63 328.649 353.185 316.311 353.185H296.528Z" fill="#D31A27"/>
<path d="M62.5312 321.276H114.436L149.748 422.958L183.145 321.276H233.986V470.183H196.76V379.988L163.788 470.183H132.73L99.7578 379.988V470.183H62.5312V321.276Z" fill="#D31A27"/>
<path d="M0 321.276H39.1411V470.183H0V321.276Z" fill="#D31A27"/>
<path d="M1193.25 310.183V161.276H1249.19C1294.08 161.276 1324.5 192.547 1324.5 235.73C1324.5 278.912 1294.08 310.183 1249.19 310.183H1193.25ZM1232.39 278.274H1249.19C1272.17 278.274 1284.5 260.618 1284.5 235.73C1284.5 210.841 1272.17 193.185 1249.19 193.185H1232.39V278.274Z" fill="#D31A27"/>
<path d="M1083.77 310.183V161.276H1122.91V276.998H1177.37V310.183H1083.77Z" fill="#D31A27"/>
<path d="M943.754 161.276H1006.51C1040.76 161.276 1063.94 181.485 1063.94 212.755C1063.94 231.05 1055.22 245.94 1041.82 254.662L1068.84 310.183H1025.87L1003.95 264.234H982.895V310.183H943.754V161.276ZM982.895 193.185V232.326H1003.32C1016.08 232.326 1023.95 224.881 1023.95 212.755C1023.95 200.63 1016.08 193.185 1003.32 193.185H982.895Z" fill="#D31A27"/>
<path d="M926.573 235.729C926.573 278.912 896.153 311.459 851.269 311.459C806.384 311.459 775.965 278.912 775.965 235.729C775.965 192.547 806.384 160 851.269 160C896.153 160 926.573 192.547 926.573 235.729ZM815.957 235.729C815.957 260.618 829.571 279.125 851.269 279.125C872.967 279.125 886.581 260.618 886.581 235.729C886.581 210.841 872.967 192.334 851.269 192.334C829.571 192.334 815.957 210.841 815.957 235.729Z" fill="#D31A27"/>
<path d="M564.762 161.276L605.179 160.851L628.791 261.256L653.893 161.276H687.929L712.392 261.256L736.855 161.276H776.209L736.004 310.183H691.332L670.06 221.477L649.638 310.183H604.966L564.762 161.276Z" fill="#D31A27"/>
<path d="M416.309 310.183V161.276H455.45V276.998H509.907V310.183H416.309Z" fill="#D31A27"/>
<path d="M251.504 310.183L304.685 161.276H351.909L404.665 310.183H362.545L353.186 281.891H301.281L292.134 310.183H251.504ZM311.279 251.046H342.975L327.021 202.757L311.279 251.046Z" fill="#D31A27"/>
<path d="M140.016 161.276H242.761V194.461H179.157V219.988H229.998V251.046H179.157V276.998H245.101V310.183H140.016V161.276Z" fill="#D31A27"/>
<path d="M0 161.276H62.7534C97.0018 161.276 120.189 181.485 120.189 212.755C120.189 231.05 111.467 245.94 98.0655 254.662L125.081 310.183H82.1112L60.2007 264.234H39.1411V310.183H0V161.276ZM39.1411 193.185V232.326H59.5625C72.3259 232.326 80.1967 224.881 80.1967 212.755C80.1967 200.63 72.3259 193.185 59.5625 193.185H39.1411Z" fill="#D31A27"/>
<path d="M887.664 1.27637H950.417C984.666 1.27637 1007.85 21.4851 1007.85 52.7554C1007.85 71.0496 999.131 85.9403 985.73 94.6619L1012.75 150.183H969.775L947.865 104.234H926.805V150.183H887.664V1.27637ZM926.805 33.1849V72.326H947.227C959.99 72.326 967.861 64.8806 967.861 52.7554C967.861 40.6302 959.99 33.1849 947.227 33.1849H926.805Z" fill="#D31A27"/>
<path d="M870.483 75.7295C870.483 118.912 840.064 151.459 795.179 151.459C750.294 151.459 719.875 118.912 719.875 75.7295C719.875 32.5467 750.294 0 795.179 0C840.064 0 870.483 32.5467 870.483 75.7295ZM759.867 75.7295C759.867 100.618 773.481 119.125 795.179 119.125C816.877 119.125 830.491 100.618 830.491 75.7295C830.491 50.8409 816.877 32.3339 795.179 32.3339C773.481 32.3339 759.867 50.8409 759.867 75.7295Z" fill="#D31A27"/>
<path d="M614.074 1.27637H715.543V34.4612H653.215V61.2643H704.056V92.322H653.215V150.183H614.074V1.27637Z" fill="#D31A27"/>
<path d="M427.559 1.27637H547.109V34.4612H506.904V150.183H467.763V34.4612H427.559V1.27637Z" fill="#D31A27"/>
<path d="M349 150.183V1.27637H388.141V116.998H442.598V150.183H349Z" fill="#D31A27"/>
<path d="M286.473 1.27637H325.614V150.183H286.473V1.27637Z" fill="#D31A27"/>
<path d="M136.875 1.27637H176.016V87.642C176.016 107.425 182.823 118.487 200.479 118.487C218.135 118.487 224.942 107.425 224.942 87.642V1.27637H264.084V85.5148C264.084 127.847 242.173 151.459 200.479 151.459C158.785 151.459 136.875 127.847 136.875 85.5148V1.27637Z" fill="#D31A27"/>
<path d="M0 1.27637H58.9244C94.6619 1.27637 115.934 15.3161 115.934 40.6302C115.934 60.2007 104.022 71.0496 85.3021 73.815C107.213 76.155 120.827 86.7911 120.827 107.851C120.827 133.803 99.5545 150.183 62.1152 150.183H0V1.27637ZM39.1411 30.8449V60.6262H59.5625C70.4114 60.6262 76.7931 54.6699 76.7931 45.7355C76.7931 36.8012 70.4114 30.8449 59.5625 30.8449H39.1411ZM39.1411 89.7693V120.401H62.5407C73.815 120.401 80.6221 114.658 80.6221 105.085C80.6221 95.5128 73.815 89.7693 62.5407 89.7693H39.1411Z" fill="#D31A27"/>
</svg>
