<svg width="32" height="32" viewBox="0 0 32 32" fill="none" xmlns="http://www.w3.org/2000/svg">
<g clip-path="url(#clip0_12735_7096)">
<mask id="mask0_12735_7096" style="mask-type:luminance" maskUnits="userSpaceOnUse" x="4" y="5" width="24" height="21">
<path d="M27.9826 5H4V26H27.9826V5Z" fill="white"/>
</mask>
<g mask="url(#mask0_12735_7096)">
<path d="M19.0194 25.9801H27.0466C27.7549 25.9801 28.1981 25.2197 27.8435 24.6119L23.8299 17.7207C23.4753 17.1129 22.5907 17.1129 22.2361 17.7207L18.2225 24.6119C17.8679 25.2197 18.3111 25.9801 19.0194 25.9801Z" fill="#E6212F"/>
<path d="M20.0223 11.1854L16.7235 5.52006C16.3904 4.94741 15.5561 4.94741 15.223 5.52006L4.12838 24.5699C3.76351 25.1972 4.21983 25.9798 4.94958 25.9798H11.5555C12.2601 25.9798 12.9105 25.607 13.2623 25.0029L20.0223 13.3955C20.4207 12.7119 20.4207 11.8691 20.0223 11.1854Z" fill="#E6212F"/>
</g>
</g>
<defs>
<clipPath id="clip0_12735_7096">
<rect width="24" height="21" fill="white" transform="translate(4 5)"/>
</clipPath>
</defs>
</svg>
