<svg xmlns="http://www.w3.org/2000/svg" width="560" height="720" viewBox="0 0 560 720">
    <defs><linearGradient id="g301" x1="0" y1="0" x2="1" y2="1">
      <stop offset="0" stop-color="#2a2a30"/><stop offset="0.6" stop-color="#4a4a58"/><stop offset="1" stop-color="#b4b8a5"/>
    </linearGradient></defs>
    <rect width="560" height="720" fill="url(#g301)"/>
    <path d="M0 20.0 Q 35.0 30.4 70.0 15.6 Q 105.0 -1.6 140.0 31.5 Q 175.0 0.7 210.0 9.3 Q 245.0 -7.6 280.0 28.9 Q 315.0 20.3 350.0 24.9 Q 385.0 23.2 420.0 34.3 Q 455.0 22.7 490.0 18.4 Q 525.0 8.3 560.0 24.3 Q 595.0 34.4 630.0 14.5" fill="none" stroke="#b4b8a5" stroke-width="1.2" opacity="0.28"/><path d="M0 122.9 Q 35.0 128.3 70.0 117.3 Q 105.0 114.6 140.0 134.7 Q 175.0 148.8 210.0 108.4 Q 245.0 114.6 280.0 132.4 Q 315.0 98.8 350.0 120.5 Q 385.0 110.1 420.0 122.8 Q 455.0 127.9 490.0 116.2 Q 525.0 116.6 560.0 114.0 Q 595.0 119.5 630.0 133.6" fill="none" stroke="#b4b8a5" stroke-width="1.2" opacity="0.28"/><path d="M0 225.7 Q 35.0 219.8 70.0 230.0 Q 105.0 246.3 140.0 240.4 Q 175.0 236.7 210.0 226.9 Q 245.0 252.5 280.0 218.5 Q 315.0 255.5 350.0 215.4 Q 385.0 248.8 420.0 229.8 Q 455.0 247.6 490.0 217.1 Q 525.0 247.3 560.0 222.8 Q 595.0 199.7 630.0 210.8" fill="none" stroke="#b4b8a5" stroke-width="1.2" opacity="0.28"/><path d="M0 328.6 Q 35.0 354.0 70.0 330.3 Q 105.0 356.8 140.0 342.2 Q 175.0 334.8 210.0 316.3 Q 245.0 324.4 280.0 316.4 Q 315.0 337.0 350.0 341.5 Q 385.0 353.5 420.0 315.5 Q 455.0 313.8 490.0 330.7 Q 525.0 342.1 560.0 334.4 Q 595.0 322.1 630.0 341.2" fill="none" stroke="#b4b8a5" stroke-width="1.2" opacity="0.28"/><path d="M0 431.4 Q 35.0 428.7 70.0 428.3 Q 105.0 460.8 140.0 418.2 Q 175.0 447.2 210.0 417.2 Q 245.0 419.5 280.0 445.4 Q 315.0 440.8 350.0 422.3 Q 385.0 415.9 420.0 427.6 Q 455.0 434.6 490.0 435.5 Q 525.0 461.2 560.0 432.8 Q 595.0 450.3 630.0 427.6" fill="none" stroke="#b4b8a5" stroke-width="1.2" opacity="0.28"/><path d="M0 534.3 Q 35.0 545.5 70.0 538.4 Q 105.0 557.6 140.0 531.6 Q 175.0 550.2 210.0 537.7 Q 245.0 518.4 280.0 530.1 Q 315.0 564.2 350.0 528.7 Q 385.0 511.4 420.0 548.8 Q 455.0 512.8 490.0 524.1 Q 525.0 548.9 560.0 534.3 Q 595.0 525.2 630.0 537.6" fill="none" stroke="#b4b8a5" stroke-width="1.2" opacity="0.28"/><path d="M0 637.1 Q 35.0 632.3 70.0 651.4 Q 105.0 627.1 140.0 632.1 Q 175.0 643.3 210.0 625.9 Q 245.0 666.6 280.0 625.4 Q 315.0 647.9 350.0 631.1 Q 385.0 610.8 420.0 638.5 Q 455.0 666.6 490.0 626.7 Q 525.0 610.5 560.0 628.7 Q 595.0 626.9 630.0 631.6" fill="none" stroke="#b4b8a5" stroke-width="1.2" opacity="0.28"/><g transform="translate(269,446)">
    <path d="M -151.2 -43.2 Q -172.8 -216 0 -226.8 Q 183.6 -216 155.51999999999998 -21.6 L 168.48000000000002 54 Q 86.4 97.2 43.2 86.4 L -129.6 97.2 Q -172.8 21.6 -151.2 -43.2 Z" fill="#111112" opacity="0.92"/>
    <path d="M -118.80000000000001 -10.8 Q -21.6 -60.480000000000004 108 -17.28 L 118.80000000000001 25.919999999999998 Q 21.6 43.2 -108 32.4 Z" fill="#2a2a30" opacity="0.85"/>
    <circle cx="32.4" cy="-75.6" r="25.919999999999998" fill="#4a4a58"/>
  </g>
  </svg>