<svg xmlns="http://www.w3.org/2000/svg" width="560" height="720" viewBox="0 0 560 720">
    <defs><linearGradient id="g302" x1="0" y1="0" x2="1" y2="1">
      <stop offset="0" stop-color="#1f2a24"/><stop offset="0.6" stop-color="#2f4a3c"/><stop offset="1" stop-color="#efefe5"/>
    </linearGradient></defs>
    <rect width="560" height="720" fill="url(#g302)"/>
    <path d="M0 20.0 Q 35.0 1.2 70.0 31.2 Q 105.0 47.8 140.0 33.3 Q 175.0 25.1 210.0 24.4 Q 245.0 35.1 280.0 31.6 Q 315.0 14.3 350.0 7.9 Q 385.0 2.1 420.0 7.5 Q 455.0 29.0 490.0 12.4 Q 525.0 49.3 560.0 12.8 Q 595.0 14.4 630.0 22.0" fill="none" stroke="#efefe5" stroke-width="1.2" opacity="0.28"/><path d="M0 122.9 Q 35.0 127.2 70.0 116.0 Q 105.0 122.7 140.0 113.2 Q 175.0 152.3 210.0 108.3 Q 245.0 146.1 280.0 132.8 Q 315.0 109.4 350.0 111.8 Q 385.0 106.3 420.0 126.9 Q 455.0 148.2 490.0 118.4 Q 525.0 119.7 560.0 129.3 Q 595.0 139.7 630.0 121.9" fill="none" stroke="#efefe5" stroke-width="1.2" opacity="0.28"/><path d="M0 225.7 Q 35.0 243.4 70.0 226.9 Q 105.0 228.1 140.0 222.9 Q 175.0 250.9 210.0 216.2 Q 245.0 199.4 280.0 227.0 Q 315.0 200.0 350.0 212.5 Q 385.0 197.8 420.0 220.8 Q 455.0 244.8 490.0 221.0 Q 525.0 232.7 560.0 225.0 Q 595.0 227.0 630.0 216.5" fill="none" stroke="#efefe5" stroke-width="1.2" opacity="0.28"/><path d="M0 328.6 Q 35.0 305.7 70.0 340.9 Q 105.0 350.6 140.0 335.0 Q 175.0 315.2 210.0 319.9 Q 245.0 349.7 280.0 331.6 Q 315.0 331.1 350.0 322.0 Q 385.0 336.4 420.0 341.9 Q 455.0 344.2 490.0 314.1 Q 525.0 337.0 560.0 323.5 Q 595.0 299.1 630.0 342.6" fill="none" stroke="#efefe5" stroke-width="1.2" opacity="0.28"/><path d="M0 431.4 Q 35.0 424.1 70.0 429.8 Q 105.0 443.1 140.0 437.9 Q 175.0 442.8 210.0 441.1 Q 245.0 401.8 280.0 421.7 Q 315.0 435.8 350.0 418.8 Q 385.0 454.7 420.0 433.2 Q 455.0 413.7 490.0 438.9 Q 525.0 429.5 560.0 427.4 Q 595.0 410.1 630.0 424.6" fill="none" stroke="#efefe5" stroke-width="1.2" opacity="0.28"/><path d="M0 534.3 Q 35.0 552.4 70.0 544.2 Q 105.0 539.3 140.0 523.8 Q 175.0 532.6 210.0 532.3 Q 245.0 549.4 280.0 537.2 Q 315.0 542.1 350.0 547.2 Q 385.0 528.5 420.0 545.4 Q 455.0 560.0 490.0 529.3 Q 525.0 520.2 560.0 519.6 Q 595.0 559.2 630.0 526.7" fill="none" stroke="#efefe5" stroke-width="1.2" opacity="0.28"/><path d="M0 637.1 Q 35.0 650.3 70.0 649.8 Q 105.0 639.3 140.0 638.4 Q 175.0 641.5 210.0 645.7 Q 245.0 645.6 280.0 624.7 Q 315.0 666.5 350.0 641.5 Q 385.0 663.2 420.0 641.8 Q 455.0 630.7 490.0 633.3 Q 525.0 658.1 560.0 632.4 Q 595.0 612.2 630.0 630.4" fill="none" stroke="#efefe5" stroke-width="1.2" opacity="0.28"/><g transform="translate(228,446)">
    <path d="M -151.2 -43.2 Q -172.8 -216 0 -226.8 Q 183.6 -216 155.51999999999998 -21.6 L 168.48000000000002 54 Q 86.4 97.2 43.2 86.4 L -129.6 97.2 Q -172.8 21.6 -151.2 -43.2 Z" fill="#111112" opacity="0.92"/>
    <path d="M -118.80000000000001 -10.8 Q -21.6 -60.480000000000004 108 -17.28 L 118.80000000000001 25.919999999999998 Q 21.6 43.2 -108 32.4 Z" fill="#1f2a24" opacity="0.85"/>
    <circle cx="32.4" cy="-75.6" r="25.919999999999998" fill="#2f4a3c"/>
  </g>
  </svg>