<svg xmlns="http://www.w3.org/2000/svg" width="560" height="720" viewBox="0 0 560 720">
    <defs><linearGradient id="g303" x1="0" y1="0" x2="1" y2="1">
      <stop offset="0" stop-color="#30202a"/><stop offset="0.6" stop-color="#5a3050"/><stop offset="1" stop-color="#d2ff00"/>
    </linearGradient></defs>
    <rect width="560" height="720" fill="url(#g303)"/>
    <path d="M0 20.0 Q 35.0 32.1 70.0 16.8 Q 105.0 37.1 140.0 21.5 Q 175.0 -1.0 210.0 21.9 Q 245.0 3.0 280.0 24.2 Q 315.0 -4.3 350.0 26.6 Q 385.0 6.0 420.0 5.5 Q 455.0 13.3 490.0 25.2 Q 525.0 32.4 560.0 24.7 Q 595.0 9.7 630.0 19.5" fill="none" stroke="#d2ff00" stroke-width="1.2" opacity="0.28"/><path d="M0 122.9 Q 35.0 140.2 70.0 113.6 Q 105.0 137.9 140.0 110.0 Q 175.0 140.0 210.0 127.7 Q 245.0 152.4 280.0 121.0 Q 315.0 97.8 350.0 112.1 Q 385.0 132.3 420.0 128.8 Q 455.0 141.0 490.0 134.5 Q 525.0 113.7 560.0 116.7 Q 595.0 96.7 630.0 119.5" fill="none" stroke="#d2ff00" stroke-width="1.2" opacity="0.28"/><path d="M0 225.7 Q 35.0 210.1 70.0 233.7 Q 105.0 239.8 140.0 239.9 Q 175.0 220.6 210.0 228.8 Q 245.0 231.2 280.0 229.8 Q 315.0 209.1 350.0 238.2 Q 385.0 222.4 420.0 210.9 Q 455.0 250.8 490.0 218.5 Q 525.0 244.1 560.0 214.1 Q 595.0 207.9 630.0 226.8" fill="none" stroke="#d2ff00" stroke-width="1.2" opacity="0.28"/><path d="M0 328.6 Q 35.0 307.3 70.0 332.8 Q 105.0 308.0 140.0 329.0 Q 175.0 324.5 210.0 334.8 Q 245.0 336.4 280.0 337.5 Q 315.0 328.2 350.0 325.5 Q 385.0 328.3 420.0 327.3 Q 455.0 333.5 490.0 328.3 Q 525.0 319.1 560.0 326.5 Q 595.0 312.7 630.0 324.1" fill="none" stroke="#d2ff00" stroke-width="1.2" opacity="0.28"/><path d="M0 431.4 Q 35.0 417.3 70.0 443.1 Q 105.0 420.4 140.0 437.0 Q 175.0 438.6 210.0 419.6 Q 245.0 418.4 280.0 422.0 Q 315.0 439.5 350.0 441.0 Q 385.0 427.0 420.0 439.1 Q 455.0 452.2 490.0 436.9 Q 525.0 458.4 560.0 444.4 Q 595.0 414.1 630.0 422.7" fill="none" stroke="#d2ff00" stroke-width="1.2" opacity="0.28"/><path d="M0 534.3 Q 35.0 542.6 70.0 521.9 Q 105.0 507.7 140.0 526.8 Q 175.0 541.0 210.0 527.4 Q 245.0 557.0 280.0 528.6 Q 315.0 537.8 350.0 522.6 Q 385.0 547.5 420.0 546.5 Q 455.0 506.0 490.0 520.4 Q 525.0 510.9 560.0 539.4 Q 595.0 530.1 630.0 547.3" fill="none" stroke="#d2ff00" stroke-width="1.2" opacity="0.28"/><path d="M0 637.1 Q 35.0 637.2 70.0 636.4 Q 105.0 607.5 140.0 629.6 Q 175.0 665.6 210.0 645.6 Q 245.0 655.1 280.0 634.4 Q 315.0 646.3 350.0 625.0 Q 385.0 631.1 420.0 624.4 Q 455.0 616.3 490.0 646.2 Q 525.0 617.1 560.0 635.8 Q 595.0 638.9 630.0 647.5" fill="none" stroke="#d2ff00" stroke-width="1.2" opacity="0.28"/><g transform="translate(205,446)">
    <path d="M -151.2 -43.2 Q -172.8 -216 0 -226.8 Q 183.6 -216 155.51999999999998 -21.6 L 168.48000000000002 54 Q 86.4 97.2 43.2 86.4 L -129.6 97.2 Q -172.8 21.6 -151.2 -43.2 Z" fill="#111112" opacity="0.92"/>
    <path d="M -118.80000000000001 -10.8 Q -21.6 -60.480000000000004 108 -17.28 L 118.80000000000001 25.919999999999998 Q 21.6 43.2 -108 32.4 Z" fill="#30202a" opacity="0.85"/>
    <circle cx="32.4" cy="-75.6" r="25.919999999999998" fill="#5a3050"/>
  </g>
  </svg>