<svg xmlns="http://www.w3.org/2000/svg" width="560" height="720" viewBox="0 0 560 720">
    <defs><linearGradient id="g304" x1="0" y1="0" x2="1" y2="1">
      <stop offset="0" stop-color="#243028"/><stop offset="0.6" stop-color="#40624a"/><stop offset="1" stop-color="#dde1d2"/>
    </linearGradient></defs>
    <rect width="560" height="720" fill="url(#g304)"/>
    <path d="M0 20.0 Q 35.0 2.9 70.0 32.4 Q 105.0 33.3 140.0 10.3 Q 175.0 20.9 210.0 23.5 Q 245.0 19.1 280.0 7.5 Q 315.0 21.6 350.0 31.8 Q 385.0 41.2 420.0 13.7 Q 455.0 21.9 490.0 6.9 Q 525.0 -3.6 560.0 11.3 Q 595.0 -10.0 630.0 6.5" fill="none" stroke="#dde1d2" stroke-width="1.2" opacity="0.28"/><path d="M0 122.9 Q 35.0 145.6 70.0 137.6 Q 105.0 134.4 140.0 130.4 Q 175.0 152.5 210.0 114.4 Q 245.0 124.5 280.0 108.1 Q 315.0 143.8 350.0 116.9 Q 385.0 124.0 420.0 110.2 Q 455.0 131.6 490.0 116.3 Q 525.0 135.1 560.0 116.5 Q 595.0 142.0 630.0 108.5" fill="none" stroke="#dde1d2" stroke-width="1.2" opacity="0.28"/><path d="M0 225.7 Q 35.0 229.4 70.0 225.3 Q 105.0 255.7 140.0 217.1 Q 175.0 229.2 210.0 214.6 Q 245.0 222.3 280.0 227.8 Q 315.0 221.5 350.0 225.5 Q 385.0 255.4 420.0 225.1 Q 455.0 234.3 490.0 230.6 Q 525.0 197.6 560.0 216.1 Q 595.0 229.0 630.0 216.4" fill="none" stroke="#dde1d2" stroke-width="1.2" opacity="0.28"/><path d="M0 328.6 Q 35.0 347.4 70.0 342.2 Q 105.0 334.8 140.0 328.0 Q 175.0 309.1 210.0 322.6 Q 245.0 317.4 280.0 313.9 Q 315.0 303.6 350.0 342.0 Q 385.0 322.6 420.0 316.4 Q 455.0 352.3 490.0 329.3 Q 525.0 319.2 560.0 314.0 Q 595.0 348.7 630.0 325.5" fill="none" stroke="#dde1d2" stroke-width="1.2" opacity="0.28"/><path d="M0 431.4 Q 35.0 416.0 70.0 437.8 Q 105.0 439.1 140.0 421.3 Q 175.0 443.4 210.0 421.6 Q 245.0 412.4 280.0 430.5 Q 315.0 451.6 350.0 427.6 Q 385.0 449.5 420.0 433.5 Q 455.0 461.1 490.0 429.6 Q 525.0 446.9 560.0 432.1 Q 595.0 457.1 630.0 424.3" fill="none" stroke="#dde1d2" stroke-width="1.2" opacity="0.28"/><path d="M0 534.3 Q 35.0 524.7 70.0 533.2 Q 105.0 517.2 140.0 545.5 Q 175.0 507.7 210.0 528.5 Q 245.0 545.1 280.0 535.2 Q 315.0 504.3 350.0 531.6 Q 385.0 523.1 420.0 539.7 Q 455.0 518.4 490.0 528.6 Q 525.0 558.1 560.0 530.3 Q 595.0 537.0 630.0 542.0" fill="none" stroke="#dde1d2" stroke-width="1.2" opacity="0.28"/><path d="M0 637.1 Q 35.0 646.7 70.0 651.4 Q 105.0 657.2 140.0 639.2 Q 175.0 638.7 210.0 633.1 Q 245.0 654.6 280.0 651.8 Q 315.0 665.2 350.0 624.9 Q 385.0 627.8 420.0 629.5 Q 455.0 660.8 490.0 637.4 Q 525.0 649.7 560.0 622.6 Q 595.0 660.5 630.0 648.8" fill="none" stroke="#dde1d2" stroke-width="1.2" opacity="0.28"/><g transform="translate(228,446)">
    <path d="M -151.2 -43.2 Q -172.8 -216 0 -226.8 Q 183.6 -216 155.51999999999998 -21.6 L 168.48000000000002 54 Q 86.4 97.2 43.2 86.4 L -129.6 97.2 Q -172.8 21.6 -151.2 -43.2 Z" fill="#111112" opacity="0.92"/>
    <path d="M -118.80000000000001 -10.8 Q -21.6 -60.480000000000004 108 -17.28 L 118.80000000000001 25.919999999999998 Q 21.6 43.2 -108 32.4 Z" fill="#243028" opacity="0.85"/>
    <circle cx="32.4" cy="-75.6" r="25.919999999999998" fill="#40624a"/>
  </g>
  </svg>