<svg xmlns="http://www.w3.org/2000/svg">
  <symbol id="logo" viewBox="0 0 24 24"><path fill="currentColor" d="m12 0 5 5-5 5-5-5 5-5Zm0 14 5 5-5 5-5-5 5-5ZM0 12l5-5 5 5-5 5-5-5Zm14 0 5-5 5 5-5 5-5-5Z"/></symbol>
  <symbol id="chevron-down" viewBox="0 0 16 16"><path d="m3 6 5 5 5-5" fill="none" stroke="currentColor" stroke-width="1.5"/></symbol>
  <symbol id="close" viewBox="0 0 24 24"><path d="M4 4l16 16M20 4 4 20" fill="none" stroke="currentColor" stroke-width="1.5"/></symbol>
  <symbol id="external" viewBox="0 0 24 24"><path d="M8 5h11v11M19 5 5 19" fill="none" stroke="currentColor" stroke-width="1.5"/></symbol>
  <symbol id="arrow-right" viewBox="0 0 24 24"><path d="M3 12h17m-6-6 6 6-6 6" fill="none" stroke="currentColor" stroke-width="1.5"/></symbol>
  <symbol id="arrow-down" viewBox="0 0 24 24"><path d="M12 3v17m-6-6 6 6 6-6" fill="none" stroke="currentColor" stroke-width="1.5"/></symbol>
  <symbol id="arrow-up" viewBox="0 0 24 24"><path d="M12 21V4m-6 6 6-6 6 6" fill="none" stroke="currentColor" stroke-width="1.5"/></symbol>
  <symbol id="plus" viewBox="0 0 24 24"><path d="M12 4v16M4 12h16" fill="none" stroke="currentColor" stroke-width="1.5"/></symbol>
  <symbol id="minus" viewBox="0 0 24 24"><path d="M4 12h16" fill="none" stroke="currentColor" stroke-width="1.5"/></symbol>
  <symbol id="search" viewBox="0 0 24 24"><circle cx="10" cy="10" r="6" fill="none" stroke="currentColor" stroke-width="1.5"/><path d="m15 15 6 6" stroke="currentColor" stroke-width="1.5"/></symbol>
  <symbol id="copy" viewBox="0 0 24 24"><path d="M8 8h12v12H8zM4 16V4h12" fill="none" stroke="currentColor" stroke-width="1.5"/></symbol>
  <symbol id="download" viewBox="0 0 24 24"><path d="M12 3v12m-5-5 5 5 5-5M4 20h16" fill="none" stroke="currentColor" stroke-width="1.5"/></symbol>
</svg>
