<svg width="64" height="64" viewBox="0 0 64 64" fill="none" xmlns="http://www.w3.org/2000/svg">
<rect width="64" height="64" rx="20" fill="white"/>
<path d="M40.6766 23.8272L42.8567 21.6471L44.978 23.7684L42.7979 25.9485C44.6453 28.258 45.75 31.1875 45.75 34.375C45.75 41.8309 39.7059 47.875 32.25 47.875C24.7942 47.875 18.75 41.8309 18.75 34.375C18.75 26.9192 24.7942 20.875 32.25 20.875C35.4375 20.875 38.367 21.9797 40.6766 23.8272ZM32.25 44.875C38.049 44.875 42.75 40.174 42.75 34.375C42.75 28.576 38.049 23.875 32.25 23.875C26.451 23.875 21.75 28.576 21.75 34.375C21.75 40.174 26.451 44.875 32.25 44.875ZM30.75 26.875H33.75V35.875H30.75V26.875ZM26.25 16.375H38.25V19.375H26.25V16.375Z" fill="url(#paint0_linear_4906_60242)"/>
<defs>
<linearGradient id="paint0_linear_4906_60242" x1="32.25" y1="16.375" x2="32.25" y2="47.875" gradientUnits="userSpaceOnUse">
<stop stop-color="#DEE5FF"/>
<stop offset="1" stop-color="#597EFF"/>
</linearGradient>
</defs>
</svg>
