<svg xmlns="http://www.w3.org/2000/svg" width="720" height="900" viewBox="0 0 720 900">
    <defs><linearGradient id="g105" x1="0" y1="0" x2="1" y2="1">
      <stop offset="0" stop-color="#30202a"/><stop offset="0.6" stop-color="#5a3050"/><stop offset="1" stop-color="#d2ff00"/>
    </linearGradient></defs>
    <rect width="720" height="900" fill="url(#g105)"/>
    <path d="M0 20.0 Q 45.0 47.3 90.0 14.5 Q 135.0 3.5 180.0 10.9 Q 225.0 36.3 270.0 17.4 Q 315.0 0.6 360.0 33.4 Q 405.0 41.1 450.0 27.8 Q 495.0 34.7 540.0 8.5 Q 585.0 16.7 630.0 20.4 Q 675.0 -0.3 720.0 17.7 Q 765.0 15.1 810.0 7.9" fill="none" stroke="#d2ff00" stroke-width="1.2" opacity="0.28"/><path d="M0 148.6 Q 45.0 156.9 90.0 160.1 Q 135.0 146.7 180.0 158.6 Q 225.0 161.1 270.0 136.3 Q 315.0 152.7 360.0 137.4 Q 405.0 164.9 450.0 134.7 Q 495.0 177.9 540.0 153.9 Q 585.0 164.0 630.0 142.6 Q 675.0 166.5 720.0 162.6 Q 765.0 170.1 810.0 147.4" fill="none" stroke="#d2ff00" stroke-width="1.2" opacity="0.28"/><path d="M0 277.1 Q 45.0 305.4 90.0 263.7 Q 135.0 255.8 180.0 290.5 Q 225.0 291.3 270.0 264.1 Q 315.0 279.9 360.0 266.8 Q 405.0 270.3 450.0 268.8 Q 495.0 271.8 540.0 272.1 Q 585.0 269.6 630.0 289.2 Q 675.0 279.9 720.0 273.9 Q 765.0 265.8 810.0 284.9" fill="none" stroke="#d2ff00" stroke-width="1.2" opacity="0.28"/><path d="M0 405.7 Q 45.0 395.2 90.0 413.6 Q 135.0 430.2 180.0 394.6 Q 225.0 387.7 270.0 418.0 Q 315.0 386.9 360.0 414.9 Q 405.0 430.2 450.0 410.1 Q 495.0 404.3 540.0 392.0 Q 585.0 415.7 630.0 391.5 Q 675.0 413.4 720.0 398.0 Q 765.0 402.2 810.0 391.1" fill="none" stroke="#d2ff00" stroke-width="1.2" opacity="0.28"/><path d="M0 534.3 Q 45.0 529.2 90.0 526.0 Q 135.0 564.1 180.0 540.1 Q 225.0 518.9 270.0 547.6 Q 315.0 531.8 360.0 545.6 Q 405.0 556.7 450.0 520.2 Q 495.0 531.9 540.0 522.4 Q 585.0 538.6 630.0 547.6 Q 675.0 511.4 720.0 540.5 Q 765.0 550.6 810.0 520.2" fill="none" stroke="#d2ff00" stroke-width="1.2" opacity="0.28"/><path d="M0 662.9 Q 45.0 650.3 90.0 676.4 Q 135.0 636.5 180.0 654.9 Q 225.0 685.3 270.0 664.2 Q 315.0 645.4 360.0 671.0 Q 405.0 656.7 450.0 656.9 Q 495.0 678.3 540.0 653.4 Q 585.0 681.6 630.0 672.9 Q 675.0 667.4 720.0 677.4 Q 765.0 653.9 810.0 654.0" fill="none" stroke="#d2ff00" stroke-width="1.2" opacity="0.28"/><path d="M0 791.4 Q 45.0 761.8 90.0 782.5 Q 135.0 808.5 180.0 787.5 Q 225.0 780.2 270.0 803.4 Q 315.0 786.6 360.0 777.5 Q 405.0 803.6 450.0 795.9 Q 495.0 786.2 540.0 801.1 Q 585.0 807.2 630.0 780.6 Q 675.0 790.7 720.0 795.3 Q 765.0 793.0 810.0 782.8" fill="none" stroke="#d2ff00" stroke-width="1.2" opacity="0.28"/><g transform="translate(408,558)">
    <path d="M -189 -54 Q -216 -270 0 -283.5 Q 229.5 -270 194.4 -27 L 210.6 67.5 Q 108 121.5 54 108 L -162 121.5 Q -216 27 -189 -54 Z" fill="#111112" opacity="0.92"/>
    <path d="M -148.5 -13.5 Q -27 -75.60000000000001 135 -21.6 L 148.5 32.4 Q 27 54 -135 40.5 Z" fill="#30202a" opacity="0.85"/>
    <circle cx="40.5" cy="-94.5" r="32.4" fill="#5a3050"/>
  </g>
  </svg>