<svg xmlns="http://www.w3.org/2000/svg" width="720" height="900" viewBox="0 0 720 900">
    <defs><linearGradient id="g101" x1="0" y1="0" x2="1" y2="1">
      <stop offset="0" stop-color="#22303a"/><stop offset="0.6" stop-color="#3a5566"/><stop offset="1" stop-color="#8fb2c9"/>
    </linearGradient></defs>
    <rect width="720" height="900" fill="url(#g101)"/>
    <path d="M0 20.0 Q 45.0 44.0 90.0 12.0 Q 135.0 19.0 180.0 5.6 Q 225.0 24.8 270.0 12.8 Q 315.0 44.8 360.0 8.4 Q 405.0 13.6 450.0 19.9 Q 495.0 27.6 540.0 31.1 Q 585.0 31.0 630.0 25.3 Q 675.0 4.0 720.0 5.7 Q 765.0 13.9 810.0 6.5" fill="none" stroke="#8fb2c9" stroke-width="1.2" opacity="0.28"/><path d="M0 148.6 Q 45.0 174.7 90.0 149.8 Q 135.0 171.2 180.0 162.3 Q 225.0 143.4 270.0 141.5 Q 315.0 157.9 360.0 152.3 Q 405.0 122.0 450.0 141.1 Q 495.0 154.1 540.0 156.7 Q 585.0 152.5 630.0 143.7 Q 675.0 170.7 720.0 148.3 Q 765.0 144.5 810.0 150.6" fill="none" stroke="#8fb2c9" stroke-width="1.2" opacity="0.28"/><path d="M0 277.1 Q 45.0 299.6 90.0 287.2 Q 135.0 307.1 180.0 262.4 Q 225.0 265.1 270.0 277.6 Q 315.0 256.8 360.0 266.4 Q 405.0 247.5 450.0 286.5 Q 495.0 285.8 540.0 279.9 Q 585.0 296.8 630.0 275.9 Q 675.0 268.5 720.0 283.2 Q 765.0 253.3 810.0 273.1" fill="none" stroke="#8fb2c9" stroke-width="1.2" opacity="0.28"/><path d="M0 405.7 Q 45.0 380.0 90.0 393.9 Q 135.0 390.4 180.0 401.6 Q 225.0 387.9 270.0 395.2 Q 315.0 383.6 360.0 396.6 Q 405.0 405.2 450.0 411.0 Q 495.0 405.8 540.0 411.6 Q 585.0 429.9 630.0 407.6 Q 675.0 400.4 720.0 410.0 Q 765.0 405.8 810.0 400.1" fill="none" stroke="#8fb2c9" stroke-width="1.2" opacity="0.28"/><path d="M0 534.3 Q 45.0 536.1 90.0 543.0 Q 135.0 513.5 180.0 526.8 Q 225.0 545.7 270.0 525.7 Q 315.0 543.3 360.0 528.5 Q 405.0 522.4 450.0 531.1 Q 495.0 505.6 540.0 523.2 Q 585.0 519.3 630.0 533.8 Q 675.0 510.7 720.0 526.7 Q 765.0 527.6 810.0 531.4" fill="none" stroke="#8fb2c9" stroke-width="1.2" opacity="0.28"/><path d="M0 662.9 Q 45.0 676.6 90.0 670.2 Q 135.0 657.4 180.0 661.5 Q 225.0 633.4 270.0 655.1 Q 315.0 678.2 360.0 655.2 Q 405.0 666.3 450.0 657.2 Q 495.0 668.2 540.0 676.7 Q 585.0 654.2 630.0 651.9 Q 675.0 673.3 720.0 673.4 Q 765.0 633.8 810.0 648.2" fill="none" stroke="#8fb2c9" stroke-width="1.2" opacity="0.28"/><path d="M0 791.4 Q 45.0 804.5 90.0 804.0 Q 135.0 796.4 180.0 794.5 Q 225.0 765.0 270.0 783.6 Q 315.0 815.8 360.0 793.0 Q 405.0 786.3 450.0 802.5 Q 495.0 800.1 540.0 785.6 Q 585.0 789.7 630.0 800.6 Q 675.0 813.1 720.0 797.3 Q 765.0 815.5 810.0 803.0" fill="none" stroke="#8fb2c9" stroke-width="1.2" opacity="0.28"/><g transform="translate(422,558)">
    <path d="M -189 -54 Q -216 -270 0 -283.5 Q 229.5 -270 194.4 -27 L 210.6 67.5 Q 108 121.5 54 108 L -162 121.5 Q -216 27 -189 -54 Z" fill="#111112" opacity="0.92"/>
    <path d="M -148.5 -13.5 Q -27 -75.60000000000001 135 -21.6 L 148.5 32.4 Q 27 54 -135 40.5 Z" fill="#22303a" opacity="0.85"/>
    <circle cx="40.5" cy="-94.5" r="32.4" fill="#3a5566"/>
  </g>
  </svg>