<svg xmlns="http://www.w3.org/2000/svg" width="720" height="900" viewBox="0 0 720 900">
    <defs><linearGradient id="g106" x1="0" y1="0" x2="1" y2="1">
      <stop offset="0" stop-color="#243028"/><stop offset="0.6" stop-color="#40624a"/><stop offset="1" stop-color="#dde1d2"/>
    </linearGradient></defs>
    <rect width="720" height="900" fill="url(#g106)"/>
    <path d="M0 20.0 Q 45.0 18.2 90.0 30.1 Q 135.0 -7.1 180.0 29.1 Q 225.0 10.2 270.0 21.6 Q 315.0 43.6 360.0 17.4 Q 405.0 8.3 450.0 9.5 Q 495.0 -8.0 540.0 16.9 Q 585.0 33.7 630.0 30.5 Q 675.0 11.0 720.0 16.0 Q 765.0 1.7 810.0 9.0" fill="none" stroke="#dde1d2" stroke-width="1.2" opacity="0.28"/><path d="M0 148.6 Q 45.0 152.0 90.0 160.4 Q 135.0 147.6 180.0 134.7 Q 225.0 175.0 270.0 150.9 Q 315.0 148.7 360.0 144.2 Q 405.0 120.9 450.0 152.7 Q 495.0 122.5 540.0 153.8 Q 585.0 157.3 630.0 159.1 Q 675.0 126.5 720.0 149.1 Q 765.0 145.7 810.0 134.4" fill="none" stroke="#dde1d2" stroke-width="1.2" opacity="0.28"/><path d="M0 277.1 Q 45.0 264.8 90.0 287.3 Q 135.0 292.5 180.0 264.5 Q 225.0 266.6 270.0 263.1 Q 315.0 303.5 360.0 275.8 Q 405.0 275.6 450.0 287.9 Q 495.0 260.1 540.0 278.4 Q 585.0 285.8 630.0 274.4 Q 675.0 264.7 720.0 275.3 Q 765.0 301.5 810.0 289.6" fill="none" stroke="#dde1d2" stroke-width="1.2" opacity="0.28"/><path d="M0 405.7 Q 45.0 387.3 90.0 409.9 Q 135.0 432.5 180.0 418.8 Q 225.0 384.2 270.0 394.0 Q 315.0 391.7 360.0 398.2 Q 405.0 431.6 450.0 420.1 Q 495.0 382.0 540.0 397.7 Q 585.0 380.1 630.0 420.6 Q 675.0 428.4 720.0 414.0 Q 765.0 416.8 810.0 405.6" fill="none" stroke="#dde1d2" stroke-width="1.2" opacity="0.28"/><path d="M0 534.3 Q 45.0 540.5 90.0 530.6 Q 135.0 559.9 180.0 547.7 Q 225.0 534.9 270.0 533.2 Q 315.0 545.4 360.0 540.7 Q 405.0 529.0 450.0 520.1 Q 495.0 545.4 540.0 529.7 Q 585.0 558.2 630.0 546.5 Q 675.0 534.3 720.0 521.3 Q 765.0 510.8 810.0 537.2" fill="none" stroke="#dde1d2" stroke-width="1.2" opacity="0.28"/><path d="M0 662.9 Q 45.0 678.4 90.0 661.9 Q 135.0 674.7 180.0 660.7 Q 225.0 665.2 270.0 666.5 Q 315.0 633.8 360.0 654.4 Q 405.0 679.4 450.0 655.2 Q 495.0 691.4 540.0 652.9 Q 585.0 659.3 630.0 663.1 Q 675.0 678.9 720.0 653.8 Q 765.0 665.5 810.0 674.7" fill="none" stroke="#dde1d2" stroke-width="1.2" opacity="0.28"/><path d="M0 791.4 Q 45.0 766.0 90.0 777.9 Q 135.0 800.5 180.0 796.8 Q 225.0 801.6 270.0 798.6 Q 315.0 802.1 360.0 778.1 Q 405.0 765.1 450.0 804.1 Q 495.0 771.5 540.0 788.3 Q 585.0 782.8 630.0 788.5 Q 675.0 804.9 720.0 795.9 Q 765.0 777.9 810.0 792.9" fill="none" stroke="#dde1d2" stroke-width="1.2" opacity="0.28"/><g transform="translate(295,558)">
    <path d="M -189 -54 Q -216 -270 0 -283.5 Q 229.5 -270 194.4 -27 L 210.6 67.5 Q 108 121.5 54 108 L -162 121.5 Q -216 27 -189 -54 Z" fill="#111112" opacity="0.92"/>
    <path d="M -148.5 -13.5 Q -27 -75.60000000000001 135 -21.6 L 148.5 32.4 Q 27 54 -135 40.5 Z" fill="#243028" opacity="0.85"/>
    <circle cx="40.5" cy="-94.5" r="32.4" fill="#40624a"/>
  </g>
  </svg>