<svg xmlns="http://www.w3.org/2000/svg" width="720" height="900" viewBox="0 0 720 900">
    <defs><linearGradient id="g103" x1="0" y1="0" x2="1" y2="1">
      <stop offset="0" stop-color="#2a2a30"/><stop offset="0.6" stop-color="#4a4a58"/><stop offset="1" stop-color="#b4b8a5"/>
    </linearGradient></defs>
    <rect width="720" height="900" fill="url(#g103)"/>
    <path d="M0 20.0 Q 45.0 45.7 90.0 13.3 Q 135.0 -2.3 180.0 29.0 Q 225.0 43.8 270.0 30.1 Q 315.0 18.3 360.0 17.8 Q 405.0 39.1 450.0 5.6 Q 495.0 12.7 540.0 33.2 Q 585.0 21.4 630.0 27.5 Q 675.0 18.8 720.0 10.1 Q 765.0 20.0 810.0 5.9" fill="none" stroke="#b4b8a5" stroke-width="1.2" opacity="0.28"/><path d="M0 148.6 Q 45.0 162.6 90.0 138.8 Q 135.0 158.2 180.0 159.5 Q 225.0 128.7 270.0 143.3 Q 315.0 165.1 360.0 145.3 Q 405.0 138.5 450.0 146.8 Q 495.0 154.6 540.0 136.2 Q 585.0 175.3 630.0 140.1 Q 675.0 156.9 720.0 160.7 Q 765.0 176.3 810.0 143.7" fill="none" stroke="#b4b8a5" stroke-width="1.2" opacity="0.28"/><path d="M0 277.1 Q 45.0 280.2 90.0 277.7 Q 135.0 253.6 180.0 285.7 Q 225.0 279.6 270.0 275.4 Q 315.0 267.6 360.0 273.1 Q 405.0 285.0 450.0 283.2 Q 495.0 264.2 540.0 278.1 Q 585.0 254.9 630.0 280.5 Q 675.0 292.3 720.0 270.9 Q 765.0 294.5 810.0 291.8" fill="none" stroke="#b4b8a5" stroke-width="1.2" opacity="0.28"/><path d="M0 405.7 Q 45.0 413.8 90.0 407.4 Q 135.0 394.9 180.0 398.0 Q 225.0 406.2 270.0 419.8 Q 315.0 402.7 360.0 390.8 Q 405.0 426.8 450.0 391.6 Q 495.0 395.3 540.0 401.6 Q 585.0 423.0 630.0 414.4 Q 675.0 420.2 720.0 408.6 Q 765.0 402.3 810.0 406.8" fill="none" stroke="#b4b8a5" stroke-width="1.2" opacity="0.28"/><path d="M0 534.3 Q 45.0 517.0 90.0 529.5 Q 135.0 509.0 180.0 537.3 Q 225.0 562.9 270.0 543.3 Q 315.0 536.9 360.0 536.0 Q 405.0 524.8 450.0 544.1 Q 495.0 559.4 540.0 544.0 Q 585.0 511.2 630.0 535.0 Q 675.0 529.1 720.0 521.4 Q 765.0 529.8 810.0 528.2" fill="none" stroke="#b4b8a5" stroke-width="1.2" opacity="0.28"/><path d="M0 662.9 Q 45.0 654.0 90.0 671.8 Q 135.0 673.6 180.0 649.9 Q 225.0 669.9 270.0 649.1 Q 315.0 675.7 360.0 668.8 Q 405.0 669.5 450.0 656.1 Q 495.0 669.8 540.0 650.1 Q 585.0 669.6 630.0 665.8 Q 675.0 672.7 720.0 657.0 Q 765.0 686.8 810.0 670.7" fill="none" stroke="#b4b8a5" stroke-width="1.2" opacity="0.28"/><path d="M0 791.4 Q 45.0 804.0 90.0 802.1 Q 135.0 792.1 180.0 799.7 Q 225.0 815.8 270.0 782.1 Q 315.0 804.0 360.0 789.1 Q 405.0 797.3 450.0 778.2 Q 495.0 817.4 540.0 794.1 Q 585.0 803.0 630.0 776.8 Q 675.0 796.5 720.0 797.2 Q 765.0 792.0 810.0 794.7" fill="none" stroke="#b4b8a5" stroke-width="1.2" opacity="0.28"/><g transform="translate(335,558)">
    <path d="M -189 -54 Q -216 -270 0 -283.5 Q 229.5 -270 194.4 -27 L 210.6 67.5 Q 108 121.5 54 108 L -162 121.5 Q -216 27 -189 -54 Z" fill="#111112" opacity="0.92"/>
    <path d="M -148.5 -13.5 Q -27 -75.60000000000001 135 -21.6 L 148.5 32.4 Q 27 54 -135 40.5 Z" fill="#2a2a30" opacity="0.85"/>
    <circle cx="40.5" cy="-94.5" r="32.4" fill="#4a4a58"/>
  </g>
  </svg>