<svg xmlns="http://www.w3.org/2000/svg" width="720" height="900" viewBox="0 0 720 900">
    <defs><linearGradient id="g102" x1="0" y1="0" x2="1" y2="1">
      <stop offset="0" stop-color="#3a2b1e"/><stop offset="0.6" stop-color="#7a4a24"/><stop offset="1" stop-color="#ff6b00"/>
    </linearGradient></defs>
    <rect width="720" height="900" fill="url(#g102)"/>
    <path d="M0 20.0 Q 45.0 14.9 90.0 27.7 Q 135.0 21.9 180.0 15.0 Q 225.0 25.3 270.0 33.7 Q 315.0 11.7 360.0 8.2 Q 405.0 37.7 450.0 26.2 Q 495.0 24.7 540.0 8.7 Q 585.0 5.4 630.0 22.8 Q 675.0 34.9 720.0 13.0 Q 765.0 24.9 810.0 23.9" fill="none" stroke="#ff6b00" stroke-width="1.2" opacity="0.28"/><path d="M0 148.6 Q 45.0 150.0 90.0 137.0 Q 135.0 154.6 180.0 149.2 Q 225.0 129.3 270.0 134.8 Q 315.0 174.6 360.0 156.6 Q 405.0 129.3 450.0 156.7 Q 495.0 177.5 540.0 138.8 Q 585.0 158.4 630.0 133.9 Q 675.0 162.8 720.0 157.5 Q 765.0 141.3 810.0 144.6" fill="none" stroke="#ff6b00" stroke-width="1.2" opacity="0.28"/><path d="M0 277.1 Q 45.0 263.3 90.0 291.0 Q 135.0 268.3 180.0 286.4 Q 225.0 295.3 270.0 269.3 Q 315.0 250.8 360.0 286.9 Q 405.0 281.3 450.0 269.2 Q 495.0 291.4 540.0 286.5 Q 585.0 306.9 630.0 276.6 Q 675.0 278.2 720.0 286.3 Q 765.0 291.7 810.0 284.8" fill="none" stroke="#ff6b00" stroke-width="1.2" opacity="0.28"/><path d="M0 405.7 Q 45.0 380.1 90.0 406.2 Q 135.0 407.1 180.0 410.4 Q 225.0 419.9 270.0 398.1 Q 315.0 389.4 360.0 408.4 Q 405.0 415.6 450.0 406.9 Q 495.0 416.4 540.0 392.4 Q 585.0 407.8 630.0 393.4 Q 675.0 405.4 720.0 400.1 Q 765.0 408.3 810.0 392.0" fill="none" stroke="#ff6b00" stroke-width="1.2" opacity="0.28"/><path d="M0 534.3 Q 45.0 516.0 90.0 543.9 Q 135.0 538.1 180.0 522.4 Q 225.0 512.1 270.0 528.4 Q 315.0 506.5 360.0 524.7 Q 405.0 533.2 450.0 533.7 Q 495.0 513.3 540.0 536.7 Q 585.0 552.6 630.0 519.9 Q 675.0 508.6 720.0 519.7 Q 765.0 541.1 810.0 544.7" fill="none" stroke="#ff6b00" stroke-width="1.2" opacity="0.28"/><path d="M0 662.9 Q 45.0 654.0 90.0 665.4 Q 135.0 676.1 180.0 659.5 Q 225.0 681.5 270.0 662.3 Q 315.0 675.8 360.0 658.4 Q 405.0 669.7 450.0 649.4 Q 495.0 657.3 540.0 662.3 Q 585.0 632.9 630.0 651.8 Q 675.0 635.3 720.0 676.7 Q 765.0 657.4 810.0 650.8" fill="none" stroke="#ff6b00" stroke-width="1.2" opacity="0.28"/><path d="M0 791.4 Q 45.0 782.6 90.0 802.8 Q 135.0 796.3 180.0 796.1 Q 225.0 775.8 270.0 795.6 Q 315.0 816.4 360.0 795.8 Q 405.0 781.2 450.0 779.8 Q 495.0 768.4 540.0 798.5 Q 585.0 811.4 630.0 789.8 Q 675.0 805.6 720.0 801.1 Q 765.0 782.7 810.0 781.8" fill="none" stroke="#ff6b00" stroke-width="1.2" opacity="0.28"/><g transform="translate(266,558)">
    <path d="M -189 -54 Q -216 -270 0 -283.5 Q 229.5 -270 194.4 -27 L 210.6 67.5 Q 108 121.5 54 108 L -162 121.5 Q -216 27 -189 -54 Z" fill="#111112" opacity="0.92"/>
    <path d="M -148.5 -13.5 Q -27 -75.60000000000001 135 -21.6 L 148.5 32.4 Q 27 54 -135 40.5 Z" fill="#3a2b1e" opacity="0.85"/>
    <circle cx="40.5" cy="-94.5" r="32.4" fill="#7a4a24"/>
  </g>
  </svg>