<svg xmlns="http://www.w3.org/2000/svg" width="720" height="900" viewBox="0 0 720 900">
    <defs><linearGradient id="g104" x1="0" y1="0" x2="1" y2="1">
      <stop offset="0" stop-color="#1f2a24"/><stop offset="0.6" stop-color="#2f4a3c"/><stop offset="1" stop-color="#efefe5"/>
    </linearGradient></defs>
    <rect width="720" height="900" fill="url(#g104)"/>
    <path d="M0 20.0 Q 45.0 16.5 90.0 28.9 Q 135.0 0.6 180.0 34.9 Q 225.0 10.0 270.0 12.1 Q 315.0 13.6 360.0 9.4 Q 405.0 -6.7 450.0 10.6 Q 495.0 47.3 540.0 30.1 Q 585.0 48.7 630.0 23.6 Q 675.0 43.4 720.0 19.5 Q 765.0 -3.1 810.0 32.0" fill="none" stroke="#efefe5" stroke-width="1.2" opacity="0.28"/><path d="M0 148.6 Q 45.0 126.6 90.0 159.4 Q 135.0 158.5 180.0 147.5 Q 225.0 176.0 270.0 154.8 Q 315.0 145.6 360.0 144.3 Q 405.0 154.9 450.0 159.2 Q 495.0 149.8 540.0 134.8 Q 585.0 127.4 630.0 160.2 Q 675.0 146.7 720.0 163.5 Q 765.0 123.4 810.0 147.2" fill="none" stroke="#efefe5" stroke-width="1.2" opacity="0.28"/><path d="M0 277.1 Q 45.0 301.8 90.0 274.3 Q 135.0 267.9 180.0 265.0 Q 225.0 275.0 270.0 276.3 Q 315.0 268.8 360.0 290.5 Q 405.0 272.0 450.0 269.4 Q 495.0 254.7 540.0 285.4 Q 585.0 292.5 630.0 267.7 Q 675.0 266.7 720.0 268.8 Q 765.0 301.2 810.0 283.5" fill="none" stroke="#efefe5" stroke-width="1.2" opacity="0.28"/><path d="M0 405.7 Q 45.0 409.7 90.0 394.5 Q 135.0 396.2 180.0 410.2 Q 225.0 431.8 270.0 416.6 Q 315.0 425.6 360.0 403.8 Q 405.0 395.1 450.0 391.5 Q 495.0 392.8 540.0 396.5 Q 585.0 435.6 630.0 392.8 Q 675.0 383.5 720.0 419.3 Q 765.0 400.7 810.0 419.3" fill="none" stroke="#efefe5" stroke-width="1.2" opacity="0.28"/><path d="M0 534.3 Q 45.0 534.5 90.0 534.4 Q 135.0 505.4 180.0 545.6 Q 225.0 559.5 270.0 542.9 Q 315.0 516.1 360.0 538.3 Q 405.0 536.6 450.0 538.0 Q 495.0 562.2 540.0 542.9 Q 585.0 516.8 630.0 536.2 Q 675.0 561.3 720.0 520.0 Q 765.0 547.3 810.0 540.3" fill="none" stroke="#efefe5" stroke-width="1.2" opacity="0.28"/><path d="M0 662.9 Q 45.0 660.2 90.0 674.7 Q 135.0 665.8 180.0 672.6 Q 225.0 686.5 270.0 672.3 Q 315.0 677.3 360.0 661.8 Q 405.0 681.8 450.0 669.3 Q 495.0 649.8 540.0 665.6 Q 585.0 671.1 630.0 651.6 Q 675.0 635.8 720.0 673.7 Q 765.0 683.0 810.0 665.2" fill="none" stroke="#efefe5" stroke-width="1.2" opacity="0.28"/><path d="M0 791.4 Q 45.0 764.0 90.0 784.0 Q 135.0 781.5 180.0 784.7 Q 225.0 761.5 270.0 805.6 Q 315.0 792.7 360.0 792.2 Q 405.0 764.9 450.0 799.0 Q 495.0 818.4 540.0 793.8 Q 585.0 820.0 630.0 797.7 Q 675.0 801.8 720.0 779.9 Q 765.0 811.7 810.0 781.0" fill="none" stroke="#efefe5" stroke-width="1.2" opacity="0.28"/><g transform="translate(290,558)">
    <path d="M -189 -54 Q -216 -270 0 -283.5 Q 229.5 -270 194.4 -27 L 210.6 67.5 Q 108 121.5 54 108 L -162 121.5 Q -216 27 -189 -54 Z" fill="#111112" opacity="0.92"/>
    <path d="M -148.5 -13.5 Q -27 -75.60000000000001 135 -21.6 L 148.5 32.4 Q 27 54 -135 40.5 Z" fill="#1f2a24" opacity="0.85"/>
    <circle cx="40.5" cy="-94.5" r="32.4" fill="#2f4a3c"/>
  </g>
  </svg>