<svg width="30" height="18" viewBox="0 0 30 18" fill="none" xmlns="http://www.w3.org/2000/svg">
<path d="M2.80442e-07 9L2.77633 9C4.19401 9 5.50578 8.2496 6.22438 7.02754L8.60887 2.97246C9.32747 1.7504 10.6392 1 12.0569 1L20.2314 1L25.4348 1L30 1" stroke="#707070" stroke-width="2"/>
<path d="M30 17L26.7391 17L20.2313 17L12.0568 17C10.6391 17 9.32732 16.2496 8.60872 15.0275L6.22422 10.9725C5.50562 9.7504 4.19385 9 2.77617 9L9.92108e-07 9" stroke="#707070" stroke-width="2"/>
<path d="M0.161133 9L2.66617 9L5.1712 9L9.82482 9L20.175 9L24.8286 9L29.8386 9" stroke="#707070" stroke-width="2"/>
</svg>
