<?xml version="1.0" encoding="UTF-8"?><svg id="Layer_1" xmlns="http://www.w3.org/2000/svg" viewBox="0 0 50.76 41"><defs><style>.cls-1{fill:#8dc63f;}.cls-2{fill:#4fc6e0;}.cls-3{fill:#00527b;}</style></defs><g id="Layer_1-2"><path class="cls-3" d="M13.55,25.41c0-5.73,2.96-9.98,9.56-9.98,4,0,7.66.2,7.66.2l-.09,11.36c-.01,2.19.19,5.68.24,6.51l-5.25-.03c0-.31-.16-1.46-.26-2.87h-.17c-1.12,2.49-3.78,3.36-5.49,3.36-3.43-.02-6.2-2.69-6.2-8.55ZM25.54,26.07l.03-6.01h-2.37c-2.05-.01-4.73,1-4.73,5.01s1.85,4.63,3.4,4.63c1.66,0,3.65-1.65,3.66-3.63Z"/><path class="cls-3" d="M38.85,25.93c.01-5.66.12-22.64.12-22.64l-5.75-.03-.13,22.67c0,7.72,4.29,13.07,12.09,15.07l1.43-5.58c-5.22-1.34-7.77-4.44-7.76-9.49Z"/><path class="cls-3" d="M46.72,24.73l.12-9.27-5.86-.03-.02,9.31c0,5.39,3.42,7.39,6.29,8.13l1.43-5.58c-1.58-.4-1.96-.9-1.96-2.55Z"/><path class="cls-1" d="M45.3.2l1.86,2.27c.08.09.18.17.29.2l2.73.86c.31.1.5.43.4.7l-.85,2.41c-.04.1-.03.21,0,.32l.97,2.65c.11.3-.07.56-.37.6-1.89.21-3.26.77-4.69,1.92-.09.07-.26-.03-.23-.14,1.02-3.85.74-7.14-.58-11.56-.2-.65.3-.42.45-.23Z"/><path class="cls-2" d="M44.08,14.28c-.05.11-.25.09-.32-.04-.87-1.57-1.78-2.49-3.42-3.22-.22-.1-.36-.32-.29-.59l.79-2.02c.03-.1.03-.21,0-.3l-.69-2.34c-.08-.26.06-.56.28-.62,0,0,2.56-.96,3.32-2.71.06-.14.26-.08.34.07,1.48,2.79.75,10.09-.01,11.77Z"/><path class="cls-3" d="M17.16,13.74c.15-.57.14-3.83,0-4.34H.11c-.08.61-.19,3.46,0,4.34h5.54v1.67s-.11,11.72-.11,11.72c0,4,1.12,7.36,3.32,9.98,1.31,1.57,3,2.84,5.04,3.83l3.2-4.88c-5.1-2.14-5.79-6-5.79-8.94l.09-13.39h5.76Z"/></g></svg>