<?xml version="1.0" encoding="UTF-8"?>
<svg xmlns="http://www.w3.org/2000/svg" width="29" height="29" viewBox="0 0 29 29" fill="none">
  <path d="M16.5429 5.30441H12.456C8.60301 5.30441 6.67602 5.30441 5.47957 6.50188C4.28313 7.69935 4.2821 9.62532 4.2821 13.4783C4.2821 17.3312 4.2821 19.2582 5.47957 20.4547C6.67704 21.6511 8.60301 21.6521 12.456 21.6521H16.5429C20.3958 21.6521 22.3228 21.6521 23.5193 20.4547C24.7157 19.2572 24.7167 17.3312 24.7167 13.4783C24.7167 9.62532 24.7167 7.69833 23.5193 6.50188C22.3218 5.30543 20.3958 5.30441 16.5429 5.30441Z" stroke="black" stroke-width="1.5" stroke-linecap="round"></path>
  <path d="M19.5067 18.076C19.5067 17.6425 19.679 17.2267 19.9855 16.9201C20.2921 16.6135 20.7079 16.4413 21.1415 16.4413M16.2372 18.076C16.2372 16.7753 16.7539 15.5279 17.6736 14.6082C18.5934 13.6884 19.8408 13.1717 21.1415 13.1717M12.9677 18.076C12.9677 15.9082 13.8288 13.8292 15.3617 12.2963C16.8946 10.7634 18.9737 9.90219 21.1415 9.90219" stroke="black" stroke-width="1.5" stroke-linecap="round"></path>
  <path d="M20.6302 21.6521L21.652 23.6956M8.36945 21.6521L7.34772 23.6956" stroke="black" stroke-width="1.5" stroke-linecap="round" stroke-linejoin="round"></path>
</svg>
