<?xml version="1.0" encoding="UTF-8"?>
<svg xmlns="http://www.w3.org/2000/svg" width="29" height="29" viewBox="0 0 29 29" fill="none">
  <path d="M3.6248 15.7083V19.3333C3.6248 20.6152 4.13403 21.8446 5.04045 22.751C5.94688 23.6575 7.17626 24.1667 8.45814 24.1667H20.5415C21.8233 24.1667 23.0527 23.6575 23.9592 22.751C24.8656 21.8446 25.3748 20.6152 25.3748 19.3333V16.4333C25.3748 16.2411 25.2984 16.0567 25.1625 15.9207C25.0265 15.7847 24.8421 15.7083 24.6498 15.7083H3.6248ZM3.6248 15.7083V8.45834C3.6248 7.17646 4.13403 5.94709 5.04045 5.04066C5.94688 4.13424 7.17626 3.62501 8.45814 3.62501H14.4998M9.66647 24.1667L8.45814 26.5833M19.3331 24.1667L20.5415 26.5833" stroke="black" stroke-width="1.8125" stroke-linecap="round" stroke-linejoin="round"></path>
  <path d="M10.3918 9.66667H18.6084C19.0084 9.66667 19.3286 9.34283 19.2851 8.94408C19.1087 7.34062 18.2906 3.625 14.5001 3.625C10.7095 3.625 9.8915 7.34062 9.71508 8.94408C9.67158 9.34283 9.99179 9.66667 10.3918 9.66667Z" stroke="black" stroke-width="1.8125" stroke-linecap="round" stroke-linejoin="round"></path>
</svg>
