<?xml version="1.0" encoding="UTF-8"?>
<svg xmlns="http://www.w3.org/2000/svg" width="29" height="29" viewBox="0 0 29 29" fill="none">
  <path d="M23.7213 13.968C23.068 13.9681 22.534 14.5022 22.5338 15.1555V19.2307H5.96545V15.1555C5.96523 14.5021 5.43138 13.968 4.77795 13.968C4.12454 13.968 3.59068 14.5021 3.59045 15.1555V20.4182C3.59056 21.0716 4.12447 21.6056 4.77795 21.6057H23.7213C24.3748 21.6057 24.9087 21.0716 24.9088 20.4182V15.1555C24.9086 14.5021 24.3747 13.968 23.7213 13.968ZM7.93518 8.70624C7.28166 8.70627 6.7477 9.24021 6.74768 9.89374V12.8801L6.7926 12.9201C7.40797 13.4751 7.80029 14.2707 7.80042 15.1555V17.3957H13.3326V9.89374C13.3326 9.24027 12.7986 8.70636 12.1451 8.70624H7.93518ZM16.3541 8.70624C15.7008 8.70649 15.1666 9.24035 15.1666 9.89374V17.3957H20.6998V15.1555C20.6999 14.2705 21.0921 13.4751 21.7076 12.9201L21.7516 12.8801V9.89374C21.7516 9.24019 21.2176 8.70624 20.5641 8.70624H16.3541ZM4.9137 23.4396H4.77795C3.11627 23.4396 1.75657 22.0798 1.75647 20.4182V15.1555C1.75669 13.4939 3.11634 12.134 4.77795 12.134H4.9137V9.89374C4.91371 8.23201 6.27346 6.87229 7.93518 6.87225H12.1451C12.9194 6.87231 13.6242 7.17328 14.1588 7.65741L14.2496 7.74042L14.3405 7.65741C14.8751 7.17326 15.5799 6.87237 16.3541 6.87225H20.5641C22.2258 6.87225 23.5865 8.23199 23.5865 9.89374V12.134H23.7213C25.3829 12.134 26.7436 13.4939 26.7438 15.1555V20.4182C26.7437 22.0798 25.383 23.4396 23.7213 23.4396H23.5865V25.5451H21.7516V23.4396H6.74768V25.5451H4.9137V23.4396Z" fill="black" stroke="#F4E9E1" stroke-width="0.270622"></path>
</svg>
