<?xml version="1.0" encoding="UTF-8"?>
<svg xmlns="http://www.w3.org/2000/svg" width="28" height="28" viewBox="0 0 28 28" fill="none">
  <path d="M23.7972 24.7818V17.5398C23.7972 16.5246 22.9744 15.7002 21.9576 15.7002H6.04202C5.02687 15.7002 4.20413 16.5246 4.20413 17.5398V24.7818M14.0007 11.7889V15.7002M4.20413 19.3279H23.7988M19.0366 3.21819H8.96306C8.61816 3.21819 8.28738 3.3552 8.0435 3.59908C7.79962 3.84296 7.66261 4.17374 7.66261 4.51864V10.4884C7.66261 11.2067 8.24482 11.7889 8.96306 11.7889H19.0366C19.2074 11.7889 19.3765 11.7553 19.5343 11.6899C19.692 11.6246 19.8354 11.5288 19.9562 11.408C20.0769 11.2872 20.1727 11.1439 20.2381 10.9861C20.3034 10.8283 20.337 10.6592 20.337 10.4884V4.51864C20.337 4.34786 20.3034 4.17875 20.2381 4.02098C20.1727 3.8632 20.0769 3.71984 19.9562 3.59908C19.8354 3.47832 19.692 3.38253 19.5343 3.31718C19.3765 3.25182 19.2074 3.21819 19.0366 3.21819Z" stroke="black" stroke-width="1.65874" stroke-linecap="round" stroke-linejoin="round"></path>
</svg>
