<?xml version="1.0" encoding="UTF-8"?>
<svg xmlns="http://www.w3.org/2000/svg" width="90" height="13" viewBox="0 0 90 13" fill="none">
  <path d="M9.0017 0.196717V10.3352H6.4614V6.01311H2.55543V10.3352H0V0.196717H2.55543V3.85868H6.45951V0.196717H9.0017Z" fill="white"></path>
  <path d="M14.7235 2.83916H16.9347V10.3352H14.7235V9.61833C14.5079 9.86234 14.3793 10.0061 13.9764 10.2066C13.5319 10.4355 13.0439 10.5508 12.554 10.5508C12.0641 10.5508 11.1618 10.479 10.6435 9.7602C10.2558 9.21544 10.1839 8.76905 10.1839 7.54902V2.83916H12.4102V7.49228C12.4102 7.82329 12.4102 8.15241 12.5823 8.38129C12.711 8.55341 13.0136 8.75581 13.4581 8.75581C13.5867 8.75581 13.8894 8.75581 14.2204 8.56855C14.6933 8.28293 14.7084 7.90841 14.7235 7.50552V2.83916Z" fill="white"></path>
  <path d="M19.0021 7.80627C19.6055 8.39453 20.3508 8.83903 21.1849 8.83903C21.7164 8.83903 22.5203 8.66691 22.5203 8.10702C22.5203 7.84788 22.3633 7.74763 22.2328 7.67575C21.9018 7.50363 21.3854 7.46012 20.9542 7.38824C20.6231 7.3315 20.2789 7.25962 19.9498 7.15937C19.4901 7.03075 19.0305 6.84349 18.6995 6.51247C18.3704 6.18146 18.1396 5.66508 18.1396 5.10519C18.1396 3.87003 19.2026 2.59137 21.2984 2.59137C23.0651 2.59137 24.1281 3.35176 24.6445 3.71115L23.2807 4.97467C22.5771 4.42992 21.9169 4.22753 21.4006 4.22753C20.5399 4.22753 20.3375 4.57178 20.3375 4.78742C20.3375 5.21868 20.8104 5.3038 21.5292 5.43431C23.0367 5.70669 24.7883 6.10958 24.7883 7.88949C24.7883 9.66941 23.0065 10.5168 21.2417 10.5168C19.1591 10.5168 18.0828 9.51052 17.6081 9.06601L19.0021 7.80248V7.80627Z" fill="white"></path>
  <path d="M27.8752 0.181585V3.62792C28.1911 3.31204 28.8361 2.63677 30.0296 2.63677C30.5763 2.63677 31.1778 2.79376 31.6242 3.16828C32.2843 3.72817 32.3997 4.43181 32.3997 5.40783V10.3333H30.2018V6.41411C30.2018 5.81072 30.1885 5.52321 30.1015 5.26597C29.8859 4.5907 29.2976 4.51882 29.0687 4.51882C28.681 4.51882 28.3519 4.70608 28.1646 4.95009C27.8771 5.33785 27.8771 5.95637 27.8771 6.60138V10.3352H25.6659V0.181585H27.8771H27.8752Z" fill="white"></path>
  <path d="M41.0571 2.06364C41.7892 2.06364 43.0659 2.06364 43.0659 3.5428C43.0659 5.10708 41.9178 5.13734 40.9701 5.13734H39.4475V2.06364H41.0571ZM36.9072 10.3333H39.4475V7.01751H41.129C42.506 6.98913 44.373 6.94563 45.2487 5.13545C45.4795 4.66068 45.593 4.11593 45.593 3.55604C45.593 2.86564 45.4076 2.04851 45.0199 1.47349C44.129 0.194826 42.6517 0.194826 40.9853 0.194826H36.9072V10.3333Z" fill="white"></path>
  <path d="M50.7965 2.83916H53.0077V10.3352H50.7965V9.61833C50.5809 9.86234 50.4523 10.0061 50.0513 10.2066C49.6049 10.4355 49.1169 10.5508 48.6289 10.5508C48.1409 10.5508 47.2367 10.479 46.7203 9.7602C46.3326 9.21544 46.2607 8.76905 46.2607 7.54902V2.83916H48.4851V7.49228C48.4851 7.82329 48.4851 8.15241 48.6591 8.38129C48.7878 8.55341 49.0885 8.75581 49.5349 8.75581C49.6654 8.75581 49.9662 8.75581 50.2953 8.56855C50.7701 8.28293 50.7852 7.90841 50.7984 7.50552V2.83916H50.7965Z" fill="white"></path>
  <path d="M58.2169 4.27482C59.123 4.50369 59.3935 5.55348 59.3935 6.54274C59.3935 7.71926 58.9206 8.88443 57.8424 8.88443C57.483 8.88443 57.1104 8.72554 56.8513 8.45316C56.5638 8.13728 56.3198 7.54902 56.3198 6.60138C56.3198 5.89773 56.4654 5.25084 56.7794 4.8347C57.0953 4.40344 57.5114 4.23131 57.9143 4.23131C58.0164 4.23131 58.1148 4.24455 58.2169 4.27482ZM56.1628 2.86564H54.1937V12.9323H56.42V9.84343C57.0102 10.2028 57.4395 10.4752 58.2737 10.4752C60.8424 10.4752 61.5195 8.09189 61.5195 6.55598C61.5195 4.05729 60.0971 2.66325 58.2604 2.66325C57.4263 2.66325 56.7529 2.96589 56.3784 3.32339C56.3065 3.39526 56.2346 3.48227 56.1646 3.56739V2.86375L56.1628 2.86564Z" fill="white"></path>
  <path d="M66.3864 4.27482C67.2905 4.50369 67.5629 5.55348 67.5629 6.54274C67.5629 7.71926 67.09 8.88443 66.0137 8.88443C65.6562 8.88443 65.2817 8.72554 65.0226 8.45316C64.7351 8.13728 64.4911 7.54902 64.4911 6.60138C64.4911 5.89773 64.6348 5.25084 64.9507 4.8347C65.2666 4.40344 65.6827 4.23131 66.0856 4.23131C66.1859 4.23131 66.2861 4.24455 66.3883 4.27482H66.3864ZM64.3341 2.86564H62.365V12.9323H64.5913V9.84343C65.1796 10.2028 65.6109 10.4752 66.445 10.4752C69.0137 10.4752 69.6889 8.09189 69.6889 6.55598C69.6889 4.05729 68.2684 2.66325 66.4299 2.66325C65.5976 2.66325 64.9223 2.96589 64.5497 3.32339C64.4778 3.39526 64.406 3.48227 64.3341 3.56739V2.86375V2.86564Z" fill="white"></path>
  <path d="M70.6082 2.82403H72.791V10.3333H70.6082V2.82403Z" fill="white"></path>
  <path d="M76.0577 5.65184C76.1296 5.33595 76.2014 4.9917 76.5022 4.66068C76.7178 4.43181 77.0923 4.17267 77.6219 4.17267C78.0078 4.17267 78.4258 4.31643 78.6982 4.58881C79.0122 4.91982 79.069 5.33595 79.1144 5.65184H76.0558H76.0577ZM79.6478 7.57739C79.3754 8.10891 78.9593 8.89956 77.7506 8.89956C76.5419 8.89956 76.0293 7.96515 76.0425 7.03264H81.3974C81.369 6.18524 81.3123 4.72121 80.3344 3.67332C79.3735 2.63866 78.0797 2.59515 77.6371 2.59515C74.6788 2.59515 73.7879 4.92171 73.7879 6.73189C73.7879 9.18707 75.3521 10.6095 77.5785 10.6095C78.7852 10.6095 79.7613 10.1498 80.4063 9.54646C80.794 9.18707 81.0532 8.81444 81.3123 8.42668L79.6478 7.57929V7.57739Z" fill="white"></path>
  <path d="M83.1376 7.80627C83.741 8.39453 84.4881 8.83903 85.3204 8.83903C85.8519 8.83903 86.6558 8.66691 86.6558 8.10702C86.6558 7.84788 86.4969 7.74763 86.3664 7.67575C86.0373 7.50363 85.5209 7.46012 85.0896 7.38824C84.7586 7.3315 84.4144 7.25962 84.0853 7.15937C83.6256 7.03075 83.166 6.84349 82.835 6.51247C82.5058 6.18146 82.2751 5.66508 82.2751 5.10519C82.2751 3.87003 83.3381 2.59137 85.4339 2.59137C87.2006 2.59137 88.2636 3.35176 88.78 3.71115L87.4143 4.97467C86.7107 4.42992 86.0505 4.22753 85.5341 4.22753C84.6735 4.22753 84.4711 4.57178 84.4711 4.78742C84.4711 5.21868 84.944 5.3038 85.6628 5.43431C87.1684 5.70669 88.9218 6.10958 88.9218 7.88949C88.9218 9.66941 87.1419 10.5168 85.3734 10.5168C83.2927 10.5168 82.2145 9.51052 81.7417 9.06601L83.1338 7.80248L83.1376 7.80627Z" fill="white"></path>
  <path d="M72.9083 1.09708C72.9083 1.70425 72.373 2.19415 71.7129 2.19415C71.0527 2.19415 70.5174 1.70425 70.5174 1.09708C70.5174 0.489901 71.0527 0 71.7129 0C72.373 0 72.9083 0.491793 72.9083 1.09708Z" fill="white"></path>
  <path d="M88.623 1.83287H88.3714V1.68155H89.0448V1.83287H88.7951V2.52895H88.6211V1.83287H88.623Z" fill="white"></path>
  <path d="M89.4061 1.68155L89.5744 2.32467L89.7409 1.68155H90V2.52706H89.8354V1.84422L89.6633 2.52706H89.4855L89.3115 1.84422V2.52706H89.1469V1.68155H89.4061Z" fill="white"></path>
</svg>
