<?xml version="1.0" encoding="UTF-8"?>
<svg xmlns="http://www.w3.org/2000/svg" width="90" height="10" viewBox="0 0 90 10" fill="none">
  <path d="M39.7282 3.04607C39.7282 1.25181 38.1256 0.041727 36.2277 0.041727H28.1724V9.93103H31.209V6.21733H33.3599L36.2277 9.93103H39.686L36.6073 6.05042C38.3365 6.05042 39.7282 4.71515 39.7282 3.04607ZM34.9625 4.58997H31.2512V1.58563H35.0469C35.9325 1.58563 36.6917 2.29499 36.6495 3.17125C36.6073 4.0058 35.8482 4.67343 34.9625 4.58997Z" fill="white"></path>
  <path d="M53.0975 3.04607C53.0975 1.25181 51.4948 0.041727 49.597 0.041727H41.5417V9.93103H44.5783V6.21733H46.7291L49.597 9.93103H53.0553L49.9766 6.05042C51.6635 6.05042 53.0975 4.71515 53.0975 3.04607ZM48.3318 4.58997H44.6204V1.58563H48.4161C49.3018 1.58563 50.0609 2.29499 50.0187 3.17125C49.9766 4.0058 49.2174 4.67343 48.3318 4.58997Z" fill="white"></path>
  <path d="M19.6111 5.50797H25.4733V4.04752H19.6111V1.5439H26.4433V0.041727H16.5323V9.88931H26.4855V8.38713H19.6111V5.50797Z" fill="white"></path>
  <path d="M57.9475 5.50797H63.8097V4.04752H57.9475V1.5439H64.7798V0.041727H54.8688V9.88931H64.8219V8.38713H57.9475V5.50797Z" fill="white"></path>
  <path d="M7.12746 7.51087L3.96439 0.041727H0V9.88931H1.85567V1.79426L4.89222 9.88931H8.18182L11.2184 1.79426V9.88931H14.3393V0.041727H9.91097L7.12746 7.51087Z" fill="white"></path>
  <path d="M69.5455 0.041727H66.5089V9.88931H76.0825V8.42886L69.5455 8.38713V0.041727Z" fill="white"></path>
  <path d="M80.553 0H77.5164V9.88931H87.09V8.42886L80.553 8.38713V0Z" fill="white"></path>
  <path d="M88.6504 9.05477C88.6504 8.67922 88.9456 8.38713 89.3252 8.38713C89.7048 8.38713 90 8.67922 90 9.05477C90 9.43031 89.7048 9.76413 89.3252 9.76413C88.9456 9.76413 88.6504 9.47204 88.6504 9.05477ZM89.9156 9.05477C89.9156 8.72095 89.6626 8.47059 89.3252 8.47059C88.9878 8.47059 88.7769 8.72095 88.7769 9.05477C88.7769 9.38858 89.03 9.63894 89.3674 9.63894C89.6626 9.63894 89.9156 9.38858 89.9156 9.05477ZM89.3674 8.67922C89.5361 8.67922 89.6626 8.76268 89.6626 8.92958C89.6626 9.05477 89.6204 9.09649 89.4939 9.13822L89.6626 9.43031H89.4939L89.3252 9.13822H89.1987V9.43031H89.03V8.67922H89.3674ZM89.3252 9.01304C89.4096 9.01304 89.4517 8.97131 89.4517 8.88786C89.4517 8.8044 89.4096 8.76268 89.3252 8.76268H89.1987V8.97131H89.3252V9.01304Z" fill="white"></path>
</svg>
