<svg viewBox="0 0 640 98" fill="none">
<path d="M70.516 83.741V96.737H62.636C52.959 96.737 49.64 92.451 49.64 85.401C44.935 92.588 37.747 97.567 26.274 97.567C10.788 97.567 0 89.962 0 76.8281C0 62.3093 10.507 54.1549 30.279 54.1549H48.117V49.8685C48.117 41.9884 42.171 37.1465 32.494 37.1465C23.784 37.1465 17.838 41.2958 16.734 47.5161H2.078C3.6 33.2717 15.349 25.1172 33.187 25.1172C51.992 25.1172 62.917 34.1084 62.917 50.8355V78.762C62.917 82.356 64.714 83.741 67.615 83.741H70.516ZM48.117 65.2103H29.586C20.458 65.2103 15.205 68.6668 15.205 75.8542C15.205 81.8 20.184 85.949 28.338 85.949C40.779 85.949 47.973 78.618 48.11 67.6998V65.2103H48.117Z" fill="currentcolor" />
<path d="M86.4481 26L105.946 80.7559L125.163 26H140.923L114.793 96.7899H96.5441L70.4141 26H86.455H86.4481Z" fill="currentcolor" />
<path d="M215.844 83.741V96.737H207.964C198.287 96.737 194.968 92.451 194.968 85.401C190.27 92.588 183.076 97.567 171.602 97.567C156.116 97.567 145.328 89.962 145.328 76.8281C145.328 62.3093 155.835 54.1549 175.607 54.1549H193.445V49.8685C193.445 41.9884 187.499 37.1465 177.822 37.1465C169.112 37.1465 163.166 41.2958 162.062 47.5161H147.406C148.929 33.2717 160.677 25.1172 178.515 25.1172C197.32 25.1172 208.245 34.1084 208.245 50.8355V78.762C208.245 82.356 210.042 83.741 212.95 83.741H215.851H215.844ZM193.445 65.2103H174.914C165.786 65.2103 160.533 68.6668 160.533 75.8542C160.533 81.8 165.512 85.949 173.666 85.949C186.107 85.949 193.301 78.618 193.438 67.6998V65.2103H193.445Z" fill="currentcolor" />
<path d="M243.087 0V96.7899H228.156V0H243.087Z" fill="currentcolor" />
<path d="M326.9 83.741V96.737H319.02C309.343 96.737 306.023 92.451 306.023 85.401C301.319 92.588 294.131 97.567 282.657 97.567C267.172 97.567 256.391 89.962 256.391 76.8281C256.391 62.3093 266.897 54.1549 286.669 54.1549H304.508V49.8685C304.508 41.9884 298.562 37.1465 288.885 37.1465C280.175 37.1465 274.229 41.2958 273.125 47.5161H258.469C259.991 33.2717 271.739 25.1172 289.577 25.1172C308.383 25.1172 319.308 34.1084 319.308 50.8355V78.762C319.308 82.356 321.105 83.741 324.006 83.741H326.907H326.9ZM304.501 65.2103H285.97C276.842 65.2103 271.588 68.6668 271.588 75.8542C271.588 81.8 276.567 85.949 284.722 85.949C297.163 85.949 304.357 78.618 304.494 67.6998V65.2103H304.501Z" fill="currentcolor" />
<path d="M404.974 57.7486V96.737H389.9V58.5716C389.9 45.1569 384.228 37.9695 373.029 37.9695C361.137 37.9695 354.086 46.6794 354.086 61.0611V96.737H339.156V25.9471H352.152L353.812 35.2125C358.236 29.6848 365.012 25.1172 376.485 25.1172C391.697 25.1172 404.967 33.2785 404.967 57.7486H404.974Z" fill="currentcolor" />
<path d="M451.172 97.567C429.877 97.567 415.914 83.048 415.914 61.2051C415.914 39.3617 430.014 25.1172 451.583 25.1172C469.422 25.1172 481.033 35.2125 483.803 51.1098H468.455C466.521 43.0926 460.156 37.8324 451.172 37.8324C439.143 37.8324 431.263 47.3721 431.263 61.1982C431.263 75.0244 439.143 84.838 451.172 84.838C460.437 84.838 466.795 79.585 468.592 71.2867H483.803C481.039 87.465 469.284 97.56 451.172 97.56V97.567Z" fill="currentcolor" />
<path d="M558.936 57.8009V96.7899H544.006V58.6239C544.006 45.2092 538.06 38.0218 526.998 38.0218C515.243 38.0218 508.055 46.7317 508.055 60.9762V96.7899H493.125V0H508.055V36.225C512.479 30.1418 519.255 25.1627 530.317 25.1627C545.666 25.1627 558.936 33.4611 558.936 57.794V57.8009Z" fill="currentcolor" />
<path d="M604.226 25.1172C624.691 25.1172 638.791 38.1135 639.21 58.8527C639.21 60.6496 639.072 62.5836 638.798 64.5245H585.428V65.3543C586.12 77.5208 593.445 85.401 605.2 85.401C614.328 85.401 620.96 80.84 623.038 72.9601H637.968C635.479 86.923 623.724 97.574 606.304 97.574C583.905 97.574 569.805 83.193 569.805 61.4863C569.805 39.7801 583.768 25.1241 604.233 25.1241L604.226 25.1172ZM623.998 53.5994C622.757 43.0926 615.151 37.1465 604.781 37.1465C595.242 37.1465 587.08 43.5041 585.976 53.5994H623.998Z" fill="currentcolor" />
</svg>