<svg xmlns="http://www.w3.org/2000/svg" width="400" height="534" viewBox="0 0 400 534">
    <defs><clipPath id="hs3"><path d="M 60 300 Q 40 150 200 120 Q 360 150 350 260 L 340 320 Q 320 360 250 360 L 120 360 Q 70 350 60 300 Z"/></clipPath>
    <linearGradient id="hg3" x1="0" y1="0" x2="1" y2="1"><stop offset="0" stop-color="#2f4a3c"/><stop offset="1" stop-color="#b2c73a"/></linearGradient></defs>
    <rect width="400" height="534" fill="#282c20"/>
    <g transform="translate(0,60)">
    <path d="M 60 300 Q 40 150 200 120 Q 360 150 350 260 L 340 320 Q 320 360 250 360 L 120 360 Q 70 350 60 300 Z" fill="url(#hg3)"/>
    <g clip-path="url(#hs3)"><text x="30" y="180" font-family="Mona Sans" font-weight="900" font-size="120" fill="#d2ff00" opacity="0.85">AV</text></g>
    <path d="M 90 270 Q 90 200 200 190 Q 300 200 300 260 L 300 290 Q 200 300 100 295 Z" fill="#0c0f0a" opacity="0.9"/>
    <path d="M 90 270 Q 90 200 200 190 Q 300 200 300 260 L 300 290 Q 200 300 100 295 Z" fill="none" stroke="#b2c73a" stroke-width="3"/>
    <path d="M 60 300 Q 40 150 200 120 Q 360 150 350 260 L 340 320 Q 320 360 250 360 L 120 360 Q 70 350 60 300 Z" fill="none" stroke="#0c0f0a" stroke-width="4"/>
    </g></svg>