<?xml version="1.0" encoding="UTF-8"?>
<svg xmlns="http://www.w3.org/2000/svg" width="90" height="8" viewBox="0 0 90 8" fill="none">
  <path d="M0.00328665 5.41969H1.48885C1.62854 6.24299 2.05744 6.66204 3.40333 6.66204C4.48299 6.66204 4.9119 6.22163 4.9119 5.65304C4.9119 5.13046 4.64568 4.78208 3.7057 4.66704L2.3138 4.49285C0.954772 4.31702 0.154473 3.44605 0.154473 2.30887C0.154473 0.951485 1.16347 0 3.12396 0C5.08445 0 6.08359 0.905472 6.19862 2.27436H4.71306C4.55037 1.57759 4.09845 1.2062 3.20448 1.2062C2.16097 1.2062 1.69591 1.5891 1.69591 2.15769C1.69591 2.66876 1.96213 3.02865 2.91362 3.14368L4.29401 3.30637C5.70891 3.46906 6.42869 4.31537 6.42869 5.55773C6.42869 7.05479 5.32602 7.8666 3.35403 7.8666C1.11417 7.8666 0.174192 7.04329 0 5.41804L0.00328665 5.41969Z" fill="white"></path>
  <path d="M6.96606 0.139683H8.57816L9.97005 5.82559H10.0391L11.5608 0.139683H13.4293L14.8918 5.82559H14.9493L16.4102 0.139683H17.8843L15.7266 7.69405H13.9748L12.4663 2.01965H12.3972L10.8427 7.69405H9.05637L6.96606 0.139683Z" fill="white"></path>
  <path d="M19.1497 0.139683H24.6959V1.41655H20.6352V3.19134H24.2325V4.4682H20.6352V6.41718H24.6959V7.69405H19.1497V0.139683Z" fill="white"></path>
  <path d="M28.4788 0.139683H30.4755L33.3989 7.69405H31.7868L31.1952 6.0688H27.7492L27.1461 7.69405H25.6145L28.4788 0.139683ZM30.7302 4.79194L29.4878 1.4034H29.4648L28.211 4.79194H30.7302Z" fill="white"></path>
  <path d="M35.7078 1.4149H33.0391V0.139683H39.8851V1.41655H37.1934V7.69405H35.7078V1.4149Z" fill="white"></path>
  <path d="M43.8193 4.74592L40.6854 0.139683H42.4487L44.6064 3.42305H44.6294L46.7871 0.139683H48.4009L45.3032 4.68841V7.69405H43.8176V4.74592H43.8193Z" fill="white"></path>
  <path d="M52.2775 0.139683H56.3151C57.3718 0.139683 58.2986 0.939982 58.2986 2.01965C58.2986 2.65726 58.0209 3.2735 57.3011 3.56273V3.63175C58.1836 3.92262 58.624 4.61774 58.624 5.4772C58.624 6.78858 57.6035 7.69405 56.2921 7.69405H52.2775V0.139683ZM55.9552 3.13382C56.5353 3.13382 56.8607 2.68191 56.8607 2.23985C56.8607 1.70577 56.4433 1.41655 55.9667 1.41655H53.7614V3.13382H55.9552ZM56.1294 6.41718C56.7095 6.41718 57.1614 5.99978 57.1614 5.43119C57.1614 4.8626 56.7555 4.41068 56.0703 4.41068H53.7614V6.41883H56.1294V6.41718Z" fill="white"></path>
  <path d="M60.121 0.139683H65.6673V1.41655H61.6066V3.19134H65.2039V4.4682H61.6066V6.41718H65.6673V7.69405H60.121V0.139683Z" fill="white"></path>
  <path d="M69.4864 1.4149H66.8176V0.139683H73.6637V1.41655H70.9719V7.69405H69.4864V1.4149Z" fill="white"></path>
  <path d="M77.3645 1.4149H74.6957V0.139683H81.5418V1.41655H78.85V7.69405H77.3645V1.4149Z" fill="white"></path>
  <path d="M88.4454 0.139683H90L85.1259 7.69405H83.5483L85.4513 4.77057L82.2501 0.139683H83.9673L86.2417 3.53972H86.3107L88.4454 0.139683Z" fill="white"></path>
</svg>
