<?xml version="1.0" encoding="UTF-8"?>
<svg xmlns="http://www.w3.org/2000/svg" width="90" height="55" viewBox="0 0 90 55" fill="none">
  <path d="M82.8802 38.518C82.8802 39.5029 83.6812 40.298 84.6602 40.298C85.6391 40.298 86.4401 39.5029 86.4401 38.518C86.4401 37.5331 85.6391 36.7381 84.6602 36.7381C83.6812 36.7381 82.8802 37.5331 82.8802 38.518ZM83.1769 38.518C83.1769 37.6993 83.8473 37.0347 84.6602 37.0347C85.473 37.0347 86.1434 37.7052 86.1434 38.518C86.1434 39.3309 85.4789 40.0013 84.6602 40.0013C83.8414 40.0013 83.1769 39.3368 83.1769 38.518ZM84.0787 37.6281V39.408L84.3932 39.3961L84.3813 38.6723L84.6305 38.6604L85.0873 39.4021C85.0873 39.4021 85.3662 39.4021 85.4018 39.3961C85.384 39.3665 84.9331 38.6426 84.9331 38.6426H84.9509C85.1051 38.6248 85.3721 38.5358 85.3721 38.162C85.3721 37.812 85.1645 37.634 84.7492 37.634H84.0728L84.0787 37.6281ZM84.3872 37.895V37.8832H84.6364C84.7729 37.8832 84.9272 37.8832 85.0102 37.9662C85.0518 38.0078 85.0755 38.0671 85.0755 38.1442C85.0755 38.4053 84.8144 38.4053 84.6424 38.4053H84.405L84.3932 37.895H84.3872Z" fill="white"></path>
  <path d="M4.49733 20.9262C4.98385 22.4095 6.43747 23.1749 8.37761 23.1749C10.3178 23.1749 11.7358 22.4511 11.7358 21.0449C11.7358 20.0837 11.0713 19.5616 9.43965 19.2056L5.38137 18.3216C2.60465 17.7164 0.528051 16.3577 0.528051 13.4327C0.528051 10.2347 3.66076 7.86143 7.93856 7.86143C12.5249 7.86143 15.1295 9.86683 15.7881 13.1123H11.4688C11.0713 11.9494 9.92617 11.1484 7.89703 11.1484C6.35441 11.1484 4.77026 11.7892 4.77026 13.1953C4.77026 13.9963 5.3873 14.5184 6.79346 14.8388L10.9407 15.7229C14.287 16.4467 15.9602 18.1614 15.9602 20.772C15.9602 24.3022 12.7444 26.4619 8.34201 26.4619C3.93961 26.4619 0.575516 24.3734 0 20.9262H4.49733Z" fill="white"></path>
  <path d="M19.5379 11.5874H16.4467V8.25895H19.5379V3.48869H23.9462V8.25895H28.3545V11.5874H23.9462V20.8076C23.9462 22.2493 24.8243 22.8901 26.2779 22.8901C27.1679 22.8901 28.1825 22.5697 28.7936 22.1663V25.8151C28.046 26.2127 26.8535 26.4559 25.4888 26.4559C22.0061 26.4559 19.5379 24.7768 19.5379 21.2466V11.5874Z" fill="white"></path>
  <path d="M42.4636 12.3113C41.8465 11.9078 40.7845 11.7061 39.8589 11.7061C38.0493 11.7061 36.3702 12.6317 35.9371 14.56V26.0643H31.5288V8.25895H35.9371V10.1042C36.6847 8.78107 38.4053 7.85549 40.3039 7.85549C41.271 7.85549 42.1491 8.01569 42.4636 8.17588V12.3113Z" fill="white"></path>
  <path d="M49.168 26.0584H44.7597V8.25895H49.168V26.0584Z" fill="white"></path>
  <path d="M65.5732 13.7886C64.8256 12.3884 63.1465 11.4273 61.3429 11.4273C57.9432 11.4273 55.92 13.8776 55.92 17.1646C55.92 20.4516 57.9432 22.896 61.3429 22.896C63.1465 22.896 64.8256 21.9349 65.5732 20.5287V13.7886ZM65.5732 24.5336C64.6951 25.5363 62.755 26.4559 60.5894 26.4559C54.8579 26.4559 51.5057 22.2909 51.5057 17.1587C51.5057 12.0265 54.8579 7.85549 60.5894 7.85549C62.755 7.85549 64.6951 8.77513 65.5732 9.78377V0H69.9815V26.0584H65.5732V24.5336Z" fill="white"></path>
  <path d="M76.775 15.1533H85.6451C85.6035 12.9877 84.233 11.2255 81.5393 11.2255C79.1186 11.2255 77.309 12.5842 76.775 15.1533ZM89.8279 20.5228C89.1634 24.053 86.2977 26.4559 81.5809 26.4559C76.1224 26.4559 72.3192 22.6884 72.3192 17.1943C72.3192 11.7002 76.158 7.85549 81.4919 7.85549C86.8258 7.85549 90 11.4213 90 16.6366V18.0783H76.6385C76.7691 21.2051 78.7567 23.0859 81.5749 23.0859C83.6931 23.0859 85.2772 22.2493 85.7637 20.5168H89.822L89.8279 20.5228Z" fill="white"></path>
  <path d="M42.4636 40.7904C41.8465 40.3929 40.7845 40.1852 39.8649 40.1852C38.0552 40.1852 36.3821 41.1049 35.9371 43.0332V54.5375H31.5288V36.7381H35.9371V38.5833C36.6906 37.2602 38.4053 36.3346 40.3039 36.3346C41.2769 36.3346 42.161 36.4948 42.4636 36.655V40.7904Z" fill="white"></path>
  <path d="M49.168 54.5375H44.7597V36.7381H49.168V54.5375Z" fill="white"></path>
  <path d="M53.8908 40.0666H50.7997V36.7381H53.8908V31.9678H58.2992V36.7381H62.7016V40.0666H58.2992V49.2867C58.2992 50.7285 59.1832 51.3692 60.6309 51.3692C61.5149 51.3692 62.5295 51.0488 63.1465 50.6454V54.2943C62.399 54.6977 61.2064 54.9351 59.8358 54.9351C56.3531 54.9351 53.8849 53.256 53.8849 49.7258V40.0666H53.8908Z" fill="white"></path>
  <path d="M68.967 43.6324H77.8311C77.7896 41.4668 76.4249 39.7047 73.7313 39.7047C71.3046 39.7047 69.495 41.0634 68.967 43.6324ZM82.0199 49.0019C81.3554 52.5321 78.4897 54.9351 73.7788 54.9351C68.3084 54.9351 64.5171 51.1675 64.5171 45.6734C64.5171 40.1793 68.3559 36.3346 73.6898 36.3346C79.0237 36.3346 82.1979 39.9005 82.1979 45.1157V46.5575H68.8305C68.967 49.6842 70.9546 51.565 73.7728 51.565C75.885 51.565 77.4692 50.7285 77.9557 49.0019H82.0199Z" fill="white"></path>
  <path d="M46.9609 34.2165C45.4598 34.2165 44.1427 32.9705 44.1427 31.3982C44.1427 29.826 45.4598 28.58 46.9609 28.58C48.462 28.58 49.7792 29.826 49.7792 31.3982C49.7792 32.9705 48.462 34.2165 46.9609 34.2165Z" fill="white"></path>
  <path d="M46.9609 5.73736C45.4598 5.73736 44.1427 4.4914 44.1427 2.91911C44.1427 1.34683 45.4658 0.100864 46.9609 0.100864C48.4561 0.100864 49.7792 1.34683 49.7792 2.91911C49.7792 4.4914 48.462 5.73736 46.9609 5.73736Z" fill="white"></path>
</svg>
