<?xml version="1.0" encoding="UTF-8"?>
<svg xmlns="http://www.w3.org/2000/svg" width="90" height="22" viewBox="0 0 90 22" fill="none">
  <path d="M45.4885 11.0197C46.1601 10.5575 46.7532 9.75153 46.7532 8.61937C46.7532 6.82781 45.5408 5.75846 43.5103 5.75846H40.9651V15.2919H43.1771V11.8379H43.3987C43.6219 12.0507 44.1697 13.0433 44.8518 14.2819C44.9913 14.5348 45.1414 14.807 45.3036 15.1L45.41 15.2919H47.9499L47.2452 14.0202C46.3747 12.4467 45.8583 11.5204 45.4903 11.0197H45.4885ZM43.5591 9.83352H43.1771V7.89368H43.5469C44.1802 7.89368 44.5291 8.2164 44.5291 8.80429C44.5291 9.39217 44.1121 9.83352 43.5591 9.83352Z" fill="white"></path>
  <path d="M34.331 7.88147V15.2919H40.3511V13.1672H36.5464V11.4925H39.4754V9.36949H36.5464V7.87972H40.3511V5.75672H35.1892L34.331 7.88147Z" fill="white"></path>
  <path d="M16.8742 5.75672C15.6059 5.75672 14.5034 6.22772 13.687 7.11739C12.8776 7.99834 12.4328 9.22819 12.4328 10.5819C12.4328 12.0228 12.923 13.2875 13.8091 14.1371C14.5784 14.8907 15.6391 15.2902 16.8742 15.2902C18.1092 15.2902 19.2379 14.8244 20.0578 13.9452C20.862 13.0974 21.3033 11.8745 21.3033 10.5034C21.3033 9.13224 20.923 8.04545 20.2043 7.20636C19.4123 6.26959 18.2296 5.75497 16.8742 5.75497V5.75672ZM16.8619 13.2404C15.5187 13.2404 14.6849 12.2025 14.6849 10.5313C14.6849 8.86011 15.5187 7.83437 16.8619 7.83437C18.2052 7.83437 19.0268 8.86709 19.0268 10.5313C19.0268 12.1955 18.1965 13.2404 16.8619 13.2404Z" fill="white"></path>
  <path d="M24.0875 13.155V5.75672H21.8703V15.2919H28.6894L27.8904 13.155H24.0875Z" fill="white"></path>
  <path d="M32.3335 5.75672L30.3135 10.9517C30.2402 11.1349 30.1739 11.3111 30.1129 11.482C30.0535 11.3111 29.9907 11.1262 29.921 10.9273L28.0753 5.75846H25.6627L29.2354 15.2919H30.7897L34.6572 5.75846H32.3335V5.75672Z" fill="white"></path>
  <path d="M50.6312 5.75672H48.4157V15.2902H50.6312V5.75672Z" fill="white"></path>
  <path d="M57.2113 11.2238C57.1781 11.175 57.1432 11.1262 57.1066 11.0756L53.3107 5.75672H51.39V15.2902H53.5933V10.008C53.6386 10.0725 53.6875 10.1405 53.7363 10.2103L57.3718 15.2902H59.4267V5.75672H57.2113V11.2238Z" fill="white"></path>
  <path d="M4.90367 10.3534C4.88797 10.3917 4.67166 10.9482 4.46407 11.496C4.40301 11.3146 4.33498 11.1174 4.25997 10.9046L2.41433 5.75846H0L3.57265 15.2536H5.12173L6.34634 12.3996L5.24733 9.47765L4.90367 10.3534Z" fill="white"></path>
  <path d="M11.0494 5.75672L9.02932 10.929C8.95605 11.1122 8.88976 11.2867 8.82871 11.4576C8.7694 11.2867 8.70659 11.1035 8.63682 10.9046L6.79118 5.75846H4.37859L7.95124 15.2536H9.50381L13.3713 5.75846H11.0477L11.0494 5.75672Z" fill="white"></path>
  <path d="M60.1856 15.2919H66.204V13.1672H62.401L62.3993 11.4925H65.33V9.36949H62.3993L62.401 7.87972H66.204V5.75672H60.1856V15.2919Z" fill="white"></path>
  <path d="M67.4443 6.54172C67.4443 6.52602 67.4425 6.51207 67.4425 6.49811V6.45624C67.4425 6.42659 67.4321 6.39693 67.4129 6.36553C67.3937 6.33413 67.3623 6.31494 67.3187 6.30796C67.3518 6.30273 67.378 6.29226 67.3972 6.28005C67.4338 6.25563 67.4495 6.21725 67.4495 6.16492C67.4495 6.09165 67.4216 6.04281 67.364 6.01664C67.3326 6.00268 67.2838 5.99571 67.2158 5.99571H67.0256V6.5801H67.1215V6.35158H67.1966C67.2472 6.35158 67.2838 6.35855 67.303 6.37076C67.3379 6.39344 67.3536 6.43705 67.3536 6.50509V6.56963C67.3536 6.56963 67.357 6.57312 67.357 6.57661C67.357 6.57836 67.357 6.5801 67.357 6.58184H67.4478L67.4443 6.57487C67.4443 6.57487 67.4408 6.56091 67.439 6.54521L67.4443 6.54172ZM67.3012 6.26435C67.2803 6.27308 67.2506 6.27831 67.2105 6.27831H67.1233V6.06723H67.2053C67.2594 6.06723 67.2977 6.07421 67.3222 6.08816C67.3466 6.10212 67.3588 6.13177 67.3588 6.17364C67.3588 6.219 67.3396 6.24865 67.303 6.26435H67.3012Z" fill="white"></path>
  <path d="M67.2262 5.75846C67.0901 5.75846 66.9733 5.81079 66.8773 5.91372C66.7814 6.01664 66.7325 6.14224 66.7325 6.28877C66.7325 6.43531 66.7814 6.56265 66.8773 6.66558C66.9733 6.77025 67.0901 6.82258 67.228 6.82258C67.3658 6.82258 67.4827 6.77025 67.5803 6.66558C67.6763 6.56091 67.7251 6.43531 67.7251 6.28877C67.7251 6.14224 67.6763 6.01664 67.5803 5.91372C67.4844 5.81079 67.3658 5.75846 67.228 5.75846H67.2262ZM67.5297 6.61499C67.446 6.7057 67.3466 6.74931 67.228 6.74931C67.1093 6.74931 67.0099 6.70396 66.9262 6.61499C66.8442 6.52428 66.8023 6.41612 66.8023 6.28877C66.8023 6.16143 66.8442 6.05502 66.9262 5.96605C67.0099 5.87534 67.1093 5.83173 67.228 5.83173C67.3466 5.83173 67.4478 5.87708 67.5297 5.96605C67.6135 6.05502 67.6536 6.16317 67.6536 6.28877C67.6536 6.41438 67.6117 6.52428 67.5297 6.61499Z" fill="white"></path>
  <path d="M86.0402 14.1598C86.5252 10.8331 83.7497 9.27529 83.7497 9.27529C83.7497 9.27529 83.0223 10.3848 82.9124 12.4851C82.9124 12.4851 85.7768 14.5854 83.3311 18.6448C83.3311 18.6448 85.557 17.4882 86.0402 14.1615V14.1598Z" fill="white"></path>
  <path d="M82.0314 15.0791C82.5164 11.2553 80.0131 9.69919 80.0131 9.69919C78.7431 10.7371 78.2442 13.1218 78.2442 13.1218C81.1958 17.2283 78.6193 21.0486 78.6193 21.0486C79.2578 20.6684 81.55 18.903 82.0332 15.0808L82.0314 15.0791Z" fill="white"></path>
  <path d="M77.0545 13.1672C77.1871 10.69 76.3707 9.46195 76.3707 9.46195C76.259 9.51428 76.1526 9.5701 76.0497 9.62593C75.2874 10.0673 73.4487 11.4628 73.6877 14.5523C74.0802 17.5841 76.1735 19.6566 76.1735 19.6566C74.9175 15.0791 77.0545 13.1672 77.0545 13.1672Z" fill="white"></path>
  <path d="M84.3446 5.91023C87.8649 8.04545 87.4201 10.4162 87.2212 11.0477C87.2038 11.1017 87.1828 11.1541 87.1636 11.2081C88.3743 13.1899 86.8549 15.9513 86.8549 15.9513C90.7572 13.0032 90.4136 9.79863 89.0948 8.04719C89.0948 8.04719 88.6237 7.33196 87.6521 6.74233C87.6521 6.74233 86.3769 5.8387 85.1052 4.8025C84.7528 4.51292 83.8492 3.62324 83.8492 3.6215C83.3834 3.13654 82.799 2.52249 82.5426 2.23814C81.4244 0.875718 79.959 0 78.8304 0C77.5866 0 76.02 0.636728 74.4989 2.98303C72.9794 5.32932 70.996 5.02579 70.1813 9.24912C69.3667 13.4742 72.0095 15.7158 72.0095 15.7158C71.0187 12.035 73.1103 10.3586 73.1103 10.3586C72.648 8.895 72.7143 6.60627 75.1147 4.36464C76.5381 3.03536 78.225 2.77718 79.7636 3.12084C79.809 3.13479 80.3655 3.30749 80.9516 3.61103C81.0685 3.67558 81.1941 3.7471 81.3249 3.82385C81.6564 4.01749 82.021 4.24601 82.3524 4.48675C82.3524 4.48675 82.3524 4.48675 82.3559 4.48849C82.4327 4.54432 82.5042 4.60014 82.5757 4.65596C83.0048 4.98043 83.9399 5.67647 84.3446 5.90848V5.91023Z" fill="white"></path>
</svg>
