<?xml version="1.0" encoding="UTF-8"?>
<svg xmlns="http://www.w3.org/2000/svg" width="90" height="17" viewBox="0 0 90 17" fill="none">
  <path d="M80.9699 13.7501C80.5172 13.7501 80.0361 13.6121 79.5407 13.34L79.3052 13.2121L78.2029 15.6361L78.41 15.7457C79.3519 16.2573 80.2066 16.4746 81.2562 16.4746C83.2072 16.4746 84.3359 15.5245 85.284 13.0863C85.284 13.0842 90 0.89123 90 0.89123H86.7091C86.7091 0.89123 84.273 7.87084 83.8873 8.97117C83.469 7.88099 80.7933 0.89123 80.7933 0.89123H77.4294C77.4294 0.89123 82.251 12.4569 82.3342 12.6599C81.9221 13.5633 81.5161 13.7501 80.9699 13.7501Z" fill="white"></path>
  <path d="M50.4225 10.6826L50.5829 10.506L48.6421 8.59154L48.4634 8.77222C47.5458 9.71623 46.6749 10.1365 45.6537 10.1365C43.8306 10.1365 42.4542 8.65244 42.4542 6.67509V6.63245C42.4542 4.71601 43.8002 3.21777 45.5238 3.21777C46.8555 3.21777 47.6635 3.87147 48.3335 4.57796L48.5142 4.77082L50.4895 2.64121L50.3352 2.47068C49.0379 1.03943 47.56 0.403997 45.5441 0.403997C42.0522 0.403997 39.3156 3.15686 39.3156 6.67712V6.72381C39.3156 10.2035 42.0421 12.932 45.5238 12.932C48.0696 12.932 49.4298 11.7971 50.4245 10.6866L50.4225 10.6826Z" fill="white"></path>
  <path d="M57.599 12.8853C61.2045 12.8853 64.0264 10.1405 64.0264 6.63449V6.58982C64.0264 3.09596 61.2248 0.359334 57.6457 0.359334C54.0666 0.359334 51.2386 3.11423 51.2386 6.63449V6.67915C51.2386 10.1568 54.0341 12.8853 57.599 12.8853ZM54.3792 6.58982C54.3792 4.60841 55.7313 3.17107 57.599 3.17107C59.4667 3.17107 60.8878 4.65916 60.8878 6.63449V6.67915C60.8878 8.37228 59.7713 10.0938 57.6457 10.0938C55.8125 10.0938 54.3813 8.57733 54.3813 6.63449V6.58982H54.3792Z" fill="white"></path>
  <path d="M34.1306 0.771452L34.1428 1.0171V7.61098C34.1428 8.95087 33.2739 9.88473 32.0213 9.88473C30.7687 9.88473 29.8491 8.89403 29.8491 7.57647V0.771452H26.5461V7.60895C26.5461 10.5933 28.9376 12.5564 31.9909 12.5564C32.9247 12.5564 33.7957 12.2113 34.559 11.8215C34.6321 11.7829 34.7031 11.7464 34.7742 11.7058L34.8107 12.3128V12.5442H37.454V0.771452H34.1306Z" fill="white"></path>
  <path d="M69.1261 12.5584L69.1119 12.3148V5.72295C69.1119 4.38103 69.9808 3.44717 71.2334 3.44717C72.486 3.44717 73.4077 4.43991 73.4077 5.75544V12.5605H76.7107V5.72295C76.7107 2.73459 74.3192 0.773482 71.2639 0.773482C70.33 0.773482 69.4591 1.12064 68.6998 1.50839C68.6247 1.54493 68.5557 1.58351 68.4806 1.62411L68.446 1.01304V0.773482H65.8008V12.5605H69.1241L69.1261 12.5584Z" fill="white"></path>
  <path d="M21.1743 0.966345V1.47591C20.2222 0.935893 19.0934 0.379635 17.853 0.379635C14.1907 0.379635 11.32 2.93152 11.32 6.5208V6.56749C11.32 10.1182 14.1724 12.6417 17.8084 12.6417C19.0488 12.6417 20.1978 12.0712 21.1763 11.5129V12.3392H24.1282V0.686186H21.1763V0.966345H21.1743ZM17.9647 10.0532C15.9833 10.0532 14.3734 8.47176 14.3734 6.52283C14.3734 4.5739 15.9812 2.99445 17.9647 2.99445C19.9481 2.99445 21.556 4.5739 21.556 6.52283C21.556 8.47176 19.9481 10.0532 17.9647 10.0532Z" fill="white"></path>
  <path d="M5.57881 2.42195C6.38275 2.42195 7.49526 2.80971 8.87576 3.57101L8.98741 3.63191L10.2238 1.39267L10.1243 1.32771C8.77831 0.497383 7.08518 0 5.59709 0C3.30912 0 1.00086 1.22214 1.00086 3.9608V4.00749C1.00086 6.24673 3.06145 7.13796 4.85406 7.66376C6.04169 8.01498 7.20292 8.43116 7.20292 9.31223V9.35893C7.20292 9.73856 7.03239 10.7333 5.45295 10.7333C4.34449 10.7333 2.93761 10.0837 1.48809 9.10719L1.38252 9.03411L0 11.1617L0.0954164 11.2307C1.64035 12.3717 3.50605 13.1472 5.3555 13.1472C8.45958 13.1472 10.171 11.6408 10.171 9.1681V8.91839C10.171 7.35315 8.91839 6.1777 6.34215 5.31693L6.02747 5.21136C4.83172 4.81345 3.96689 4.52517 3.96689 3.6177V3.56695C3.96689 3.01475 4.47239 2.41992 5.57881 2.41992V2.42195Z" fill="white"></path>
</svg>
