<?xml version="1.0" encoding="UTF-8"?>
<svg xmlns="http://www.w3.org/2000/svg" width="90" height="52" viewBox="0 0 90 52" fill="none">
  <path d="M24.053 42.8056C25.9645 41.1971 26.303 39.1865 26.303 37.3971V29.8574H15.8893V40.0712C15.8893 41.5389 14.7146 42.7252 13.261 42.7252C11.8672 42.7252 10.7323 41.559 10.7323 40.1516C10.7323 40.1315 10.7323 40.0913 10.7323 40.0712V11.1186C10.6924 9.71118 11.7876 8.52493 13.1814 8.48472C13.2013 8.48472 13.2212 8.48472 13.2411 8.48472C14.6747 8.48472 15.8495 9.67097 15.8694 11.1387V21.433H26.2831V10.7567C26.2831 4.84554 22.48 0 13.1615 0C3.62388 0 0 4.88575 0 10.7768V41.0162C0 46.867 4.59954 51.2903 10.4734 51.2903H13.6991L24.053 42.8056ZM65.1303 43.9919V10.7567H57.9423V0.965087H83.9666V10.7567H76.7387V51.2099H73.6524L65.1303 43.9919ZM51.6901 1.02541H37.1747L28.7123 39.3474L44.4622 26.5198L60.8892 40.413L51.6901 1.02541ZM41.6348 24.0467L44.4423 9.57044L47.2299 24.0467H41.6348ZM69.7896 51.2702L44.4423 29.8373L18.1791 51.2702H69.7896ZM85.8183 3.33759C85.8581 2.29208 86.7143 1.44763 87.7696 1.48784C88.805 1.52806 89.6413 2.39261 89.6015 3.45823C89.5617 4.48363 88.7453 5.30798 87.7298 5.30798C86.6944 5.30798 85.8382 4.48363 85.8382 3.41801C85.8183 3.39791 85.8183 3.3577 85.8183 3.33759ZM87.7099 5.7101C88.9842 5.68999 90.0196 4.62437 89.9997 3.33759C89.9798 2.05081 88.9245 1.0053 87.6502 1.02541C86.3957 1.04551 85.3803 2.07091 85.3604 3.3577C85.3604 4.64448 86.3957 5.7101 87.6701 5.7101C87.6701 5.68999 87.69 5.68999 87.7099 5.7101ZM87.2121 3.53865H87.69L88.3869 4.7249H88.8449L88.0882 3.53865C88.4665 3.53865 88.7851 3.21696 88.7851 2.83494C88.7851 2.81484 88.7851 2.81484 88.7851 2.79473C88.7851 2.25187 88.4665 2.0307 87.8493 2.0307H86.8338V4.7249H87.232L87.2121 3.53865ZM87.2121 3.17674V2.3524H87.7497C88.0484 2.3524 88.3271 2.41272 88.3271 2.75452C88.3271 3.17674 88.0086 3.19685 87.6701 3.19685L87.2121 3.17674Z" fill="white"></path>
</svg>
