<?xml version="1.0" encoding="UTF-8"?>
<svg xmlns="http://www.w3.org/2000/svg" width="90" height="24" viewBox="0 0 90 24" fill="none">
  <path d="M40.4806 13.4617L42.7525 4.70853H46.4332L47.6036 0.388484H29.7432L26.3919 6.15428H26.3378L25.6247 0.388484H14.7251L13.4613 5.12897H10.0362L11.3 0.388484H5.73337L2.23701 13.4617H7.80365L9.04778 8.79253H12.4728L11.2262 13.4617H16.7929L19.9007 1.84407L22.2366 10.4768L20.0212 13.4617H26.7238L33.5198 4.11351L33.3575 4.70853H37.058L34.7861 13.4617H40.4806Z" fill="white"></path>
  <path d="M60.5613 4.52658L61.6407 0.388484H48.147L44.776 13.4617H58.2549L59.1524 9.98257H51.3507L51.6606 8.80974H59.4622L60.1949 5.98954H52.3933L52.7596 4.52658H60.5613Z" fill="white"></path>
  <path d="M64.5125 8.73597C67.79 8.73597 68.1195 8.86383 68.1195 9.50557C68.1195 10.3661 66.8385 10.3661 66.2336 10.3661C64.1289 10.3661 62.0587 10.2014 59.9712 9.94568L59.1475 13.2429C61.5816 13.683 64.0748 13.8477 67.0057 13.8477C70.6127 13.8477 72.4445 13.5011 73.5779 11.6668C73.9615 11.0448 74.4385 9.61621 74.4385 8.59091C74.4385 5.84447 72.6092 5.7535 70.5192 5.7535C67.645 5.7535 67.2786 5.60597 67.2786 5.07488C67.2786 4.45281 67.7925 4.14055 69.9709 4.14055C71.7658 4.14055 73.5238 4.32496 75.2991 4.54379L76.4522 0.494211C73.7771 0.0909741 70.829 0 68.9973 0C67.6425 0 65.8673 0.0344226 64.6403 0.386025C62.4422 1.00809 60.9768 3.2972 60.9768 6.1174C60.9768 8.168 62.8258 8.73597 64.51 8.73597H64.5125Z" fill="white"></path>
  <path d="M75.7539 4.70853H79.4519L77.1825 13.4617H82.877L85.1489 4.70853H88.8272L90 0.388484H76.9243L75.7539 4.70853Z" fill="white"></path>
  <path d="M86.0955 11.4283C85.5177 11.4283 85.0308 11.8709 85.0308 12.4733C85.0308 13.0757 85.5177 13.5232 86.0955 13.5232C86.6733 13.5232 87.1552 13.0806 87.1552 12.4733C87.1552 11.866 86.6684 11.4283 86.0955 11.4283ZM86.0955 13.3486C85.616 13.3486 85.2423 12.9773 85.2423 12.4733C85.2423 11.9692 85.616 11.6029 86.0955 11.6029C86.5749 11.6029 86.9438 11.9766 86.9438 12.4733C86.9438 12.97 86.57 13.3486 86.0955 13.3486Z" fill="white"></path>
  <path d="M86.5774 12.2151C86.5774 11.9766 86.4348 11.8709 86.1496 11.8709H85.6898V13.0806H85.8717V12.5569H86.0807L86.4004 13.0806H86.6045L86.2602 12.5495C86.4372 12.5274 86.5725 12.4339 86.5725 12.2151H86.5774ZM85.8742 12.3995V12.0258H86.1225C86.2504 12.0258 86.3856 12.0528 86.3856 12.2028C86.3856 12.3897 86.2479 12.3995 86.0906 12.3995H85.8717H85.8742Z" fill="white"></path>
  <path d="M5.21211 19.1144C5.41373 18.2219 5.42111 17.8236 5.1654 17.5629C5.00558 17.4006 4.7302 17.3195 4.26795 17.3195H2.44847C2.01818 17.3195 1.67396 17.4179 1.41087 17.6686C1.17975 17.9047 0.970753 18.2219 0.813392 18.8784C0.63882 19.5693 0.665867 19.9258 0.904366 20.1618C1.06419 20.3241 1.23384 20.3979 1.65429 20.4864L3.2156 20.8109C3.34592 20.8355 3.40001 20.8601 3.44918 20.8995C3.52049 20.9732 3.51065 21.1109 3.43197 21.3789C3.34592 21.7109 3.27707 21.8412 3.22052 21.9076C3.14676 21.9715 3.05578 21.9813 2.84433 21.9813H1.67396C1.43792 21.9813 1.36415 21.9739 1.31744 21.9174C1.24613 21.8535 1.28056 21.6322 1.41087 21.1527H0.215914C-0.0496325 21.9985 -0.0742201 22.5173 0.16428 22.7607C0.324099 22.923 0.574893 23.0042 1.02976 23.0042H3.03611C3.48361 23.0042 3.82537 22.9058 4.08108 22.655C4.3368 22.4042 4.51137 22.1018 4.70315 21.3961C4.89248 20.7052 4.8433 20.3413 4.60234 20.0979C4.4499 19.943 4.26549 19.8619 3.85242 19.7733L2.30586 19.4562C2.15096 19.4316 2.10424 19.3996 2.0649 19.3578C2.00097 19.2939 2.00343 19.171 2.07228 18.9029C2.15833 18.6104 2.20997 18.4727 2.27635 18.4087C2.34274 18.3448 2.44109 18.335 2.64271 18.335H3.6508C3.9016 18.335 3.97536 18.3596 4.02207 18.4087C4.086 18.4727 4.07617 18.6349 3.97782 19.1144H5.21211Z" fill="white"></path>
  <path d="M9.89851 17.2974H8.98139C8.67159 17.2974 8.59783 17.3613 8.41342 17.6711L5.24408 23.0066H6.64065L7.42746 21.5855H9.36988L9.42643 23.0066H10.7419L10.4149 17.8334C10.3804 17.4031 10.3263 17.2974 9.89605 17.2974H9.89851ZM7.9733 20.602L9.16334 18.4825H9.26907L9.34775 20.602H7.9733Z" fill="white"></path>
  <path d="M17.1101 18.3522L17.3879 17.3195H13.3826L11.8729 23.0066H13.1982L13.7809 20.7716H15.7774L16.038 19.7807H14.0489L14.43 18.3522H17.1101Z" fill="white"></path>
  <path d="M17.1469 23.0066H21.3367L21.6071 21.9666H18.7476L19.1115 20.5774H21.3219L21.5899 19.5865H19.3721L19.7016 18.3596H22.5685L22.8463 17.3195H18.6542L17.1469 23.0066Z" fill="white"></path>
  <path d="M23.5102 18.3694H25.2092L23.9847 23.0066H25.31L26.5419 18.3694H28.2556L28.5408 17.3195H23.7979L23.5102 18.3694Z" fill="white"></path>
  <path d="M31.1176 19.6602H31.0684L30.4415 17.3195H29.1088L30.1612 20.8773L29.5981 23.0066H30.8914L31.4373 20.9339L34.3804 17.3195H32.9592L31.1176 19.6602Z" fill="white"></path>
  <path d="M36.2515 23.0066H37.5743L38.157 20.7716H40.156L40.4166 19.7807H38.425L38.8086 18.3522H41.4887L41.7665 17.3195H37.7612L36.2515 23.0066Z" fill="white"></path>
  <path d="M45.8357 17.3195H44.4072C43.8392 17.3195 43.4975 17.3834 43.1336 17.7424C42.9024 17.9686 42.5287 18.4014 42.1034 20.034C41.6682 21.7231 41.8108 22.3895 42.1402 22.7214C42.3001 22.8837 42.5582 23.0066 43.1754 23.0066H44.6064C45.1743 23.0066 45.5161 22.9427 45.88 22.5837C46.1111 22.3477 46.4849 21.9174 46.9102 20.2946C47.3454 18.5981 47.2028 17.9317 46.8733 17.5973C46.7135 17.4351 46.4554 17.322 45.8382 17.322L45.8357 17.3195ZM45.585 20.1643C45.2038 21.6027 45.0465 21.7797 44.9727 21.8535C44.899 21.9272 44.7932 21.9592 44.5326 21.9592H43.5983C43.3303 21.9592 43.2491 21.9346 43.2024 21.878C43.1237 21.7969 43.0451 21.5928 43.4262 20.1643C43.8073 18.7185 43.9646 18.5489 44.0409 18.4677C44.1146 18.394 44.2203 18.362 44.481 18.362H45.4153C45.6833 18.362 45.7644 18.394 45.8112 18.4432C45.8898 18.5243 45.9685 18.7284 45.5874 20.1643H45.585Z" fill="white"></path>
  <path d="M52.0417 17.3195H50.6131C50.0451 17.3195 49.7034 17.3834 49.3395 17.7424C49.1084 17.9686 48.7346 18.4014 48.3093 20.034C47.8741 21.7231 48.0167 22.3895 48.3437 22.7214C48.5035 22.8837 48.7617 23.0066 49.3788 23.0066H50.8098C51.3778 23.0066 51.7196 22.9427 52.0835 22.5837C52.3146 22.3477 52.6883 21.9174 53.1137 20.2946C53.5489 18.5981 53.4063 17.9317 53.0768 17.5973C52.917 17.4351 52.6588 17.322 52.0417 17.322V17.3195ZM51.7909 20.1643C51.4098 21.6027 51.2524 21.7797 51.1762 21.8535C51.1024 21.9272 50.9967 21.9592 50.7361 21.9592H49.8017C49.5337 21.9592 49.4526 21.9346 49.4059 21.878C49.3272 21.7969 49.2485 21.5928 49.6296 20.1643C50.0107 18.7185 50.1681 18.5489 50.2443 18.4677C50.3181 18.394 50.4238 18.362 50.6844 18.362H51.6188C51.8868 18.362 51.9679 18.394 52.0146 18.4432C52.0933 18.5243 52.172 18.7284 51.7909 20.1643Z" fill="white"></path>
  <path d="M54.5889 18.3694H56.2879L55.0635 23.0066H56.3887L57.6206 18.3694H59.3343L59.6196 17.3195H54.8766L54.5889 18.3694Z" fill="white"></path>
  <path d="M66.7205 17.3195L64.9108 21.4945H64.8223L64.9895 17.799C65.0042 17.4179 64.8936 17.3048 64.4707 17.3048H63.9027C63.5929 17.3048 63.438 17.3933 63.288 17.7031L61.4858 21.4969H61.3972L61.7439 17.322H60.3965L60.1457 22.5444C60.131 22.9255 60.2515 23.0312 60.6817 23.0312H61.4685C61.7685 23.0312 61.916 22.9501 62.0513 22.6575L63.7011 19.2373H63.7896L63.6372 22.5517C63.615 22.9329 63.7429 23.0312 64.1732 23.0312H64.9379C65.255 23.0312 65.3952 22.9501 65.528 22.6649L68.1121 17.322H66.7229L66.7205 17.3195Z" fill="white"></path>
  <path d="M69.7988 20.5774H72.0092L72.2773 19.5865H70.0619L70.3889 18.3596H73.2558L73.5337 17.3195H69.344L67.8343 23.0066H72.0265L72.2945 21.9666H69.4349L69.7988 20.5774Z" fill="white"></path>
  <path d="M77.5882 17.2974H76.6711C76.3613 17.2974 76.2875 17.3613 76.1031 17.6711L72.9337 23.0066H74.3303L75.1171 21.5855H77.0595L77.1161 23.0066H78.4315L78.1045 17.8334C78.0701 17.4031 78.016 17.2974 77.5857 17.2974H77.5882ZM75.663 20.602L76.853 18.4825H76.9587L77.0374 20.602H75.663Z" fill="white"></path>
  <path d="M84.0695 17.3195H81.0722L79.5626 23.0042H80.8854L81.4583 20.8527H82.4983C82.8721 20.8527 83.0171 20.8847 83.1056 20.9757C83.2015 21.074 83.2409 21.2019 83.1351 21.642C83.0122 22.1854 82.9139 22.6329 82.877 23.0066H84.2244C84.2612 22.6968 84.3596 22.2198 84.5096 21.5855C84.694 20.7741 84.4629 20.5454 83.9121 20.3905V20.3733C84.5809 20.2749 84.9669 20.0069 85.2177 19.0505C85.4095 18.303 85.3505 17.8973 85.1194 17.6293C84.9276 17.4031 84.6129 17.322 84.0695 17.322V17.3195ZM83.8359 19.1144C83.7228 19.5619 83.6072 19.7143 83.5236 19.7807C83.4572 19.8447 83.3589 19.8692 83.0835 19.8692H81.7189L82.1197 18.3497H83.3786C83.6957 18.3497 83.7842 18.3669 83.8408 18.4235C83.9121 18.5046 83.9515 18.6841 83.8383 19.1144H83.8359Z" fill="white"></path>
</svg>
