<svg xmlns="http://www.w3.org/2000/svg" width="1440" height="900" viewBox="0 0 1440 900"><g><path d="M-50 40 Q 40 50.49499414815715 130 20 Q 220 2.7957619925295276 310 20 Q 400 74.03550754623438 490 20 Q 580 36.4664536143931 670 20 Q 760 10.193865281664507 850 20 Q 940 79.20910926937266 1030 20 Q 1120 22.875962236243762 1210 20 Q 1300 21.286996375921202 1390 20 Q 1480 79.52200864604853 1570 20" fill="none" stroke="#b4b8a5" stroke-width="1" opacity="0.5"/><path d="M-50 130 Q 40 168.15010611037889 130 150 Q 220 97.53586451453198 310 150 Q 400 130.70687141869485 490 150 Q 580 161.61806684937375 670 150 Q 760 91.44882764100079 850 150 Q 940 144.52460769508238 1030 150 Q 1120 151.16637691052463 1210 150 Q 1300 90.14092952976318 1390 150 Q 1480 156.54174722187528 1570 150" fill="none" stroke="#b4b8a5" stroke-width="1" opacity="0.5"/><path d="M-50 220 Q 40 250.73018645294667 130 200 Q 220 222.12334348584233 310 200 Q 400 186.72834096871182 490 200 Q 580 257.7001752372261 670 200 Q 760 208.14756007936077 850 200 Q 940 196.48624878959362 1030 200 Q 1120 259.99652226701744 1210 200 Q 1300 195.64110825441955 1390 200 Q 1480 209.1591258054485 1570 200" fill="none" stroke="#b4b8a5" stroke-width="1" opacity="0.5"/><path d="M-50 310 Q 40 305.05707509019106 130 330 Q 220 344.75863024856943 310 330 Q 400 273.33962039197814 490 330 Q 580 319.1209163752387 670 330 Q 760 335.7433711204293 850 330 Q 940 270.06632430773294 1030 330 Q 1120 332.05404950462724 1210 330 Q 1300 323.5367397131778 1390 330 Q 1480 271.7435541282395 1570 330" fill="none" stroke="#b4b8a5" stroke-width="1" opacity="0.5"/><path d="M-50 400 Q 40 363.9284660940476 130 380 Q 220 435.4369926583979 310 380 Q 400 393.6562837588571 490 380 Q 580 372.1559290611178 670 380 Q 760 439.67084547501366 850 380 Q 940 380.36123709376164 1030 380 Q 1120 383.8351853351429 1210 380 Q 1300 438.986755107514 1390 380 Q 1480 369.5007823568878 1570 380" fill="none" stroke="#b4b8a5" stroke-width="1" opacity="0.5"/><path d="M-50 490 Q 40 455.9638590186353 130 510 Q 220 493.5347474441601 310 510 Q 400 519.8053305822965 490 510 Q 580 450.79065215869304 670 510 Q 760 507.1251274513478 850 510 Q 940 508.7119379269905 1030 510 Q 1120 450.478177220666 1210 510 Q 1300 518.5925276526348 1390 510 Q 1480 495.29885063226493 1570 510" fill="none" stroke="#b4b8a5" stroke-width="1" opacity="0.5"/><path d="M-50 580 Q 40 579.2919229957835 130 560 Q 220 548.3826717310844 310 560 Q 400 618.5514939226969 490 560 Q 580 565.474268838394 670 560 Q 760 558.8346462254843 850 560 Q 940 619.8589693246673 1030 560 Q 1120 553.4573507052849 1210 560 Q 1300 571.9104621351203 1390 560 Q 1480 616.2251800732394 1570 560" fill="none" stroke="#b4b8a5" stroke-width="1" opacity="0.5"/><path d="M-50 670 Q 40 703.270989705144 130 690 Q 220 632.29942181767 310 690 Q 400 681.8535915398929 490 690 Q 580 693.5127757592342 670 690 Q 760 630.0034936508807 850 690 Q 940 694.3598481442998 1030 690 Q 1120 680.839713543766 1210 690 Q 1300 632.6658804237609 1390 690 Q 1480 703.8462460158547 1570 690" fill="none" stroke="#b4b8a5" stroke-width="1" opacity="0.5"/><path d="M-50 760 Q 40 796.6608619166253 130 740 Q 220 750.8779096199655 310 740 Q 400 734.2575517609496 490 740 Q 580 799.9337450817554 670 740 Q 760 737.9449445603179 850 740 Q 940 746.4643949212585 1030 740 Q 1120 798.256093740009 1210 740 Q 1300 727.746116075682 1390 740 Q 1480 760.3492294614539 1570 740" fill="none" stroke="#b4b8a5" stroke-width="1" opacity="0.5"/><path d="M-50 850 Q 40 856.3449067521883 130 870 Q 220 877.8432052489896 310 870 Q 400 810.3290001756067 490 870 Q 580 869.6398133400118 670 870 Q 760 866.1637117288996 850 870 Q 940 811.0135145849712 1030 870 Q 1120 880.4999977787031 1210 870 Q 1300 852.4804238612145 1390 870 Q 1480 816.5311329507465 1570 870" fill="none" stroke="#b4b8a5" stroke-width="1" opacity="0.5"/></g><ellipse cx="1050" cy="380" rx="260" ry="220" fill="#d2ff00" opacity="0.12"/><ellipse cx="420" cy="620" rx="300" ry="200" fill="#3f5a2e" opacity="0.10"/></svg>