<svg xmlns="http://www.w3.org/2000/svg" width="1280" height="720" viewBox="0 0 1280 720">
    <defs><linearGradient id="g42" x1="0" y1="0" x2="1" y2="1">
      <stop offset="0" stop-color="#3a2b1e"/><stop offset="0.6" stop-color="#7a4a24"/><stop offset="1" stop-color="#ff6b00"/>
    </linearGradient></defs>
    <rect width="1280" height="720" fill="url(#g42)"/>
    <path d="M0 20.0 Q 80.0 24.9 160.0 20.6 Q 240.0 44.9 320.0 26.0 Q 400.0 35.2 480.0 25.7 Q 560.0 21.3 640.0 9.6 Q 720.0 -7.1 800.0 11.8 Q 880.0 7.2 960.0 34.9 Q 1040.0 32.6 1120.0 25.1 Q 1200.0 11.7 1280.0 12.7 Q 1360.0 -3.7 1440.0 32.0" fill="none" stroke="#ff6b00" stroke-width="1.2" opacity="0.28"/><path d="M0 122.9 Q 80.0 143.8 160.0 133.0 Q 240.0 119.9 320.0 116.3 Q 400.0 143.4 480.0 109.2 Q 560.0 138.8 640.0 136.8 Q 720.0 141.2 800.0 111.3 Q 880.0 113.1 960.0 127.3 Q 1040.0 96.2 1120.0 115.9 Q 1200.0 123.2 1280.0 130.9 Q 1360.0 109.1 1440.0 123.4" fill="none" stroke="#ff6b00" stroke-width="1.2" opacity="0.28"/><path d="M0 225.7 Q 80.0 195.9 160.0 228.0 Q 240.0 229.0 320.0 230.3 Q 400.0 237.8 480.0 236.3 Q 560.0 244.5 640.0 217.6 Q 720.0 245.9 800.0 223.6 Q 880.0 250.8 960.0 214.9 Q 1040.0 246.5 1120.0 219.4 Q 1200.0 196.8 1280.0 225.4 Q 1360.0 197.3 1440.0 215.3" fill="none" stroke="#ff6b00" stroke-width="1.2" opacity="0.28"/><path d="M0 328.6 Q 80.0 354.8 160.0 320.8 Q 240.0 318.1 320.0 332.0 Q 400.0 342.6 480.0 331.1 Q 560.0 347.0 640.0 331.8 Q 720.0 335.8 800.0 316.2 Q 880.0 314.7 960.0 316.0 Q 1040.0 352.6 1120.0 342.9 Q 1200.0 312.9 1280.0 338.0 Q 1360.0 311.9 1440.0 326.2" fill="none" stroke="#ff6b00" stroke-width="1.2" opacity="0.28"/><path d="M0 431.4 Q 80.0 405.7 160.0 417.2 Q 240.0 410.2 320.0 427.1 Q 400.0 434.0 480.0 446.3 Q 560.0 426.9 640.0 427.8 Q 720.0 422.7 800.0 435.3 Q 880.0 426.4 960.0 417.1 Q 1040.0 446.9 1120.0 429.4 Q 1200.0 451.2 1280.0 421.6 Q 1360.0 442.4 1440.0 432.3" fill="none" stroke="#ff6b00" stroke-width="1.2" opacity="0.28"/><path d="M0 534.3 Q 80.0 550.1 160.0 538.1 Q 240.0 533.5 320.0 531.8 Q 400.0 518.4 480.0 519.6 Q 560.0 524.0 640.0 535.5 Q 720.0 521.6 800.0 548.9 Q 880.0 553.7 960.0 537.2 Q 1040.0 510.2 1120.0 547.9 Q 1200.0 539.4 1280.0 537.1 Q 1360.0 511.8 1440.0 522.2" fill="none" stroke="#ff6b00" stroke-width="1.2" opacity="0.28"/><path d="M0 637.1 Q 80.0 657.0 160.0 642.2 Q 240.0 635.1 320.0 645.6 Q 400.0 645.8 480.0 648.2 Q 560.0 627.4 640.0 626.0 Q 720.0 634.6 800.0 624.2 Q 880.0 661.4 960.0 632.4 Q 1040.0 649.6 1120.0 637.4 Q 1200.0 611.2 1280.0 624.9 Q 1360.0 639.4 1440.0 635.6" fill="none" stroke="#ff6b00" stroke-width="1.2" opacity="0.28"/><g transform="translate(813,446)">
    <path d="M -151.2 -43.2 Q -172.8 -216 0 -226.8 Q 183.6 -216 155.51999999999998 -21.6 L 168.48000000000002 54 Q 86.4 97.2 43.2 86.4 L -129.6 97.2 Q -172.8 21.6 -151.2 -43.2 Z" fill="#111112" opacity="0.92"/>
    <path d="M -118.80000000000001 -10.8 Q -21.6 -60.480000000000004 108 -17.28 L 118.80000000000001 25.919999999999998 Q 21.6 43.2 -108 32.4 Z" fill="#3a2b1e" opacity="0.85"/>
    <circle cx="32.4" cy="-75.6" r="25.919999999999998" fill="#7a4a24"/>
  </g>
  </svg>