<?xml version="1.0" encoding="UTF-8"?>
<svg xmlns="http://www.w3.org/2000/svg" width="90" height="25" viewBox="0 0 90 25" fill="none">
  <path d="M37.0854 12.1982L38.9795 10.9886L40.8793 7.6318H29.9636L24.8086 16.7436H35.7243L37.6107 13.4079L37.0854 12.1982ZM33.3472 14.5313H29.6703L30.3662 13.3005H34.0431L33.3472 14.5313ZM35.2911 11.0978H31.6142L32.3101 9.86708H35.987L35.2911 11.0978Z" fill="white"></path>
  <path d="M42.3861 7.6318L37.2311 16.7436H40.7068L42.6506 13.3063H46.3276L44.3837 16.7436H47.9072L53.0622 7.6318H42.3861ZM47.6062 11.0902H43.9293L44.6252 9.85942H48.3021L47.6062 11.0902Z" fill="white"></path>
  <path d="M64.2079 7.6318H54.0533L52.558 10.2735H55.8266L52.1669 16.7436H55.7844L59.446 10.2735H62.7146L64.2079 7.6318Z" fill="white"></path>
  <path d="M65.6131 13.2929H70.3099L71.5637 11.0767H66.8669L67.5628 9.84791H73.22L74.4738 7.6318H65.2106L60.0556 16.7436H69.3437L70.5975 14.5274H64.9153L65.6131 13.2929Z" fill="white"></path>
  <path d="M72.7887 13.2967H80.0524L79.3603 14.5198H72.0966L70.839 16.7436H81.6972L84.9006 11.0806H77.6216L78.3213 9.84025H85.6023L86.8522 7.6318H75.9921L72.7887 13.2967Z" fill="white"></path>
  <path d="M89.1469 8.56349V8.55007C89.2715 8.51173 89.3712 8.42546 89.3712 8.29318C89.3712 8.18774 89.3252 8.10914 89.26 8.06314C89.1872 8.00946 89.0952 7.97687 88.8919 7.97687C88.7137 7.97687 88.5756 7.99604 88.4779 8.00946V9.08876H88.7271V8.66126H88.8459C88.984 8.66126 89.0491 8.71302 89.0702 8.82612C89.1028 8.9584 89.122 9.05042 89.1565 9.08876H89.4191C89.4 9.0485 89.3731 8.99099 89.3405 8.82612C89.3079 8.68043 89.2543 8.59608 89.1488 8.56349H89.1469ZM88.8498 8.48489H88.7309V8.17624C88.7578 8.17049 88.8038 8.16282 88.8689 8.16282C89.0261 8.16282 89.099 8.228 89.099 8.32769C89.099 8.43888 88.9878 8.48489 88.8498 8.48489Z" fill="white"></path>
  <path d="M88.9034 7.45159C88.2785 7.45159 87.7858 7.92511 87.7858 8.52898C87.7858 9.13285 88.2785 9.61403 88.8958 9.61403C89.5131 9.61403 90 9.13477 90 8.52898C90 7.92319 89.5131 7.45159 88.9015 7.45159H88.9034ZM88.9034 9.39165C88.4242 9.39165 88.0619 9.01016 88.0619 8.5309C88.0619 8.05163 88.4242 7.67014 88.89 7.67014C89.3559 7.67014 89.7259 8.05738 89.7259 8.53856C89.7259 9.01975 89.3712 9.39932 88.9034 9.39357V9.39165Z" fill="white"></path>
  <path d="M2.87942 4.98818H19.1322L17.0062 8.73602H5.04377L7.92319 13.7242H14.1766L11.0767 19.1859L13.9696 24.1952L19.9067 13.73L18.4363 11.232L22.7727 8.67851L27.6976 0H0L2.87942 4.98818Z" fill="white"></path>
</svg>
