<?xml version="1.0" encoding="UTF-8"?>
<svg xmlns="http://www.w3.org/2000/svg" width="90" height="78" viewBox="0 0 90 78" fill="none">
  <path d="M49.5509 35.131H50.3706L50.0072 31.097L49.5509 35.131Z" fill="white"></path>
  <path d="M74.5948 29.7604C74.2556 29.7604 73.9811 30.1036 73.9811 30.5276V37.8648C73.9811 38.2888 74.2556 38.6401 74.5948 38.6401C74.934 38.6401 75.2086 38.2968 75.2086 37.8728V30.5276C75.2086 30.1036 74.934 29.7604 74.5948 29.7604Z" fill="white"></path>
  <path d="M62.5695 16.2087L60.066 15.708V17.9855H62.5695C62.7714 17.9855 62.933 17.8239 62.933 17.622V16.5762C62.933 16.3743 62.7674 16.2128 62.5695 16.2128V16.2087Z" fill="white"></path>
  <path d="M70.9848 22.1285C70.9848 20.3396 72.5637 18.8536 74.6877 18.5791V9.93763C61.1764 8.99677 50.0153 5.16062 45.004 0.00403805C39.9928 5.16062 28.8276 8.99677 15.3163 9.9336V18.575C17.4403 18.8496 19.0192 20.3356 19.0192 22.1245C19.0192 22.2012 19.0192 22.2779 19.0111 22.3506H0V46.2922H18.0016C18.0016 46.3245 18.0016 46.3527 18.0016 46.385C18.0016 48.1699 15.5667 49.6316 12.526 49.7245C21.6318 58.0389 36.936 69.087 45.0081 68.9052C53.0801 69.087 68.3763 58.0389 77.478 49.7245C74.4333 49.6316 71.9984 48.1699 71.9984 46.385C71.9984 46.3527 71.9984 46.3245 71.9984 46.2922H90V22.3506H70.9889C70.9848 22.2739 70.9808 22.1971 70.9808 22.1204L70.9848 22.1285ZM17.719 17.4646V11.9042C30.0794 10.7331 39.6334 7.3129 45 2.68934C50.3666 7.3129 59.9327 10.7331 72.2972 11.9042V17.4646C70.2418 18.2358 68.776 20.1297 68.7316 22.3546H66.8418C66.8378 22.2496 66.8337 22.1447 66.8337 22.0356C66.8337 19.528 68.2915 17.3475 70.4437 16.2208V13.4427C59.1776 12.2514 50.3343 9.16637 45 5.01122C39.6657 9.16637 30.8386 12.2474 19.5724 13.4427V16.2208C21.7247 17.3475 23.1824 19.532 23.1824 22.0356C23.1824 22.1447 23.1824 22.2496 23.1744 22.3546H21.2845C21.2401 20.1297 19.7743 18.2358 17.723 17.4646H17.719ZM65.0731 22.3546H62.933V20.7919C62.933 20.4002 62.5978 20.0772 62.19 20.0772H60.0498V22.3546H57.9864V13.1883L63.8294 14.5087C64.5361 14.6662 65.061 15.288 65.0731 16.0432V18.0137C65.0731 18.5912 64.6612 19.0717 64.1201 19.1646C64.6532 19.2615 65.0731 19.742 65.0731 20.3154V22.3546ZM56.4075 13.9797V20.4729C56.4075 21.0301 56.1369 21.5268 55.721 21.8378H55.7089C55.3495 22.1648 54.8892 22.3587 54.2956 22.3587H51.4407C50.8471 22.3587 50.3868 22.1648 50.0274 21.8418H50.0153C49.5993 21.5268 49.3328 21.0342 49.3328 20.4769V12.1626C49.3328 11.2258 50.1525 10.2203 51.0328 10.4626L55.2526 12.3766C55.9229 12.6027 56.4075 13.2367 56.4075 13.9838V13.9797ZM41.1114 11.884L41.0831 9.45711L45.0283 7.36136L49.0623 9.4248V11.9445L46.1508 10.5474V22.3546H43.7845V10.612L41.1114 11.888V11.884ZM40.9014 12.1586V20.4729C40.9014 21.0301 40.6308 21.5268 40.2149 21.8378H40.2028C39.8475 22.1648 39.3871 22.3587 38.7935 22.3587H35.9386C35.345 22.3587 34.8847 22.1648 34.5253 21.8418H34.5132C34.0973 21.5268 33.8308 21.0342 33.8308 20.4769V13.9838C33.8308 13.2367 34.3153 12.6027 34.9816 12.3766L39.2014 10.4626C40.0817 10.2203 40.9014 11.2217 40.9014 12.1626V12.1586ZM30.463 19.0313L28.9932 22.3829H28.9165L27.3214 19.318H27.277V22.3506H25.153V14.7793L27.2326 14.4158L28.7953 17.7674H28.8559L30.4348 13.6567L32.6476 13.156V22.3506H30.5236V19.0273H30.463V19.0313ZM72.8262 50.7138C64.5361 57.9944 51.9131 66.8095 45.0686 66.652C45.0323 66.652 44.996 66.652 44.9596 66.652C44.9717 66.652 44.9838 66.652 44.996 66.652H44.9192C44.9192 66.652 44.9435 66.652 44.9596 66.652C44.9233 66.652 44.8869 66.652 44.8506 66.652C38.0061 66.8055 25.3832 57.9904 17.0931 50.7138C19.0596 50.1566 20.4729 48.392 20.59 46.3003H22.4637C22.4758 46.4295 22.4798 46.5627 22.4798 46.6919C22.4798 48.4162 21.5955 49.9708 20.1822 51.045C28.1331 57.627 38.6926 64.5926 44.9596 64.8268C51.2226 64.5926 61.7862 57.631 69.733 51.045C68.3238 49.9668 67.4354 48.4162 67.4354 46.6919C67.4354 46.5587 67.4394 46.4254 67.4515 46.2962H69.3252C69.4423 48.392 70.8556 50.1525 72.8221 50.7138H72.8262ZM27.3053 51.4165L27.4951 51.5416L30.7053 53.7989L30.782 53.8272V56.4681L25.4235 52.7652C25.0076 52.4542 24.7452 51.9576 24.7452 51.4003V47.9357C24.7452 46.9988 25.5043 46.2356 26.4452 46.2356L29.8856 46.2437V48.3233H27.487C27.2609 48.3233 27.0791 48.505 27.0791 48.7352V51.0571C27.0791 51.2186 27.172 51.3559 27.3053 51.4245V51.4165ZM30.6124 46.2397H33.0999L34.3436 49.8214H34.497L36.0153 46.2397H38.5028L35.3491 52.6723V59.2583L33.0716 57.8612V52.7006L30.6124 46.2356V46.2397ZM41.6242 59.8116L42.448 60.1306L44.6325 60.9826V63.3489C40.8085 62.0446 39.8596 61.5479 39.5002 61.2208H39.4881C39.0721 60.9099 38.8016 60.4132 38.8016 59.856V47.9316C38.8016 46.9948 39.5607 46.2316 40.5016 46.2316H44.6285V48.3112H41.8988C41.4788 48.3112 41.1396 48.6504 41.1396 49.0703V59.1009C41.1396 59.4239 41.3375 59.6985 41.6202 59.8075L41.6242 59.8116ZM51.2186 59.3472V61.6004C49.2278 62.4605 47.3744 63.042 45.7551 63.2399V46.2356H48.0931V60.3769L51.2186 59.3472ZM54.1018 49.3934V51.3034H56.5609V53.3063H54.1018V56.355C54.1018 56.355 53.92 57.6593 54.8771 57.0818L57.3483 55.608V58.1115L53.9322 60.0538C53.9322 60.0538 51.8081 61.4147 51.7637 59.0645V47.9316C51.7637 46.9948 52.5229 46.2316 53.4637 46.2316H57.3201V48.3112H54.8326C54.4208 48.3112 54.0896 48.6423 54.0896 49.0542L54.1058 49.3894L54.1018 49.3934ZM61.1724 49.5468H63.684C64.4109 49.5468 64.9964 50.1122 64.9964 50.8148V52.644C64.843 53.706 58.5194 57.3645 58.5194 57.3645L58.5032 54.8771L61.1562 53.2982C63.8738 51.691 61.8104 51.7355 61.8104 51.7355H59.7308C59.0443 51.7355 58.4871 51.1903 58.4871 50.52V47.4471C58.4871 46.7727 59.1009 46.2276 59.86 46.2276L60.28 46.2437H64.8147V48.3233H61.1724C60.9705 48.3233 60.809 48.4848 60.809 48.6867V49.1875C60.809 49.3894 60.9705 49.5509 61.1724 49.5509V49.5468ZM87.4116 43.9016H2.61262V24.7532H87.4116V43.9016Z" fill="white"></path>
  <path d="M85.5743 26.6027H4.45397V42.0482H85.5743V26.6027ZM11.9768 40.538H10.0992V35.3006H8.67373V40.538H6.78796V28.1129H8.67373V32.9464H10.0992V28.1088H11.9768V40.538ZM16.1845 40.538L15.7484 37.5013H14.7146L14.2664 40.538H12.3645L13.7738 28.1129H16.56L18.0864 40.538H16.1845ZM22.0235 40.5339C21.8216 40.5339 21.6601 40.3724 21.6601 40.1705V37.788C21.6682 36.4999 21.652 35.6802 20.485 35.6802H20.2952V40.538H18.4054V28.1129H21.7207C22.8473 28.1129 23.566 29.2476 23.566 31.3635C23.566 32.6395 23.3116 33.6612 22.6494 34.1538C23.0532 34.4042 23.5337 35.0906 23.5337 36.4999C23.5337 37.2914 23.566 40.0211 23.7195 40.538H22.0195L22.0235 40.5339ZM28.125 40.538H24.4019V28.1129H26.2877V38.4745H28.125V40.538ZM32.3569 30.0229H30.459V33.0878H32.3569V34.9978H30.459V38.628H32.3569V40.538H28.5732V28.1129H32.3569V30.0229ZM36.2899 40.538H34.4082V35.2683L32.5749 28.1129H34.5738L35.3491 31.945L36.2738 28.1129H38.2928L36.2899 35.2683V40.538ZM41.1033 35.131H37.7598V33.3745H41.1033V35.131ZM46.8212 38.6522C46.8212 39.2094 46.5506 39.7061 46.1347 40.017H46.1226C45.7672 40.3441 45.3069 40.538 44.7093 40.538H42.0199V28.1129L45.1171 28.121C46.0539 28.121 46.8171 28.8801 46.8171 29.821V38.6522H46.8212ZM51.0207 40.538L50.5846 37.5013H49.5509L49.1027 40.538H47.2007L48.61 28.1129H51.3963L52.9267 40.538H51.0207ZM55.9956 40.538H54.0614L52.3735 28.1129H54.3602L54.9901 35.0704H55.0103L55.83 28.1129H57.7279L55.9916 40.538H55.9956ZM60.0215 40.538H58.1398V28.1129H60.0215V40.538ZM65.6627 38.6522C65.6627 39.2094 65.3962 39.7061 64.9803 40.017H64.9681C64.6128 40.3441 64.1484 40.538 63.5548 40.538H60.8655V28.1129L63.9627 28.121C64.8995 28.121 65.6627 28.8801 65.6627 29.821V38.6522ZM71.3281 38.7895V38.8218C71.3119 39.9484 70.2338 40.857 68.885 40.857C67.5363 40.857 66.442 39.9484 66.4259 38.8218V35.8013H68.2753V37.8648C68.2753 38.2888 68.5499 38.6401 68.8891 38.6401C69.2283 38.6401 69.5029 38.2968 69.5029 37.8728L69.519 37.2752C69.519 36.7745 69.6563 35.6963 68.243 34.9856C65.9655 33.8348 66.4218 31.6341 66.4218 30.7982V29.6918C66.438 28.5651 67.5323 27.6566 68.881 27.6566C70.2297 27.6566 71.3079 28.5651 71.324 29.6918V32.3488H69.4988V30.5357C69.4988 30.1117 69.1314 29.7685 68.7922 29.7685C68.453 29.7685 68.1784 30.1117 68.1784 30.5357V31.5735C68.1784 32.6355 69.2081 33.2129 70.363 34.1376C71.5179 35.0624 71.32 36.7018 71.32 37.461V38.7976L71.3281 38.7895ZM77.0459 38.8177C77.0298 39.9444 75.9516 40.8529 74.6029 40.8529C73.2542 40.8529 72.1599 39.9444 72.1438 38.8177V29.6837C72.1599 28.5571 73.2542 27.6485 74.6029 27.6485C75.9516 27.6485 77.0298 28.5571 77.0459 29.6837V38.8177ZM83.2201 40.538H80.9144L79.6868 33.645H79.6666L79.6586 40.538H77.7728V28.1129H80.2198L81.3343 33.5683H81.3545V28.1129H83.2363L83.2201 40.538Z" fill="white"></path>
  <path d="M14.7106 35.131H15.5303L15.1669 31.097L14.7106 35.131Z" fill="white"></path>
  <path d="M38.5028 13.0065L36.3344 14.1009C36.1365 14.1776 35.9709 14.2624 35.9709 14.4643V19.7137C35.9709 19.9156 36.1324 20.0772 36.3344 20.0772H38.5028C38.7047 20.0772 38.8662 19.9156 38.8662 19.7137V13.37C38.8662 13.1681 38.7006 12.946 38.5028 13.0065Z" fill="white"></path>
  <path d="M53.9039 14.1009L51.7355 13.0065C51.5376 12.946 51.372 13.1681 51.372 13.37V19.7137C51.372 19.9156 51.5336 20.0772 51.7355 20.0772H53.9039C54.1058 20.0772 54.2673 19.9156 54.2673 19.7137V14.4643C54.2673 14.2624 54.1018 14.1776 53.9039 14.1009Z" fill="white"></path>
  <path d="M44.5033 30.0188H44.2974L43.9016 30.0229V38.3655H44.4993C44.7739 38.3655 44.9919 38.0344 44.9919 37.6225V30.7618C44.9919 30.35 44.7698 30.0188 44.4993 30.0188H44.5033Z" fill="white"></path>
  <path d="M20.7879 30.0229H20.2952V33.4835H20.7879C21.442 33.4835 21.6278 32.4497 21.6278 31.6583C21.6278 30.4711 21.3088 30.0229 20.7879 30.0229Z" fill="white"></path>
  <path d="M63.3489 30.0188H63.1429L62.7472 30.0229V38.3655H63.3448C63.6194 38.3655 63.8375 38.0344 63.8375 37.6225V30.7618C63.8375 30.35 63.6154 30.0188 63.3448 30.0188H63.3489Z" fill="white"></path>
  <path d="M45 0H45.004C45.004 0 45.004 0 45.0081 0H45Z" fill="white"></path>
  <path d="M77.6032 47.7257C77.6032 47.4551 77.4255 47.3703 77.1186 47.3703H76.6785V48.5454H76.9288V48.0528H77.05L77.3246 48.5454H77.6234L77.3246 48.0326C77.482 48.0205 77.6072 47.9437 77.6072 47.7257H77.6032ZM77.155 47.8509H76.9288V47.5682H77.1065C77.2034 47.5682 77.3326 47.5763 77.3326 47.6974C77.3326 47.8266 77.264 47.8509 77.155 47.8509Z" fill="white"></path>
  <path d="M77.1146 46.8696C76.5331 46.8696 76.0122 47.2694 76.0122 47.9639C76.0122 48.6585 76.5331 49.0582 77.1146 49.0582C77.6961 49.0582 78.2129 48.6544 78.2129 47.9639C78.2129 47.2734 77.692 46.8696 77.1146 46.8696ZM77.1146 48.7998C76.6785 48.7998 76.3272 48.4606 76.3272 47.9599C76.3272 47.4592 76.6785 47.124 77.1146 47.124C77.5507 47.124 77.898 47.4551 77.898 47.9599C77.898 48.4646 77.5386 48.7998 77.1146 48.7998Z" fill="white"></path>
  <path d="M23.6064 74.2395H21.2644C20.6667 74.2395 20.4769 74.3929 20.4769 74.9906V76.6704C20.4769 77.268 20.6667 77.4215 21.2644 77.4215H23.6064C24.2041 77.4215 24.3979 77.268 24.3979 76.6704V74.9906C24.3979 74.3929 24.2081 74.2395 23.6064 74.2395ZM23.6549 76.8238H21.2119V74.8089H23.6549V76.8238Z" fill="white"></path>
  <path d="M12.4735 77.4215H13.2165V76.2101H14.5531V75.6326H13.2165V74.7927H15.6959V74.2395H12.4735V77.4215Z" fill="white"></path>
  <path d="M76.6785 76.2181C77.1671 76.2181 77.3932 76.0445 77.3932 75.6003V74.8533C77.3932 74.4091 77.1671 74.2355 76.6785 74.2355H73.9528V77.4174H74.6796V76.2141H75.3823L76.6664 77.4174H77.7284L76.2585 76.2141H76.6785V76.2181ZM74.6796 74.7887H76.3474C76.5735 74.7887 76.6785 74.8331 76.6785 75.0431V75.4267C76.6785 75.6367 76.5735 75.6811 76.3474 75.6811H74.6796V74.7887Z" fill="white"></path>
  <path d="M38.531 74.8048H39.9928V77.4215H40.7318V74.8048H42.2016V74.2395H38.531V74.8048Z" fill="white"></path>
  <path d="M57.4251 76.0324H58.8909V75.4913H57.4251V74.7806H59.9408V74.2395H56.6861V77.4215H59.9731V76.8238H57.4251V76.0324Z" fill="white"></path>
  <path d="M32.9626 74.2395H30.6205C30.0229 74.2395 29.8291 74.3929 29.8291 74.9906V76.6704C29.8291 77.268 30.0188 77.4215 30.6205 77.4215H32.9626C33.5602 77.4215 33.754 77.268 33.754 76.6704V74.9906C33.754 74.3929 33.5642 74.2395 32.9626 74.2395ZM33.011 76.8238H30.568V74.8089H33.011V76.8238Z" fill="white"></path>
  <path d="M50.2575 76.3716L49.3974 74.2395H48.8765L48.0326 76.3716L47.225 74.2395H46.4577L47.6853 77.4215H48.1981L49.0865 75.2167L49.9628 77.4215H50.4635L51.691 74.2395H51.0288L50.2575 76.3716Z" fill="white"></path>
  <path d="M66.4582 74.2395L64.6572 77.4215H65.3962L65.7677 76.7229H67.7867L68.1703 77.4215H69.0022L67.177 74.2395H66.4582ZM66.0826 76.1495L66.7933 74.8533L67.4798 76.1495H66.0826Z" fill="white"></path>
</svg>
