<svg width="299" height="34" viewBox="0 0 299 34" fill="none" xmlns="http://www.w3.org/2000/svg">
<g clip-path="url(#clip0_5197_11727)">
<path d="M10.0361 8.69251L8.74707 13.4369L16.1252 8.6655L11.2997 26.6692L16.2005 26.6733L23.3289 0.0810547" fill="white"/>
<path d="M2.09512 19.1043L0.0654297 26.673H10.1099L14.2201 11.276L2.09512 19.1043ZM36.9862 12.4407C36.7406 13.3532 36.2676 14.0235 35.5621 14.4515C34.8583 14.8787 33.8704 15.0932 32.5953 15.0932H28.5441L29.9666 9.78978H34.0177C35.2912 9.78978 36.1661 10.0026 36.6408 10.4363C37.1155 10.8701 37.2301 11.533 36.9862 12.4497V12.4407ZM41.1806 12.3351C41.6962 10.42 41.4834 8.9468 40.5406 7.91559C39.5994 6.89256 37.9478 6.37695 35.5908 6.37695H26.5496L21.1071 26.6821H25.4996L27.693 18.4978H30.5738C31.2204 18.4978 31.7294 18.6042 32.101 18.8088C32.4734 19.0216 32.6919 19.3899 32.759 19.9219L33.5431 26.6821H38.249L37.4862 20.3802C37.3307 18.9725 36.6866 18.1459 35.5547 17.9004C36.9976 17.483 38.2064 16.7873 39.1804 15.8216C40.1475 14.8629 40.8385 13.6613 41.1806 12.3433V12.3351ZM51.8578 19.4144C51.4895 20.7894 50.9248 21.8288 50.1612 22.5572C49.3968 23.2856 48.4834 23.6457 47.4178 23.6457C46.3326 23.6457 45.5968 23.2938 45.2081 22.5817C44.8185 21.8697 44.8054 20.8385 45.1671 19.4881C45.5289 18.1377 46.1059 17.0819 46.8997 16.3208C47.6936 15.5597 48.6217 15.1791 49.6873 15.1791C50.7512 15.1791 51.4796 15.5474 51.8479 16.2782C52.2244 17.0124 52.2326 18.0624 51.8643 19.4292L51.8578 19.4144ZM53.7827 12.2287L53.2327 14.2829C52.9954 13.5463 52.5346 12.9571 51.8537 12.5151C51.1711 12.0814 50.3265 11.8604 49.319 11.8604C48.0832 11.8604 46.8965 12.1796 45.7589 12.8179C44.6213 13.4563 43.6228 14.3566 42.7716 15.5187C41.9205 16.6809 41.2985 17.9986 40.8974 19.4799C40.5046 20.9695 40.4227 22.2707 40.6601 23.4002C40.9056 24.5378 41.4212 25.4053 42.2151 26.0109C43.0171 26.6248 44.0402 26.9276 45.2924 26.9276C46.2874 26.9326 47.2712 26.7174 48.1732 26.2974C49.065 25.8951 49.8583 25.303 50.4975 24.5623L49.9246 26.7033H54.1723L58.0508 12.236H53.795L53.7827 12.2287ZM73.3144 12.2287H60.9619L60.0985 15.4533H67.2859L57.784 23.6621L56.9721 26.6902H69.7231L70.5866 23.4656H62.8852L72.5328 15.1341L73.3144 12.2287ZM84.1871 19.3899C83.8049 20.814 83.2378 21.8844 82.4889 22.5817C81.7401 23.2856 80.8332 23.6375 79.7685 23.6375C77.5424 23.6375 76.8107 22.2216 77.5702 19.3899C77.9467 17.9822 78.5163 16.924 79.2774 16.2111C80.0386 15.4958 80.9609 15.139 82.0453 15.139C83.1093 15.139 83.8279 15.4934 84.1978 16.207C84.5677 16.9191 84.5644 17.9806 84.1871 19.3883V19.3899ZM86.6735 12.7729C85.6955 12.164 84.4474 11.8596 82.9251 11.8596C81.384 11.8596 79.9575 12.1624 78.6448 12.768C77.3375 13.3699 76.1885 14.2683 75.2892 15.3919C74.3644 16.5295 73.699 17.8635 73.2906 19.3858C72.8896 20.9023 72.8405 22.2339 73.1515 23.374C73.4625 24.5116 74.1172 25.3873 75.0994 25.9929C76.0897 26.6035 77.35 26.9071 78.8969 26.9071C80.4191 26.9071 81.835 26.601 83.1363 25.9921C84.4376 25.3799 85.5506 24.5108 86.4754 23.365C87.4003 22.2241 88.0632 20.8933 88.4724 19.3711C88.8816 17.8488 88.9307 16.5197 88.6197 15.3772C88.3087 14.2396 87.6622 13.3638 86.6882 12.7541L86.6735 12.7729ZM101.837 16.0933L102.926 12.1567C102.557 11.9684 102.075 11.8702 101.469 11.8702C100.495 11.8702 99.562 12.1108 98.6618 12.5986C97.8876 13.0127 97.2295 13.5971 96.673 14.3288L97.2377 12.209L96.0044 12.214H92.9762L89.0723 26.6755H93.3797L95.4053 19.1157C95.6999 18.0166 96.2302 17.1515 96.9955 16.5377C97.7566 15.9214 98.706 15.6129 99.8518 15.6129C100.556 15.6129 101.21 15.7741 101.832 16.0957L101.837 16.0933ZM113.822 19.4595C113.454 20.8099 112.897 21.8411 112.136 22.5531C111.375 23.2684 110.459 23.6252 109.395 23.6252C108.331 23.6252 107.602 23.2651 107.218 22.5449C106.825 21.8206 106.817 20.7771 107.185 19.4054C107.553 18.0346 108.118 16.9829 108.895 16.2545C109.673 15.5204 110.589 15.1537 111.653 15.1537C112.701 15.1537 113.405 15.5302 113.781 16.2913C114.158 17.0525 114.166 18.1082 113.804 19.4586L113.822 19.4595ZM116.816 12.7967C116.018 12.1583 114.999 11.8391 113.763 11.8391C112.681 11.8391 111.649 12.0846 110.67 12.5806C109.692 13.0758 108.898 13.751 108.288 14.6054L108.303 14.5072L109.025 12.2074H104.819L103.747 16.2095L103.714 16.3486L99.2944 32.835H103.608L105.834 24.5361C106.055 25.2744 106.505 25.8538 107.192 26.2728C107.88 26.6902 108.728 26.8973 109.738 26.8973C110.99 26.8973 112.185 26.5945 113.318 25.9888C114.456 25.3816 115.438 24.5075 116.273 23.3781C117.107 22.2486 117.727 20.9392 118.122 19.4578C118.523 17.974 118.605 16.6506 118.376 15.4926C118.143 14.3329 117.626 13.435 116.829 12.7999L116.816 12.7967ZM131.123 19.4005C130.755 20.7673 130.19 21.8149 129.429 22.5351C128.668 23.2602 127.751 23.6211 126.687 23.6211C125.599 23.6211 124.862 23.2692 124.477 22.5572C124.084 21.8452 124.076 20.814 124.436 19.4636C124.797 18.1132 125.371 17.0574 126.165 16.2963C126.959 15.5351 127.888 15.1554 128.953 15.1554C130.017 15.1554 130.737 15.5237 131.114 16.2521C131.49 16.9829 131.493 18.0329 131.126 19.403L131.123 19.4005ZM133.046 12.2107L132.495 14.2649C132.258 13.5242 131.8 12.935 131.12 12.4971C130.433 12.0601 129.59 11.8424 128.583 11.8424C127.348 11.8424 126.154 12.1616 125.015 12.7999C123.877 13.4383 122.879 14.3337 122.028 15.4926C121.177 16.6514 120.555 17.9724 120.154 19.4537C119.757 20.9408 119.679 22.2446 119.916 23.3789C120.156 24.5083 120.672 25.3808 121.471 25.9897C122.268 26.5953 123.296 26.9014 124.549 26.9014C125.555 26.9014 126.517 26.6919 127.429 26.2712C128.319 25.8671 129.11 25.2742 129.748 24.5337L129.175 26.6763H133.423L137.3 12.2148H133.053L133.046 12.2107ZM155.133 12.2156L155.135 12.2115H152.525C152.441 12.2115 152.368 12.2156 152.291 12.2172H150.937L150.241 13.183L150.069 13.4121L149.996 13.5267L144.492 21.1937L143.354 12.2156H138.846L141.13 25.8587L136.088 32.8399H140.581L141.801 31.1105C141.835 31.0598 141.866 31.0172 141.907 30.9632L143.331 28.9417L143.372 28.8844L149.75 19.8408L155.127 12.2295L155.135 12.2246H155.133V12.2156Z" fill="white"/>
</g>
<path d="M153.952 31.6406L165.203 6.67569H167.894L156.643 31.6406H153.952ZM174.555 19.7093C171.767 19.0285 169.043 17.5046 169.043 13.8734C169.043 10.1448 171.993 7.64835 176.695 7.64835C182.174 7.64835 184.541 11.0851 184.768 14.7812H182.206C182.109 12.1226 180.423 9.95031 176.597 9.95031C173.517 9.95031 171.637 11.3445 171.637 13.6788C171.637 15.8511 173.258 16.6941 175.43 17.2453L179.094 18.1531C181.882 18.8339 184.606 20.4875 184.606 24.1187C184.606 27.8473 181.655 30.3438 176.889 30.3438C171.41 30.3438 168.978 26.907 168.719 23.2109H171.28C171.41 25.8695 173.161 28.0418 176.986 28.0418C180.131 28.0418 182.012 26.6476 182.012 24.2808C182.012 22.141 180.456 21.1683 178.218 20.6172L174.555 19.7093ZM186.482 30.0195V7.97257H194.263C198.608 7.97257 201.623 10.4366 201.623 14.5867C201.623 18.7367 198.608 21.2007 194.263 21.2007H189.076V30.0195H186.482ZM189.076 18.8664H194.101C197.343 18.8664 198.964 17.2128 198.964 14.7488V14.4245C198.964 11.9605 197.343 10.307 194.101 10.307H189.076V18.8664ZM202.806 30.0195V7.97257H210.781C214.964 7.97257 217.947 10.3718 217.947 14.4245C217.947 18.3476 215.158 20.6496 211.203 20.8117L218.368 30.0195H215.158L208.285 20.8117H205.399V30.0195H202.806ZM205.399 18.5421H210.619C213.537 18.5421 215.288 17.0507 215.288 14.5867V14.2624C215.288 11.7984 213.537 10.307 210.619 10.307H205.399V18.5421ZM219.319 30.0195V7.97257H221.913V30.0195H219.319ZM224.181 30.0195V7.97257H228.785L237.993 25.1887L239.841 28.6902H239.873L239.841 24.7347V7.97257H242.338V30.0195H237.701L228.526 12.8034L226.678 9.30187H226.645L226.678 13.2574V30.0195H224.181ZM250.554 30.0195V10.307H243.324V7.97257H260.378V10.307H253.148V30.0195H250.554ZM260.87 10.4042V7.32413H264.112V10.4042L262.686 14.457H260.449L262.232 10.4042H260.87ZM265.48 15.4296C265.61 10.7609 268.463 7.64835 272.97 7.64835C277.249 7.64835 280.135 10.4691 280.135 14.4894C280.135 17.6992 278.319 20.0011 274.98 22.8867L269.468 27.6851H280.297V30.0195H265.837V27.6851L272.937 21.4925C276.212 18.6394 277.509 17.0183 277.509 14.5867C277.509 11.6363 275.596 9.98273 272.873 9.98273C270.052 9.98273 268.171 11.7984 268.106 15.4296H265.48ZM289.232 30.3438C284.563 30.3438 281.321 27.134 281.321 19.9687V18.6718C281.321 11.2148 284.595 7.64835 289.361 7.64835C293.738 7.64835 296.267 10.6312 296.527 14.1328H293.868C293.674 11.5714 291.825 9.98273 289.232 9.98273C285.827 9.98273 283.947 12.6738 283.947 18.3476V19.5472C284.79 17.4722 286.995 16.1105 289.75 16.1105C293.738 16.1105 296.818 18.8664 296.818 23.0488C296.818 27.2961 293.674 30.3438 289.232 30.3438ZM284.109 22.8867C284.109 25.4805 285.892 28.0094 289.232 28.0094C292.052 28.0094 294.192 26.2586 294.192 23.2109C294.192 20.1632 292.182 18.3152 289.07 18.3152C286.119 18.3152 284.109 20.1308 284.109 22.8867Z" fill="white"/>
<defs>
<clipPath id="clip0_5197_11727">
<rect width="155.173" height="32.143" fill="white"/>
</clipPath>
</defs>
</svg>
