<?xml version="1.0" encoding="UTF-8"?>
<svg xmlns="http://www.w3.org/2000/svg" width="458" height="387" viewBox="0 0 458 387" fill="none">
  <g clip-path="url(#clip0_8217_10143)">
    <mask id="mask0_8217_10143" style="mask-type:luminance" maskUnits="userSpaceOnUse" x="0" y="0" width="458" height="387">
      <path d="M458 0H0V387H458V0Z" fill="white"></path>
    </mask>
    <g mask="url(#mask0_8217_10143)">
      <path d="M17.2 -24H-11V4.2H17.2V-24Z" stroke="black" stroke-width="0.6"></path>
      <path d="M45.4 -24H17.2V4.2H45.4V-24Z" stroke="black" stroke-width="0.6"></path>
      <path d="M73.7 -24H45.5V4.2H73.7V-24Z" stroke="black" stroke-width="0.6"></path>
      <path d="M101.9 -24H73.7V4.2H101.9V-24Z" stroke="black" stroke-width="0.6"></path>
      <path d="M130.1 -24H101.9V4.2H130.1V-24Z" stroke="black" stroke-width="0.6"></path>
      <path d="M158.3 -24H130.1V4.2H158.3V-24Z" stroke="black" stroke-width="0.6"></path>
      <path d="M186.5 -24H158.3V4.2H186.5V-24Z" stroke="black" stroke-width="0.6"></path>
      <path d="M214.7 -24H186.5V4.2H214.7V-24Z" stroke="black" stroke-width="0.6"></path>
      <path d="M242.9 -24H214.7V4.2H242.9V-24Z" stroke="black" stroke-width="0.6"></path>
      <path d="M271.1 -24H242.9V4.2H271.1V-24Z" stroke="black" stroke-width="0.6"></path>
      <path d="M299.4 -24H271.2V4.2H299.4V-24Z" stroke="black" stroke-width="0.6"></path>
      <path d="M327.6 -24H299.4V4.2H327.6V-24Z" stroke="black" stroke-width="0.6"></path>
      <path d="M355.8 -24H327.6V4.2H355.8V-24Z" stroke="black" stroke-width="0.6"></path>
      <path d="M384 -24H355.8V4.2H384V-24Z" stroke="black" stroke-width="0.6"></path>
      <path d="M412.2 -24H384V4.2H412.2V-24Z" stroke="black" stroke-width="0.6"></path>
      <path d="M440.4 -24H412.2V4.2H440.4V-24Z" stroke="black" stroke-width="0.6"></path>
      <path d="M468.6 -24H440.4V4.2H468.6V-24Z" stroke="black" stroke-width="0.6"></path>
      <path d="M17.2 4.19995H-11V32.4H17.2V4.19995Z" stroke="black" stroke-width="0.6"></path>
      <path d="M45.4 4.19995H17.2V32.4H45.4V4.19995Z" stroke="black" stroke-width="0.6"></path>
      <path d="M73.7 4.19995H45.5V32.4H73.7V4.19995Z" stroke="black" stroke-width="0.6"></path>
      <path d="M101.9 4.19995H73.7V32.4H101.9V4.19995Z" stroke="black" stroke-width="0.6"></path>
      <path d="M130.1 4.19995H101.9V32.4H130.1V4.19995Z" stroke="black" stroke-width="0.6"></path>
      <path d="M158.3 4.19995H130.1V32.4H158.3V4.19995Z" stroke="black" stroke-width="0.6"></path>
      <path d="M186.5 4.19995H158.3V32.4H186.5V4.19995Z" stroke="black" stroke-width="0.6"></path>
      <path d="M214.7 4.19995H186.5V32.4H214.7V4.19995Z" stroke="black" stroke-width="0.6"></path>
      <path d="M242.9 4.19995H214.7V32.4H242.9V4.19995Z" stroke="black" stroke-width="0.6"></path>
      <path d="M271.1 4.19995H242.9V32.4H271.1V4.19995Z" stroke="black" stroke-width="0.6"></path>
      <path d="M299.4 4.19995H271.2V32.4H299.4V4.19995Z" stroke="black" stroke-width="0.6"></path>
      <path d="M327.6 4.19995H299.4V32.4H327.6V4.19995Z" stroke="black" stroke-width="0.6"></path>
      <path d="M355.8 4.19995H327.6V32.4H355.8V4.19995Z" stroke="black" stroke-width="0.6"></path>
      <path d="M384 4.19995H355.8V32.4H384V4.19995Z" stroke="black" stroke-width="0.6"></path>
      <path d="M412.2 4.19995H384V32.4H412.2V4.19995Z" stroke="black" stroke-width="0.6"></path>
      <path d="M440.4 4.19995H412.2V32.4H440.4V4.19995Z" stroke="black" stroke-width="0.6"></path>
      <path d="M468.6 4.19995H440.4V32.4H468.6V4.19995Z" stroke="black" stroke-width="0.6"></path>
      <path d="M17.2 32.3999H-11V60.5999H17.2V32.3999Z" stroke="black" stroke-width="0.6"></path>
      <path d="M45.4 32.3999H17.2V60.5999H45.4V32.3999Z" stroke="black" stroke-width="0.6"></path>
      <path d="M73.7 32.3999H45.5V60.5999H73.7V32.3999Z" stroke="black" stroke-width="0.6"></path>
      <path d="M101.9 32.3999H73.7V60.5999H101.9V32.3999Z" stroke="black" stroke-width="0.6"></path>
      <path d="M130.1 32.3999H101.9V60.5999H130.1V32.3999Z" stroke="black" stroke-width="0.6"></path>
      <path d="M158.3 32.3999H130.1V60.5999H158.3V32.3999Z" stroke="black" stroke-width="0.6"></path>
      <path d="M186.5 32.3999H158.3V60.5999H186.5V32.3999Z" stroke="black" stroke-width="0.6"></path>
      <path d="M214.7 32.3999H186.5V60.5999H214.7V32.3999Z" stroke="black" stroke-width="0.6"></path>
      <path d="M242.9 32.3999H214.7V60.5999H242.9V32.3999Z" stroke="black" stroke-width="0.6"></path>
      <path d="M271.1 32.3999H242.9V60.5999H271.1V32.3999Z" stroke="black" stroke-width="0.6"></path>
      <path d="M299.4 32.3999H271.2V60.5999H299.4V32.3999Z" stroke="black" stroke-width="0.6"></path>
      <path d="M327.6 32.3999H299.4V60.5999H327.6V32.3999Z" stroke="black" stroke-width="0.6"></path>
      <path d="M355.8 32.3999H327.6V60.5999H355.8V32.3999Z" stroke="black" stroke-width="0.6"></path>
      <path d="M384 32.3999H355.8V60.5999H384V32.3999Z" stroke="black" stroke-width="0.6"></path>
      <path d="M412.2 32.3999H384V60.5999H412.2V32.3999Z" stroke="black" stroke-width="0.6"></path>
      <path d="M440.4 32.3999H412.2V60.5999H440.4V32.3999Z" stroke="black" stroke-width="0.6"></path>
      <path d="M468.6 32.3999H440.4V60.5999H468.6V32.3999Z" stroke="black" stroke-width="0.6"></path>
      <path d="M17.2 60.7H-11V88.9H17.2V60.7Z" stroke="black" stroke-width="0.6"></path>
      <path d="M45.4 60.7H17.2V88.9H45.4V60.7Z" stroke="black" stroke-width="0.6"></path>
      <path d="M73.7 60.7H45.5V88.9H73.7V60.7Z" stroke="black" stroke-width="0.6"></path>
      <path d="M101.9 60.7H73.7V88.9H101.9V60.7Z" stroke="black" stroke-width="0.6"></path>
      <path d="M130.1 60.7H101.9V88.9H130.1V60.7Z" stroke="black" stroke-width="0.6"></path>
      <path d="M158.3 60.7H130.1V88.9H158.3V60.7Z" stroke="black" stroke-width="0.6"></path>
      <path d="M186.5 60.7H158.3V88.9H186.5V60.7Z" fill="#EA3737" stroke="black" stroke-width="0.6"></path>
      <path d="M214.7 60.7H186.5V88.9H214.7V60.7Z" stroke="black" stroke-width="0.6"></path>
      <path d="M242.9 60.7H214.7V88.9H242.9V60.7Z" stroke="black" stroke-width="0.6"></path>
      <path d="M271.1 60.7H242.9V88.9H271.1V60.7Z" stroke="black" stroke-width="0.6"></path>
      <path d="M299.4 60.7H271.2V88.9H299.4V60.7Z" stroke="black" stroke-width="0.6"></path>
      <path d="M327.6 60.7H299.4V88.9H327.6V60.7Z" stroke="black" stroke-width="0.6"></path>
      <path d="M355.8 60.7H327.6V88.9H355.8V60.7Z" stroke="black" stroke-width="0.6"></path>
      <path d="M384 60.7H355.8V88.9H384V60.7Z" stroke="black" stroke-width="0.6"></path>
      <path d="M412.2 60.7H384V88.9H412.2V60.7Z" stroke="black" stroke-width="0.6"></path>
      <path d="M440.4 60.7H412.2V88.9H440.4V60.7Z" stroke="black" stroke-width="0.6"></path>
      <path d="M468.6 60.7H440.4V88.9H468.6V60.7Z" stroke="black" stroke-width="0.6"></path>
      <path d="M17.2 88.8999H-11V117.1H17.2V88.8999Z" stroke="black" stroke-width="0.6"></path>
      <path d="M45.4 88.8999H17.2V117.1H45.4V88.8999Z" stroke="black" stroke-width="0.6"></path>
      <path d="M73.7 88.8999H45.5V117.1H73.7V88.8999Z" stroke="black" stroke-width="0.6"></path>
      <path d="M101.9 88.8999H73.7V117.1H101.9V88.8999Z" stroke="black" stroke-width="0.6"></path>
      <path d="M130.1 88.8999H101.9V117.1H130.1V88.8999Z" stroke="black" stroke-width="0.6"></path>
      <path d="M158.3 88.8999H130.1V117.1H158.3V88.8999Z" fill="#EA3737" stroke="black" stroke-width="0.6"></path>
      <path d="M186.5 88.8999H158.3V117.1H186.5V88.8999Z" fill="#EA3737" stroke="black" stroke-width="0.6"></path>
      <path d="M214.7 88.8999H186.5V117.1H214.7V88.8999Z" fill="#EA3737" stroke="black" stroke-width="0.6"></path>
      <path d="M242.9 88.8999H214.7V117.1H242.9V88.8999Z" stroke="black" stroke-width="0.6"></path>
      <path d="M271.1 88.8999H242.9V117.1H271.1V88.8999Z" stroke="black" stroke-width="0.6"></path>
      <path d="M299.4 88.8999H271.2V117.1H299.4V88.8999Z" stroke="black" stroke-width="0.6"></path>
      <path d="M327.6 88.8999H299.4V117.1H327.6V88.8999Z" stroke="black" stroke-width="0.6"></path>
      <path d="M355.8 88.8999H327.6V117.1H355.8V88.8999Z" stroke="black" stroke-width="0.6"></path>
      <path d="M384 88.8999H355.8V117.1H384V88.8999Z" stroke="black" stroke-width="0.6"></path>
      <path d="M412.2 88.8999H384V117.1H412.2V88.8999Z" stroke="black" stroke-width="0.6"></path>
      <path d="M440.4 88.8999H412.2V117.1H440.4V88.8999Z" stroke="black" stroke-width="0.6"></path>
      <path d="M468.6 88.8999H440.4V117.1H468.6V88.8999Z" stroke="black" stroke-width="0.6"></path>
      <path d="M17.2 117.1H-11V145.3H17.2V117.1Z" stroke="black" stroke-width="0.6"></path>
      <path d="M45.4 117.1H17.2V145.3H45.4V117.1Z" stroke="black" stroke-width="0.6"></path>
      <path d="M73.7 117.1H45.5V145.3H73.7V117.1Z" stroke="black" stroke-width="0.6"></path>
      <path d="M101.9 117.1H73.7V145.3H101.9V117.1Z" stroke="black" stroke-width="0.6"></path>
      <path d="M130.1 117.1H101.9V145.3H130.1V117.1Z" fill="#EA3737" stroke="black" stroke-width="0.6"></path>
      <path d="M158.3 117.1H130.1V145.3H158.3V117.1Z" fill="#EA3737" stroke="black" stroke-width="0.6"></path>
      <path d="M186.5 117.1H158.3V145.3H186.5V117.1Z" fill="#EA3737" stroke="black" stroke-width="0.6"></path>
      <path d="M214.7 117.1H186.5V145.3H214.7V117.1Z" stroke="black" stroke-width="0.6"></path>
      <path d="M242.9 117.1H214.7V145.3H242.9V117.1Z" fill="#EA3737" stroke="black" stroke-width="0.6"></path>
      <path d="M271.1 117.1H242.9V145.3H271.1V117.1Z" stroke="black" stroke-width="0.6"></path>
      <path d="M299.4 117.1H271.2V145.3H299.4V117.1Z" stroke="black" stroke-width="0.6"></path>
      <path d="M327.6 117.1H299.4V145.3H327.6V117.1Z" stroke="black" stroke-width="0.6"></path>
      <path d="M355.8 117.1H327.6V145.3H355.8V117.1Z" stroke="black" stroke-width="0.6"></path>
      <path d="M384 117.1H355.8V145.3H384V117.1Z" stroke="black" stroke-width="0.6"></path>
      <path d="M412.2 117.1H384V145.3H412.2V117.1Z" stroke="black" stroke-width="0.6"></path>
      <path d="M440.4 117.1H412.2V145.3H440.4V117.1Z" stroke="black" stroke-width="0.6"></path>
      <path d="M468.6 117.1H440.4V145.3H468.6V117.1Z" stroke="black" stroke-width="0.6"></path>
      <path d="M17.2 145.3H-11V173.5H17.2V145.3Z" stroke="black" stroke-width="0.6"></path>
      <path d="M45.4 145.3H17.2V173.5H45.4V145.3Z" stroke="black" stroke-width="0.6"></path>
      <path d="M73.7 145.3H45.5V173.5H73.7V145.3Z" stroke="black" stroke-width="0.6"></path>
      <path d="M101.9 145.3H73.7V173.5H101.9V145.3Z" stroke="black" stroke-width="0.6"></path>
      <path d="M130.1 145.3H101.9V173.5H130.1V145.3Z" stroke="black" stroke-width="0.6"></path>
      <path d="M158.3 145.3H130.1V173.5H158.3V145.3Z" fill="#EA3737" stroke="black" stroke-width="0.6"></path>
      <path d="M186.5 145.3H158.3V173.5H186.5V145.3Z" stroke="black" stroke-width="0.6"></path>
      <path d="M214.7 145.3H186.5V173.5H214.7V145.3Z" fill="#EA3737" stroke="black" stroke-width="0.6"></path>
      <path d="M242.9 145.3H214.7V173.5H242.9V145.3Z" stroke="black" stroke-width="0.6"></path>
      <path d="M271.1 145.3H242.9V173.5H271.1V145.3Z" fill="#EA3737" stroke="black" stroke-width="0.6"></path>
      <path d="M299.4 145.3H271.2V173.5H299.4V145.3Z" stroke="black" stroke-width="0.6"></path>
      <path d="M327.6 145.3H299.4V173.5H327.6V145.3Z" stroke="black" stroke-width="0.6"></path>
      <path d="M355.8 145.3H327.6V173.5H355.8V145.3Z" stroke="black" stroke-width="0.6"></path>
      <path d="M384 145.3H355.8V173.5H384V145.3Z" stroke="black" stroke-width="0.6"></path>
      <path d="M412.2 145.3H384V173.5H412.2V145.3Z" stroke="black" stroke-width="0.6"></path>
      <path d="M440.4 145.3H412.2V173.5H440.4V145.3Z" stroke="black" stroke-width="0.6"></path>
      <path d="M468.6 145.3H440.4V173.5H468.6V145.3Z" stroke="black" stroke-width="0.6"></path>
      <path d="M17.2 173.5H-11V201.7H17.2V173.5Z" stroke="black" stroke-width="0.6"></path>
      <path d="M45.4 173.5H17.2V201.7H45.4V173.5Z" stroke="black" stroke-width="0.6"></path>
      <path d="M73.7 173.5H45.5V201.7H73.7V173.5Z" stroke="black" stroke-width="0.6"></path>
      <path d="M101.9 173.5H73.7V201.7H101.9V173.5Z" stroke="black" stroke-width="0.6"></path>
      <path d="M130.1 173.5H101.9V201.7H130.1V173.5Z" stroke="black" stroke-width="0.6"></path>
      <path d="M158.3 173.5H130.1V201.7H158.3V173.5Z" stroke="black" stroke-width="0.6"></path>
      <path d="M186.5 173.5H158.3V201.7H186.5V173.5Z" fill="#EA3737" stroke="black" stroke-width="0.6"></path>
      <path d="M214.7 173.5H186.5V201.7H214.7V173.5Z" stroke="black" stroke-width="0.6"></path>
      <path d="M242.9 173.5H214.7V201.7H242.9V173.5Z" fill="#EA3737" stroke="black" stroke-width="0.6"></path>
      <path d="M271.1 173.5H242.9V201.7H271.1V173.5Z" stroke="black" stroke-width="0.6"></path>
      <path d="M299.4 173.5H271.2V201.7H299.4V173.5Z" fill="#EA3737" stroke="black" stroke-width="0.6"></path>
      <path d="M327.6 173.5H299.4V201.7H327.6V173.5Z" stroke="black" stroke-width="0.6"></path>
      <path d="M355.8 173.5H327.6V201.7H355.8V173.5Z" stroke="black" stroke-width="0.6"></path>
      <path d="M384 173.5H355.8V201.7H384V173.5Z" stroke="black" stroke-width="0.6"></path>
      <path d="M412.2 173.5H384V201.7H412.2V173.5Z" stroke="black" stroke-width="0.6"></path>
      <path d="M440.4 173.5H412.2V201.7H440.4V173.5Z" stroke="black" stroke-width="0.6"></path>
      <path d="M468.6 173.5H440.4V201.7H468.6V173.5Z" stroke="black" stroke-width="0.6"></path>
      <path d="M17.2 201.8H-11V230H17.2V201.8Z" stroke="black" stroke-width="0.6"></path>
      <path d="M45.4 201.8H17.2V230H45.4V201.8Z" stroke="black" stroke-width="0.6"></path>
      <path d="M73.7 201.8H45.5V230H73.7V201.8Z" stroke="black" stroke-width="0.6"></path>
      <path d="M101.9 201.8H73.7V230H101.9V201.8Z" stroke="black" stroke-width="0.6"></path>
      <path d="M130.1 201.8H101.9V230H130.1V201.8Z" stroke="black" stroke-width="0.6"></path>
      <path d="M158.3 201.8H130.1V230H158.3V201.8Z" stroke="black" stroke-width="0.6"></path>
      <path d="M186.5 201.8H158.3V230H186.5V201.8Z" stroke="black" stroke-width="0.6"></path>
      <path d="M214.7 201.8H186.5V230H214.7V201.8Z" fill="#EA3737" stroke="black" stroke-width="0.6"></path>
      <path d="M242.9 201.8H214.7V230H242.9V201.8Z" stroke="black" stroke-width="0.6"></path>
      <path d="M271.1 201.8H242.9V230H271.1V201.8Z" fill="#EA3737" stroke="black" stroke-width="0.6"></path>
      <path d="M299.4 201.8H271.2V230H299.4V201.8Z" stroke="black" stroke-width="0.6"></path>
      <path d="M327.6 201.8H299.4V230H327.6V201.8Z" fill="#EA3737" stroke="black" stroke-width="0.6"></path>
      <path d="M355.8 201.8H327.6V230H355.8V201.8Z" stroke="black" stroke-width="0.6"></path>
      <path d="M384 201.8H355.8V230H384V201.8Z" stroke="black" stroke-width="0.6"></path>
      <path d="M412.2 201.8H384V230H412.2V201.8Z" stroke="black" stroke-width="0.6"></path>
      <path d="M440.4 201.8H412.2V230H440.4V201.8Z" stroke="black" stroke-width="0.6"></path>
      <path d="M468.6 201.8H440.4V230H468.6V201.8Z" stroke="black" stroke-width="0.6"></path>
      <path d="M17.2 230H-11V258.2H17.2V230Z" stroke="black" stroke-width="0.6"></path>
      <path d="M45.4 230H17.2V258.2H45.4V230Z" stroke="black" stroke-width="0.6"></path>
      <path d="M73.7 230H45.5V258.2H73.7V230Z" stroke="black" stroke-width="0.6"></path>
      <path d="M101.9 230H73.7V258.2H101.9V230Z" stroke="black" stroke-width="0.6"></path>
      <path d="M130.1 230H101.9V258.2H130.1V230Z" stroke="black" stroke-width="0.6"></path>
      <path d="M158.3 230H130.1V258.2H158.3V230Z" stroke="black" stroke-width="0.6"></path>
      <path d="M186.5 230H158.3V258.2H186.5V230Z" stroke="black" stroke-width="0.6"></path>
      <path d="M214.7 230H186.5V258.2H214.7V230Z" stroke="black" stroke-width="0.6"></path>
      <path d="M242.9 230H214.7V258.2H242.9V230Z" fill="#EA3737" stroke="black" stroke-width="0.6"></path>
      <path d="M271.1 230H242.9V258.2H271.1V230Z" stroke="black" stroke-width="0.6"></path>
      <path d="M299.4 230H271.2V258.2H299.4V230Z" fill="#EA3737" stroke="black" stroke-width="0.6"></path>
      <path d="M327.6 230H299.4V258.2H327.6V230Z" stroke="black" stroke-width="0.6"></path>
      <path d="M355.8 230H327.6V258.2H355.8V230Z" fill="#EA3737" stroke="black" stroke-width="0.6"></path>
      <path d="M384 230H355.8V258.2H384V230Z" stroke="black" stroke-width="0.6"></path>
      <path d="M412.2 230H384V258.2H412.2V230Z" stroke="black" stroke-width="0.6"></path>
      <path d="M440.4 230H412.2V258.2H440.4V230Z" stroke="black" stroke-width="0.6"></path>
      <path d="M468.6 230H440.4V258.2H468.6V230Z" stroke="black" stroke-width="0.6"></path>
      <path d="M17.2 258.2H-11V286.4H17.2V258.2Z" stroke="black" stroke-width="0.6"></path>
      <path d="M45.4 258.2H17.2V286.4H45.4V258.2Z" stroke="black" stroke-width="0.6"></path>
      <path d="M73.7 258.2H45.5V286.4H73.7V258.2Z" stroke="black" stroke-width="0.6"></path>
      <path d="M101.9 258.2H73.7V286.4H101.9V258.2Z" stroke="black" stroke-width="0.6"></path>
      <path d="M130.1 258.2H101.9V286.4H130.1V258.2Z" stroke="black" stroke-width="0.6"></path>
      <path d="M158.3 258.2H130.1V286.4H158.3V258.2Z" stroke="black" stroke-width="0.6"></path>
      <path d="M186.5 258.2H158.3V286.4H186.5V258.2Z" stroke="black" stroke-width="0.6"></path>
      <path d="M214.7 258.2H186.5V286.4H214.7V258.2Z" stroke="black" stroke-width="0.6"></path>
      <path d="M242.9 258.2H214.7V286.4H242.9V258.2Z" stroke="black" stroke-width="0.6"></path>
      <path d="M271.1 258.2H242.9V286.4H271.1V258.2Z" fill="#EA3737" stroke="black" stroke-width="0.6"></path>
      <path d="M299.4 258.2H271.2V286.4H299.4V258.2Z" stroke="black" stroke-width="0.6"></path>
      <path d="M327.6 258.2H299.4V286.4H327.6V258.2Z" fill="#EA3737" stroke="black" stroke-width="0.6"></path>
      <path d="M355.8 258.2H327.6V286.4H355.8V258.2Z" fill="#EA3737" stroke="black" stroke-width="0.6"></path>
      <path d="M384 258.2H355.8V286.4H384V258.2Z" stroke="black" stroke-width="0.6"></path>
      <path d="M412.2 258.2H384V286.4H412.2V258.2Z" stroke="black" stroke-width="0.6"></path>
      <path d="M440.4 258.2H412.2V286.4H440.4V258.2Z" stroke="black" stroke-width="0.6"></path>
      <path d="M468.6 258.2H440.4V286.4H468.6V258.2Z" stroke="black" stroke-width="0.6"></path>
      <path d="M17.2 286.4H-11V314.6H17.2V286.4Z" stroke="black" stroke-width="0.6"></path>
      <path d="M45.4 286.4H17.2V314.6H45.4V286.4Z" stroke="black" stroke-width="0.6"></path>
      <path d="M73.7 286.4H45.5V314.6H73.7V286.4Z" stroke="black" stroke-width="0.6"></path>
      <path d="M101.9 286.4H73.7V314.6H101.9V286.4Z" stroke="black" stroke-width="0.6"></path>
      <path d="M130.1 286.4H101.9V314.6H130.1V286.4Z" stroke="black" stroke-width="0.6"></path>
      <path d="M158.3 286.4H130.1V314.6H158.3V286.4Z" stroke="black" stroke-width="0.6"></path>
      <path d="M186.5 286.4H158.3V314.6H186.5V286.4Z" stroke="black" stroke-width="0.6"></path>
      <path d="M214.7 286.4H186.5V314.6H214.7V286.4Z" stroke="black" stroke-width="0.6"></path>
      <path d="M242.9 286.4H214.7V314.6H242.9V286.4Z" stroke="black" stroke-width="0.6"></path>
      <path d="M271.1 286.4H242.9V314.6H271.1V286.4Z" stroke="black" stroke-width="0.6"></path>
      <path d="M299.4 286.4H271.2V314.6H299.4V286.4Z" fill="#EA3737" stroke="black" stroke-width="0.6"></path>
      <path d="M327.6 286.4H299.4V314.6H327.6V286.4Z" fill="#EA3737" stroke="black" stroke-width="0.6"></path>
      <path d="M355.8 286.4H327.6V314.6H355.8V286.4Z" fill="#EA3737" stroke="black" stroke-width="0.6"></path>
      <path d="M384 286.4H355.8V314.6H384V286.4Z" stroke="black" stroke-width="0.6"></path>
      <path d="M412.2 286.4H384V314.6H412.2V286.4Z" stroke="black" stroke-width="0.6"></path>
      <path d="M440.4 286.4H412.2V314.6H440.4V286.4Z" stroke="black" stroke-width="0.6"></path>
      <path d="M468.6 286.4H440.4V314.6H468.6V286.4Z" stroke="black" stroke-width="0.6"></path>
      <path d="M17.2 314.7H-11V342.9H17.2V314.7Z" stroke="black" stroke-width="0.6"></path>
      <path d="M45.4 314.7H17.2V342.9H45.4V314.7Z" stroke="black" stroke-width="0.6"></path>
      <path d="M73.7 314.7H45.5V342.9H73.7V314.7Z" stroke="black" stroke-width="0.6"></path>
      <path d="M101.9 314.7H73.7V342.9H101.9V314.7Z" stroke="black" stroke-width="0.6"></path>
      <path d="M130.1 314.7H101.9V342.9H130.1V314.7Z" stroke="black" stroke-width="0.6"></path>
      <path d="M158.3 314.7H130.1V342.9H158.3V314.7Z" stroke="black" stroke-width="0.6"></path>
      <path d="M186.5 314.7H158.3V342.9H186.5V314.7Z" stroke="black" stroke-width="0.6"></path>
      <path d="M214.7 314.7H186.5V342.9H214.7V314.7Z" stroke="black" stroke-width="0.6"></path>
      <path d="M242.9 314.7H214.7V342.9H242.9V314.7Z" stroke="black" stroke-width="0.6"></path>
      <path d="M271.1 314.7H242.9V342.9H271.1V314.7Z" stroke="black" stroke-width="0.6"></path>
      <path d="M299.4 314.7H271.2V342.9H299.4V314.7Z" stroke="black" stroke-width="0.6"></path>
      <path d="M327.6 314.7H299.4V342.9H327.6V314.7Z" stroke="black" stroke-width="0.6"></path>
      <path d="M355.8 314.7H327.6V342.9H355.8V314.7Z" stroke="black" stroke-width="0.6"></path>
      <path d="M384 314.7H355.8V342.9H384V314.7Z" stroke="black" stroke-width="0.6"></path>
      <path d="M412.2 314.7H384V342.9H412.2V314.7Z" stroke="black" stroke-width="0.6"></path>
      <path d="M440.4 314.7H412.2V342.9H440.4V314.7Z" stroke="black" stroke-width="0.6"></path>
      <path d="M468.6 314.7H440.4V342.9H468.6V314.7Z" stroke="black" stroke-width="0.6"></path>
      <path d="M17.2 342.9H-11V371.1H17.2V342.9Z" stroke="black" stroke-width="0.6"></path>
      <path d="M45.4 342.9H17.2V371.1H45.4V342.9Z" stroke="black" stroke-width="0.6"></path>
      <path d="M73.7 342.9H45.5V371.1H73.7V342.9Z" stroke="black" stroke-width="0.6"></path>
      <path d="M101.9 342.9H73.7V371.1H101.9V342.9Z" stroke="black" stroke-width="0.6"></path>
      <path d="M130.1 342.9H101.9V371.1H130.1V342.9Z" stroke="black" stroke-width="0.6"></path>
      <path d="M158.3 342.9H130.1V371.1H158.3V342.9Z" stroke="black" stroke-width="0.6"></path>
      <path d="M186.5 342.9H158.3V371.1H186.5V342.9Z" stroke="black" stroke-width="0.6"></path>
      <path d="M214.7 342.9H186.5V371.1H214.7V342.9Z" stroke="black" stroke-width="0.6"></path>
      <path d="M242.9 342.9H214.7V371.1H242.9V342.9Z" stroke="black" stroke-width="0.6"></path>
      <path d="M271.1 342.9H242.9V371.1H271.1V342.9Z" stroke="black" stroke-width="0.6"></path>
      <path d="M299.4 342.9H271.2V371.1H299.4V342.9Z" stroke="black" stroke-width="0.6"></path>
      <path d="M327.6 342.9H299.4V371.1H327.6V342.9Z" stroke="black" stroke-width="0.6"></path>
      <path d="M355.8 342.9H327.6V371.1H355.8V342.9Z" stroke="black" stroke-width="0.6"></path>
      <path d="M384 342.9H355.8V371.1H384V342.9Z" stroke="black" stroke-width="0.6"></path>
      <path d="M412.2 342.9H384V371.1H412.2V342.9Z" stroke="black" stroke-width="0.6"></path>
      <path d="M440.4 342.9H412.2V371.1H440.4V342.9Z" stroke="black" stroke-width="0.6"></path>
      <path d="M468.6 342.9H440.4V371.1H468.6V342.9Z" stroke="black" stroke-width="0.6"></path>
      <path d="M17.2 371.1H-11V399.3H17.2V371.1Z" stroke="black" stroke-width="0.6"></path>
      <path d="M45.4 371.1H17.2V399.3H45.4V371.1Z" stroke="black" stroke-width="0.6"></path>
      <path d="M73.7 371.1H45.5V399.3H73.7V371.1Z" stroke="black" stroke-width="0.6"></path>
      <path d="M101.9 371.1H73.7V399.3H101.9V371.1Z" stroke="black" stroke-width="0.6"></path>
      <path d="M130.1 371.1H101.9V399.3H130.1V371.1Z" stroke="black" stroke-width="0.6"></path>
      <path d="M158.3 371.1H130.1V399.3H158.3V371.1Z" stroke="black" stroke-width="0.6"></path>
      <path d="M186.5 371.1H158.3V399.3H186.5V371.1Z" stroke="black" stroke-width="0.6"></path>
      <path d="M214.7 371.1H186.5V399.3H214.7V371.1Z" stroke="black" stroke-width="0.6"></path>
      <path d="M242.9 371.1H214.7V399.3H242.9V371.1Z" stroke="black" stroke-width="0.6"></path>
      <path d="M271.1 371.1H242.9V399.3H271.1V371.1Z" stroke="black" stroke-width="0.6"></path>
      <path d="M299.4 371.1H271.2V399.3H299.4V371.1Z" stroke="black" stroke-width="0.6"></path>
      <path d="M327.6 371.1H299.4V399.3H327.6V371.1Z" stroke="black" stroke-width="0.6"></path>
      <path d="M355.8 371.1H327.6V399.3H355.8V371.1Z" stroke="black" stroke-width="0.6"></path>
      <path d="M384 371.1H355.8V399.3H384V371.1Z" stroke="black" stroke-width="0.6"></path>
      <path d="M412.2 371.1H384V399.3H412.2V371.1Z" stroke="black" stroke-width="0.6"></path>
      <path d="M440.4 371.1H412.2V399.3H440.4V371.1Z" stroke="black" stroke-width="0.6"></path>
      <path d="M468.6 371.1H440.4V399.3H468.6V371.1Z" stroke="black" stroke-width="0.6"></path>
    </g>
  </g>
  <defs>
    <clipPath id="clip0_8217_10143">
      <rect width="458" height="387" fill="white"></rect>
    </clipPath>
  </defs>
</svg>
