<svg width="64" height="64" viewBox="0 0 64 64" fill="none" xmlns="http://www.w3.org/2000/svg">
<rect width="64" height="64" rx="20" fill="white"/>
<path d="M21.5 42.5H42.5V21.5H21.5V42.5ZM18.5 20C18.5 19.1716 19.1716 18.5 20 18.5H44C44.8284 18.5 45.5 19.1716 45.5 20V44C45.5 44.8284 44.8284 45.5 44 45.5H20C19.1716 45.5 18.5 44.8284 18.5 44V20ZM24.5 27.5H39.5V24.5H24.5V27.5ZM39.5 33.5H24.5V30.5H39.5V33.5ZM24.5 39.5H39.5V36.5H24.5V39.5Z" fill="url(#paint0_linear_4906_60246)"/>
<defs>
<linearGradient id="paint0_linear_4906_60246" x1="32" y1="18.5" x2="32" y2="45.5" gradientUnits="userSpaceOnUse">
<stop stop-color="#DEE5FF"/>
<stop offset="1" stop-color="#597EFF"/>
</linearGradient>
</defs>
</svg>
