<svg xmlns="http://www.w3.org/2000/svg" viewBox="0 0 683 1024" preserveAspectRatio="xMidYMid slice">
  <rect width="683" height="1024" fill="#f4e9e1"/>
  <rect x="136.6" y="40" width="409.8" height="716.8" rx="14" fill="#2a2a2e"/>
  <rect x="177.58" y="120" width="327.84" height="563.2" rx="8" fill="#15151a"/>
  <rect x="136.6" y="40" width="409.8" height="60" rx="14" fill="#000"/><text x="341.5" y="80" font-family="Arial,sans-serif" font-weight="800" font-size="30" text-anchor="middle" fill="#fff">NOMA</text>
  <rect y="757.76" width="683" height="266.24" fill="#3c3c42"/>
  <path d="M0 798.72 L683 757.76 L683 1024 L0 1024 Z" fill="#2a2a2e"/>
  <g transform="translate(232.22000000000003,716.8) scale(2)" fill="#00aa3c"><circle cx="0" cy="-26" r="9"/><path d="M-12 -12 q12 -10 24 0 l3 30 q-15 6 -30 0 z"/></g><g transform="translate(341.5,737.28) scale(2)" fill="#ab54f7"><circle cx="0" cy="-26" r="9"/><path d="M-12 -12 q12 -10 24 0 l3 30 q-15 6 -30 0 z"/></g>
  <rect x="204.9" y="634.88" width="40" height="50" rx="6" fill="#ffb200"/>
  <rect x="355.16" y="655.36" width="40" height="50" rx="6" fill="#ff5c38"/>
  <g transform="translate(560.06,757.76) scale(2.4)"><path d="M0 0 q-14 -22 -6 -40 q10 8 6 40" fill="#00aa3c"/><path d="M0 0 q14 -22 6 -40 q-10 8 -6 40" fill="#1be349"/><path d="M0 2 q-2 -30 0 -46 q2 16 0 46" stroke="#00aa3c" stroke-width="2" fill="none"/><rect x="-7" y="0" width="14" height="12" rx="2" fill="#ff5c38"/></g>
  </svg>