<svg xmlns="http://www.w3.org/2000/svg" viewBox="0 0 1024 1024" preserveAspectRatio="xMidYMid slice">
  <rect width="1024" height="409.6" fill="#0072e3"/>
  <rect y="409.6" width="1024" height="614.4" fill="#f4e9e1"/>
  <rect x="60" y="368.64" width="904" height="348.16" rx="14" fill="#fff"/>
  <rect x="120" y="512" width="784" height="120" rx="60" fill="#ea3737"/>
  <circle cx="200" cy="573.44" r="22" fill="#ffb200"/><circle cx="320" cy="573.44" r="22" fill="#1be349"/><circle cx="440" cy="573.44" r="22" fill="#0072e3"/><circle cx="560" cy="573.44" r="22" fill="#c79dfc"/><circle cx="680" cy="573.44" r="22" fill="#ff5c38"/><circle cx="800" cy="573.44" r="22" fill="#ffb200"/>
  <g transform="translate(180,471.04) scale(1.6)" fill="#000"><circle cx="0" cy="-26" r="9"/><path d="M-12 -12 q12 -10 24 0 l3 30 q-15 6 -30 0 z"/></g><g transform="translate(360,450.56) scale(1.6)" fill="#00aa3c"><circle cx="0" cy="-26" r="9"/><path d="M-12 -12 q12 -10 24 0 l3 30 q-15 6 -30 0 z"/></g><g transform="translate(540,471.04) scale(1.6)" fill="#ab54f7"><circle cx="0" cy="-26" r="9"/><path d="M-12 -12 q12 -10 24 0 l3 30 q-15 6 -30 0 z"/></g><g transform="translate(720,450.56) scale(1.6)" fill="#ff5c38"><circle cx="0" cy="-26" r="9"/><path d="M-12 -12 q12 -10 24 0 l3 30 q-15 6 -30 0 z"/></g><g transform="translate(860,471.04) scale(1.6)" fill="#004e9b"><circle cx="0" cy="-26" r="9"/><path d="M-12 -12 q12 -10 24 0 l3 30 q-15 6 -30 0 z"/></g>
  <g transform="translate(900,716.8) scale(2)"><path d="M0 0 q-14 -22 -6 -40 q10 8 6 40" fill="#00aa3c"/><path d="M0 0 q14 -22 6 -40 q-10 8 -6 40" fill="#1be349"/><path d="M0 2 q-2 -30 0 -46 q2 16 0 46" stroke="#00aa3c" stroke-width="2" fill="none"/><rect x="-7" y="0" width="14" height="12" rx="2" fill="#ff5c38"/></g><g transform="translate(120,716.8) scale(2)"><path d="M0 0 q-14 -22 -6 -40 q10 8 6 40" fill="#00aa3c"/><path d="M0 0 q14 -22 6 -40 q-10 8 -6 40" fill="#1be349"/><path d="M0 2 q-2 -30 0 -46 q2 16 0 46" stroke="#00aa3c" stroke-width="2" fill="none"/><rect x="-7" y="0" width="14" height="12" rx="2" fill="#ff5c38"/></g>
  </svg>