<svg xmlns="http://www.w3.org/2000/svg" viewBox="0 0 800 800" preserveAspectRatio="xMidYMid slice">
  <rect width="800" height="800" fill="#ab54f7"/>
  <rect x="60" y="60" width="680" height="400" rx="14" fill="#fff" opacity="0.92"/>
  <rect x="90" y="90" width="120" height="90" rx="6" fill="#ffb200"/><rect x="250" y="90" width="120" height="90" rx="6" fill="#1be349"/><rect x="410" y="90" width="120" height="90" rx="6" fill="#ff5c38"/><rect x="570" y="90" width="120" height="90" rx="6" fill="#0072e3"/><rect x="90" y="210" width="120" height="90" rx="6" fill="#1be349"/><rect x="250" y="210" width="120" height="90" rx="6" fill="#ff5c38"/><rect x="410" y="210" width="120" height="90" rx="6" fill="#0072e3"/><rect x="570" y="210" width="120" height="90" rx="6" fill="#ffb200"/><rect x="90" y="330" width="120" height="90" rx="6" fill="#ff5c38"/><rect x="250" y="330" width="120" height="90" rx="6" fill="#0072e3"/><rect x="410" y="330" width="120" height="90" rx="6" fill="#ffb200"/><rect x="570" y="330" width="120" height="90" rx="6" fill="#1be349"/>
  <rect y="496" width="800" height="304" fill="#f4e9e1"/>
  <rect x="120" y="400" width="360" height="22" fill="#000"/>
  <rect x="220" y="272" width="160" height="120" rx="8" fill="#15151a"/><rect x="232" y="288" width="136" height="92" rx="4" fill="#1be349"/>
  <g transform="translate(560,400) scale(1.6)" fill="#000"><circle cx="0" cy="-26" r="9"/><path d="M-12 -12 q12 -10 24 0 l3 30 q-15 6 -30 0 z"/></g>
  </svg>