<svg xmlns="http://www.w3.org/2000/svg" viewBox="0 0 800 800" preserveAspectRatio="xMidYMid slice">
  <rect width="800" height="200" fill="#0072e3"/><rect x="6" y="6" width="121.33333333333334" height="54.66666666666667" rx="4" fill="#004e9b" opacity="0.55"/><rect x="139.33333333333334" y="6" width="121.33333333333334" height="54.66666666666667" rx="4" fill="#004e9b" opacity="0.55"/><rect x="272.6666666666667" y="6" width="121.33333333333334" height="54.66666666666667" rx="4" fill="#004e9b" opacity="0.55"/><rect x="406" y="6" width="121.33333333333334" height="54.66666666666667" rx="4" fill="#004e9b" opacity="0.55"/><rect x="539.3333333333334" y="6" width="121.33333333333334" height="54.66666666666667" rx="4" fill="#004e9b" opacity="0.55"/><rect x="672.6666666666667" y="6" width="121.33333333333334" height="54.66666666666667" rx="4" fill="#004e9b" opacity="0.55"/><rect x="6" y="72.66666666666667" width="121.33333333333334" height="54.66666666666667" rx="4" fill="#004e9b" opacity="0.55"/><rect x="139.33333333333334" y="72.66666666666667" width="121.33333333333334" height="54.66666666666667" rx="4" fill="#004e9b" opacity="0.55"/><rect x="272.6666666666667" y="72.66666666666667" width="121.33333333333334" height="54.66666666666667" rx="4" fill="#004e9b" opacity="0.55"/><rect x="406" y="72.66666666666667" width="121.33333333333334" height="54.66666666666667" rx="4" fill="#004e9b" opacity="0.55"/><rect x="539.3333333333334" y="72.66666666666667" width="121.33333333333334" height="54.66666666666667" rx="4" fill="#004e9b" opacity="0.55"/><rect x="672.6666666666667" y="72.66666666666667" width="121.33333333333334" height="54.66666666666667" rx="4" fill="#004e9b" opacity="0.55"/><rect x="6" y="139.33333333333334" width="121.33333333333334" height="54.66666666666667" rx="4" fill="#004e9b" opacity="0.55"/><rect x="139.33333333333334" y="139.33333333333334" width="121.33333333333334" height="54.66666666666667" rx="4" fill="#004e9b" opacity="0.55"/><rect x="272.6666666666667" y="139.33333333333334" width="121.33333333333334" height="54.66666666666667" rx="4" fill="#004e9b" opacity="0.55"/><rect x="406" y="139.33333333333334" width="121.33333333333334" height="54.66666666666667" rx="4" fill="#004e9b" opacity="0.55"/><rect x="539.3333333333334" y="139.33333333333334" width="121.33333333333334" height="54.66666666666667" rx="4" fill="#004e9b" opacity="0.55"/><rect x="672.6666666666667" y="139.33333333333334" width="121.33333333333334" height="54.66666666666667" rx="4" fill="#004e9b" opacity="0.55"/><circle cx="160" cy="90" r="16" fill="#fff" opacity="0.95"/><circle cx="160" cy="90" r="26" fill="#fff" opacity="0.18"/><circle cx="320" cy="90" r="16" fill="#fff" opacity="0.95"/><circle cx="320" cy="90" r="26" fill="#fff" opacity="0.18"/><circle cx="480" cy="90" r="16" fill="#fff" opacity="0.95"/><circle cx="480" cy="90" r="26" fill="#fff" opacity="0.18"/><circle cx="640" cy="90" r="16" fill="#fff" opacity="0.95"/><circle cx="640" cy="90" r="26" fill="#fff" opacity="0.18"/>
  <rect y="200" width="800" height="600" fill="#00aa3c"/>
  <rect x="80" y="260" width="300" height="340" rx="10" fill="#f4e9e1"/>
  <rect y="620" width="800" height="180" fill="#f4e9e1"/>
  <g transform="translate(420,520)"><rect width="140" height="140" rx="6" fill="#fff" stroke="#ffb200" stroke-width="5"/><rect x="42" y="56" width="56" height="30.8" rx="6" fill="none" stroke="#ffb200" stroke-width="3"/></g><g transform="translate(560,520)"><rect width="140" height="140" rx="6" fill="#fff" stroke="#ffb200" stroke-width="5"/><rect x="42" y="56" width="56" height="30.8" rx="6" fill="none" stroke="#ffb200" stroke-width="3"/></g><g transform="translate(480,660)"><ellipse cx="0" cy="0" rx="20" ry="7" fill="#c79dfc"/><path d="M-12 4 L-16 44 M12 4 L16 44 M0 6 L0 46" stroke="#004e9b" stroke-width="3" fill="none"/></g><g transform="translate(220,470) scale(1.8)" fill="#000"><circle cx="0" cy="-26" r="9"/><path d="M-12 -12 q12 -10 24 0 l3 30 q-15 6 -30 0 z"/></g><g transform="translate(680,640) scale(2)"><path d="M0 0 q-14 -22 -6 -40 q10 8 6 40" fill="#00aa3c"/><path d="M0 0 q14 -22 6 -40 q-10 8 -6 40" fill="#1be349"/><path d="M0 2 q-2 -30 0 -46 q2 16 0 46" stroke="#00aa3c" stroke-width="2" fill="none"/><rect x="-7" y="0" width="14" height="12" rx="2" fill="#ff5c38"/></g>
  </svg>