<svg xmlns="http://www.w3.org/2000/svg" viewBox="0 0 1600 1067" preserveAspectRatio="xMidYMid slice">
  <defs><linearGradient id="hg" x1="0" y1="0" x2="0" y2="1"><stop offset="0" stop-color="#0072e3"/><stop offset="1" stop-color="#004e9b"/></linearGradient></defs>
  <rect width="1600" height="360" fill="#0072e3"/><rect x="6" y="6" width="254.66666666666669" height="108" rx="4" fill="#004e9b" opacity="0.55"/><rect x="272.6666666666667" y="6" width="254.66666666666669" height="108" rx="4" fill="#004e9b" opacity="0.55"/><rect x="539.3333333333334" y="6" width="254.66666666666669" height="108" rx="4" fill="#004e9b" opacity="0.55"/><rect x="806" y="6" width="254.66666666666669" height="108" rx="4" fill="#004e9b" opacity="0.55"/><rect x="1072.6666666666667" y="6" width="254.66666666666669" height="108" rx="4" fill="#004e9b" opacity="0.55"/><rect x="1339.3333333333335" y="6" width="254.66666666666669" height="108" rx="4" fill="#004e9b" opacity="0.55"/><rect x="6" y="126" width="254.66666666666669" height="108" rx="4" fill="#004e9b" opacity="0.55"/><rect x="272.6666666666667" y="126" width="254.66666666666669" height="108" rx="4" fill="#004e9b" opacity="0.55"/><rect x="539.3333333333334" y="126" width="254.66666666666669" height="108" rx="4" fill="#004e9b" opacity="0.55"/><rect x="806" y="126" width="254.66666666666669" height="108" rx="4" fill="#004e9b" opacity="0.55"/><rect x="1072.6666666666667" y="126" width="254.66666666666669" height="108" rx="4" fill="#004e9b" opacity="0.55"/><rect x="1339.3333333333335" y="126" width="254.66666666666669" height="108" rx="4" fill="#004e9b" opacity="0.55"/><rect x="6" y="246" width="254.66666666666669" height="108" rx="4" fill="#004e9b" opacity="0.55"/><rect x="272.6666666666667" y="246" width="254.66666666666669" height="108" rx="4" fill="#004e9b" opacity="0.55"/><rect x="539.3333333333334" y="246" width="254.66666666666669" height="108" rx="4" fill="#004e9b" opacity="0.55"/><rect x="806" y="246" width="254.66666666666669" height="108" rx="4" fill="#004e9b" opacity="0.55"/><rect x="1072.6666666666667" y="246" width="254.66666666666669" height="108" rx="4" fill="#004e9b" opacity="0.55"/><rect x="1339.3333333333335" y="246" width="254.66666666666669" height="108" rx="4" fill="#004e9b" opacity="0.55"/>
  <circle cx="200" cy="150" r="16" fill="#fff" opacity="0.95"/><circle cx="200" cy="150" r="26" fill="#fff" opacity="0.18"/><circle cx="400" cy="150" r="16" fill="#fff" opacity="0.95"/><circle cx="400" cy="150" r="26" fill="#fff" opacity="0.18"/><circle cx="600" cy="150" r="16" fill="#fff" opacity="0.95"/><circle cx="600" cy="150" r="26" fill="#fff" opacity="0.18"/><circle cx="800" cy="150" r="16" fill="#fff" opacity="0.95"/><circle cx="800" cy="150" r="26" fill="#fff" opacity="0.18"/><circle cx="1000" cy="150" r="16" fill="#fff" opacity="0.95"/><circle cx="1000" cy="150" r="26" fill="#fff" opacity="0.18"/><circle cx="1200" cy="150" r="16" fill="#fff" opacity="0.95"/><circle cx="1200" cy="150" r="26" fill="#fff" opacity="0.18"/><circle cx="1400" cy="150" r="16" fill="#fff" opacity="0.95"/><circle cx="1400" cy="150" r="26" fill="#fff" opacity="0.18"/>
  <rect y="360" width="430" height="707" fill="#00aa3c"/>
  <rect x="430" y="360" width="70" height="707" fill="#1be349" opacity="0.5"/>
  <rect x="500" y="360" width="640" height="707" fill="#ff5c38"/>
  <rect x="1140" y="360" width="460" height="707" fill="#ff8e0a"/>
  <rect x="70" y="430" width="300" height="360" rx="10" fill="#f4e9e1" opacity="0.85"/>
  <rect x="86" y="446" width="268" height="328" rx="6" fill="#fff" opacity="0.5"/>
  <rect x="1180" y="430" width="120" height="44" rx="6" fill="#fff"/><text x="1240" y="460" font-family="Arial,sans-serif" font-weight="800" font-size="26" text-anchor="middle" fill="#000">GYM</text>
  <rect y="820" width="1600" height="247" fill="#f4e9e1"/>
  <g transform="translate(560,720)"><rect width="150" height="150" rx="6" fill="#fff" stroke="#ffb200" stroke-width="5"/><rect x="45" y="60" width="60" height="33" rx="6" fill="none" stroke="#ffb200" stroke-width="3"/></g><g transform="translate(720,720)"><rect width="150" height="150" rx="6" fill="#fff" stroke="#ffb200" stroke-width="5"/><rect x="45" y="60" width="60" height="33" rx="6" fill="none" stroke="#ffb200" stroke-width="3"/></g><g transform="translate(880,720)"><rect width="150" height="150" rx="6" fill="#fff" stroke="#ffb200" stroke-width="5"/><rect x="45" y="60" width="60" height="33" rx="6" fill="none" stroke="#ffb200" stroke-width="3"/></g><g transform="translate(1040,720)"><rect width="150" height="150" rx="6" fill="#fff" stroke="#ffb200" stroke-width="5"/><rect x="45" y="60" width="60" height="33" rx="6" fill="none" stroke="#ffb200" stroke-width="3"/></g>
  <g transform="translate(560,870)"><rect width="150" height="150" rx="6" fill="#fff" stroke="#ffb200" stroke-width="5"/><rect x="45" y="60" width="60" height="33" rx="6" fill="none" stroke="#ffb200" stroke-width="3"/></g><g transform="translate(720,870)"><rect width="150" height="150" rx="6" fill="#fff" stroke="#ffb200" stroke-width="5"/><rect x="45" y="60" width="60" height="33" rx="6" fill="none" stroke="#ffb200" stroke-width="3"/></g><g transform="translate(880,870)"><rect width="150" height="150" rx="6" fill="#fff" stroke="#ffb200" stroke-width="5"/><rect x="45" y="60" width="60" height="33" rx="6" fill="none" stroke="#ffb200" stroke-width="3"/></g><g transform="translate(1040,870)"><rect width="150" height="150" rx="6" fill="#fff" stroke="#ffb200" stroke-width="5"/><rect x="45" y="60" width="60" height="33" rx="6" fill="none" stroke="#ffb200" stroke-width="3"/></g>
  <g transform="translate(560,900)"><ellipse cx="0" cy="0" rx="20" ry="7" fill="#c79dfc"/><path d="M-12 4 L-16 44 M12 4 L16 44 M0 6 L0 46" stroke="#004e9b" stroke-width="3" fill="none"/></g><g transform="translate(980,930)"><ellipse cx="0" cy="0" rx="20" ry="7" fill="#0072e3"/><path d="M-12 4 L-16 44 M12 4 L16 44 M0 6 L0 46" stroke="#004e9b" stroke-width="3" fill="none"/></g><g transform="translate(1320,900)"><ellipse cx="0" cy="0" rx="20" ry="7" fill="#c79dfc"/><path d="M-12 4 L-16 44 M12 4 L16 44 M0 6 L0 46" stroke="#004e9b" stroke-width="3" fill="none"/></g>
  <g transform="translate(360,640) scale(2.1)" fill="#000"><circle cx="0" cy="-26" r="9"/><path d="M-12 -12 q12 -10 24 0 l3 30 q-15 6 -30 0 z"/></g><g transform="translate(1230,660) scale(2)" fill="#004e9b"><circle cx="0" cy="-26" r="9"/><path d="M-12 -12 q12 -10 24 0 l3 30 q-15 6 -30 0 z"/></g>
  <g transform="translate(1120,820) scale(2.2)"><path d="M0 0 q-14 -22 -6 -40 q10 8 6 40" fill="#00aa3c"/><path d="M0 0 q14 -22 6 -40 q-10 8 -6 40" fill="#1be349"/><path d="M0 2 q-2 -30 0 -46 q2 16 0 46" stroke="#00aa3c" stroke-width="2" fill="none"/><rect x="-7" y="0" width="14" height="12" rx="2" fill="#ff5c38"/></g><g transform="translate(470,820) scale(1.8)"><path d="M0 0 q-14 -22 -6 -40 q10 8 6 40" fill="#00aa3c"/><path d="M0 0 q14 -22 6 -40 q-10 8 -6 40" fill="#1be349"/><path d="M0 2 q-2 -30 0 -46 q2 16 0 46" stroke="#00aa3c" stroke-width="2" fill="none"/><rect x="-7" y="0" width="14" height="12" rx="2" fill="#ff5c38"/></g>
  <rect x="0" y="0" width="1600" height="1067" fill="#000" opacity="0.12"/>
  </svg>