<svg xmlns="http://www.w3.org/2000/svg" viewBox="0 0 1024 683" preserveAspectRatio="xMidYMid slice">
  <rect width="1024" height="230" fill="#0072e3"/><rect x="6" y="6" width="158.66666666666666" height="64.66666666666667" rx="4" fill="#004e9b" opacity="0.55"/><rect x="176.66666666666666" y="6" width="158.66666666666666" height="64.66666666666667" rx="4" fill="#004e9b" opacity="0.55"/><rect x="347.3333333333333" y="6" width="158.66666666666666" height="64.66666666666667" rx="4" fill="#004e9b" opacity="0.55"/><rect x="518" y="6" width="158.66666666666666" height="64.66666666666667" rx="4" fill="#004e9b" opacity="0.55"/><rect x="688.6666666666666" y="6" width="158.66666666666666" height="64.66666666666667" rx="4" fill="#004e9b" opacity="0.55"/><rect x="859.3333333333333" y="6" width="158.66666666666666" height="64.66666666666667" rx="4" fill="#004e9b" opacity="0.55"/><rect x="6" y="82.66666666666667" width="158.66666666666666" height="64.66666666666667" rx="4" fill="#004e9b" opacity="0.55"/><rect x="176.66666666666666" y="82.66666666666667" width="158.66666666666666" height="64.66666666666667" rx="4" fill="#004e9b" opacity="0.55"/><rect x="347.3333333333333" y="82.66666666666667" width="158.66666666666666" height="64.66666666666667" rx="4" fill="#004e9b" opacity="0.55"/><rect x="518" y="82.66666666666667" width="158.66666666666666" height="64.66666666666667" rx="4" fill="#004e9b" opacity="0.55"/><rect x="688.6666666666666" y="82.66666666666667" width="158.66666666666666" height="64.66666666666667" rx="4" fill="#004e9b" opacity="0.55"/><rect x="859.3333333333333" y="82.66666666666667" width="158.66666666666666" height="64.66666666666667" rx="4" fill="#004e9b" opacity="0.55"/><rect x="6" y="159.33333333333334" width="158.66666666666666" height="64.66666666666667" rx="4" fill="#004e9b" opacity="0.55"/><rect x="176.66666666666666" y="159.33333333333334" width="158.66666666666666" height="64.66666666666667" rx="4" fill="#004e9b" opacity="0.55"/><rect x="347.3333333333333" y="159.33333333333334" width="158.66666666666666" height="64.66666666666667" rx="4" fill="#004e9b" opacity="0.55"/><rect x="518" y="159.33333333333334" width="158.66666666666666" height="64.66666666666667" rx="4" fill="#004e9b" opacity="0.55"/><rect x="688.6666666666666" y="159.33333333333334" width="158.66666666666666" height="64.66666666666667" rx="4" fill="#004e9b" opacity="0.55"/><rect x="859.3333333333333" y="159.33333333333334" width="158.66666666666666" height="64.66666666666667" rx="4" fill="#004e9b" opacity="0.55"/><circle cx="170.66666666666666" cy="100" r="16" fill="#fff" opacity="0.95"/><circle cx="170.66666666666666" cy="100" r="26" fill="#fff" opacity="0.18"/><circle cx="341.3333333333333" cy="100" r="16" fill="#fff" opacity="0.95"/><circle cx="341.3333333333333" cy="100" r="26" fill="#fff" opacity="0.18"/><circle cx="512" cy="100" r="16" fill="#fff" opacity="0.95"/><circle cx="512" cy="100" r="26" fill="#fff" opacity="0.18"/><circle cx="682.6666666666666" cy="100" r="16" fill="#fff" opacity="0.95"/><circle cx="682.6666666666666" cy="100" r="26" fill="#fff" opacity="0.18"/><circle cx="853.3333333333333" cy="100" r="16" fill="#fff" opacity="0.95"/><circle cx="853.3333333333333" cy="100" r="26" fill="#fff" opacity="0.18"/>
  <rect y="230" width="280" height="453" fill="#00aa3c"/>
  <rect x="280" y="230" width="380" height="453" fill="#ff5c38"/>
  <rect x="660" y="230" width="364" height="453" fill="#0072e3"/>
  <rect y="540" width="1024" height="143" fill="#f4e9e1"/>
  <g transform="translate(330,470)"><rect width="120" height="120" rx="6" fill="#fff" stroke="#ffb200" stroke-width="5"/><rect x="36" y="48" width="48" height="26.4" rx="6" fill="none" stroke="#ffb200" stroke-width="3"/></g><g transform="translate(460,470)"><rect width="120" height="120" rx="6" fill="#fff" stroke="#ffb200" stroke-width="5"/><rect x="36" y="48" width="48" height="26.4" rx="6" fill="none" stroke="#ffb200" stroke-width="3"/></g><g transform="translate(590,470)"><rect width="120" height="120" rx="6" fill="#fff" stroke="#ffb200" stroke-width="5"/><rect x="36" y="48" width="48" height="26.4" rx="6" fill="none" stroke="#ffb200" stroke-width="3"/></g>
  <g transform="translate(360,600)"><ellipse cx="0" cy="0" rx="20" ry="7" fill="#ffdb08"/><path d="M-12 4 L-16 44 M12 4 L16 44 M0 6 L0 46" stroke="#004e9b" stroke-width="3" fill="none"/></g><g transform="translate(560,610)"><ellipse cx="0" cy="0" rx="20" ry="7" fill="#c79dfc"/><path d="M-12 4 L-16 44 M12 4 L16 44 M0 6 L0 46" stroke="#004e9b" stroke-width="3" fill="none"/></g>
  <g transform="translate(720,470) scale(1.7)" fill="#fff"><circle cx="0" cy="-26" r="9"/><path d="M-12 -12 q12 -10 24 0 l3 30 q-15 6 -30 0 z"/></g><g transform="translate(250,560) scale(1.6)"><path d="M0 0 q-14 -22 -6 -40 q10 8 6 40" fill="#00aa3c"/><path d="M0 0 q14 -22 6 -40 q-10 8 -6 40" fill="#1be349"/><path d="M0 2 q-2 -30 0 -46 q2 16 0 46" stroke="#00aa3c" stroke-width="2" fill="none"/><rect x="-7" y="0" width="14" height="12" rx="2" fill="#ff5c38"/></g>
  </svg>