<svg width="129" height="21" viewBox="0 0 129 21" fill="none" xmlns="http://www.w3.org/2000/svg">
<rect x="3" width="12" height="4" fill="white"/>
<rect x="15" y="4" width="12" height="4" fill="white"/>
<rect x="27" width="24" height="4" fill="white"/>
<rect x="51" y="4" width="72" height="4" fill="white"/>
<path d="M3 18.12C2.57333 18.12 2.20667 18.04 1.9 17.88C1.59333 17.7133 1.34 17.4767 1.14 17.17C0.94 16.8633 0.793333 16.4867 0.7 16.04C0.606667 15.5933 0.56 15.0833 0.56 14.51C0.56 13.9433 0.606667 13.4367 0.7 12.99C0.793333 12.5367 0.94 12.1567 1.14 11.85C1.34 11.5433 1.59333 11.31 1.9 11.15C2.20667 10.9833 2.57333 10.9 3 10.9C3.42667 10.9 3.79333 10.9833 4.1 11.15C4.40667 11.31 4.66 11.5433 4.86 11.85C5.06 12.1567 5.20667 12.5367 5.3 12.99C5.39333 13.4367 5.44 13.9433 5.44 14.51C5.44 15.0833 5.39333 15.5933 5.3 16.04C5.20667 16.4867 5.06 16.8633 4.86 17.17C4.66 17.4767 4.40667 17.7133 4.1 17.88C3.79333 18.04 3.42667 18.12 3 18.12ZM3 17.39C3.28 17.39 3.52 17.3367 3.72 17.23C3.92 17.1167 4.08 16.96 4.2 16.76C4.32667 16.56 4.42 16.32 4.48 16.04C4.54 15.7533 4.57 15.4333 4.57 15.08V13.94C4.57 13.5933 4.54 13.2767 4.48 12.99C4.42 12.7033 4.32667 12.46 4.2 12.26C4.08 12.06 3.92 11.9067 3.72 11.8C3.52 11.6867 3.28 11.63 3 11.63C2.72 11.63 2.48 11.6867 2.28 11.8C2.08 11.9067 1.91667 12.06 1.79 12.26C1.67 12.46 1.58 12.7033 1.52 12.99C1.46 13.2767 1.43 13.5933 1.43 13.94V15.08C1.43 15.4333 1.46 15.7533 1.52 16.04C1.58 16.32 1.67 16.56 1.79 16.76C1.91667 16.96 2.08 17.1167 2.28 17.23C2.48 17.3367 2.72 17.39 3 17.39ZM3 15.1C2.76667 15.1 2.60333 15.0533 2.51 14.96C2.42333 14.8667 2.38 14.7533 2.38 14.62V14.4C2.38 14.2667 2.42333 14.1533 2.51 14.06C2.60333 13.9667 2.76667 13.92 3 13.92C3.23333 13.92 3.39333 13.9667 3.48 14.06C3.57333 14.1533 3.62 14.2667 3.62 14.4V14.62C3.62 14.7533 3.57333 14.8667 3.48 14.96C3.39333 15.0533 3.23333 15.1 3 15.1Z" fill="white"/>
<path d="M15.78 18V16.63H12.34V15.89L15.36 11.02H16.58V15.94H17.62V16.63H16.58V18H15.78ZM13.09 15.94H15.78V11.67H15.74L13.09 15.94Z" fill="white"/>
<path d="M27 18.12C26.5933 18.12 26.2367 18.07 25.93 17.97C25.6233 17.8633 25.3667 17.72 25.16 17.54C24.96 17.36 24.8067 17.1467 24.7 16.9C24.6 16.6533 24.55 16.3867 24.55 16.1C24.55 15.62 24.68 15.24 24.94 14.96C25.2 14.68 25.5433 14.4833 25.97 14.37V14.29C25.5967 14.1633 25.3 13.96 25.08 13.68C24.8667 13.3933 24.76 13.05 24.76 12.65C24.76 12.1167 24.9567 11.6933 25.35 11.38C25.7433 11.06 26.2933 10.9 27 10.9C27.7067 10.9 28.2567 11.06 28.65 11.38C29.0433 11.6933 29.24 12.1167 29.24 12.65C29.24 13.05 29.13 13.3933 28.91 13.68C28.6967 13.96 28.4033 14.1633 28.03 14.29V14.37C28.4567 14.4833 28.8 14.68 29.06 14.96C29.32 15.24 29.45 15.62 29.45 16.1C29.45 16.3867 29.3967 16.6533 29.29 16.9C29.19 17.1467 29.0367 17.36 28.83 17.54C28.6233 17.72 28.3667 17.8633 28.06 17.97C27.76 18.07 27.4067 18.12 27 18.12ZM27 17.41C27.4933 17.41 27.88 17.3 28.16 17.08C28.44 16.86 28.58 16.55 28.58 16.15V15.93C28.58 15.53 28.44 15.22 28.16 15C27.8867 14.78 27.5 14.67 27 14.67C26.5 14.67 26.11 14.78 25.83 15C25.5567 15.22 25.42 15.53 25.42 15.93V16.15C25.42 16.55 25.56 16.86 25.84 17.08C26.12 17.3 26.5067 17.41 27 17.41ZM27 13.99C27.4533 13.99 27.7967 13.8933 28.03 13.7C28.27 13.5067 28.39 13.23 28.39 12.87V12.73C28.39 12.37 28.2667 12.0933 28.02 11.9C27.78 11.7067 27.44 11.61 27 11.61C26.56 11.61 26.2167 11.7067 25.97 11.9C25.73 12.0933 25.61 12.37 25.61 12.73V12.87C25.61 13.23 25.7267 13.5067 25.96 13.7C26.2 13.8933 26.5467 13.99 27 13.99Z" fill="white"/>
<path d="M45.85 18V17.27H47.85V11.64H47.78L46.02 13.28L45.53 12.75L47.38 11.02H48.69V17.27H50.53V18H45.85ZM53.7061 18.12C53.3394 18.12 53.0094 18.06 52.7161 17.94C52.4228 17.8133 52.1728 17.6367 51.9661 17.41C51.7661 17.1767 51.6094 16.8933 51.4961 16.56C51.3894 16.2267 51.3361 15.8533 51.3361 15.44C51.3361 14.92 51.4128 14.4333 51.5661 13.98C51.7261 13.52 51.9261 13.1033 52.1661 12.73C52.4128 12.35 52.6861 12.0167 52.9861 11.73C53.2861 11.4367 53.5794 11.2 53.8661 11.02H54.9461C54.5661 11.2933 54.2261 11.56 53.9261 11.82C53.6328 12.08 53.3728 12.3533 53.1461 12.64C52.9194 12.92 52.7294 13.2233 52.5761 13.55C52.4228 13.87 52.2961 14.2333 52.1961 14.64L52.2461 14.66C52.4128 14.3733 52.6328 14.1367 52.9061 13.95C53.1794 13.7567 53.5328 13.66 53.9661 13.66C54.2728 13.66 54.5528 13.71 54.8061 13.81C55.0594 13.91 55.2794 14.0533 55.4661 14.24C55.6528 14.4267 55.7961 14.6533 55.8961 14.92C56.0028 15.1867 56.0561 15.4833 56.0561 15.81C56.0561 16.15 55.9994 16.4633 55.8861 16.75C55.7728 17.03 55.6128 17.2733 55.4061 17.48C55.2061 17.68 54.9594 17.8367 54.6661 17.95C54.3794 18.0633 54.0594 18.12 53.7061 18.12ZM53.6961 17.41C54.1761 17.41 54.5461 17.28 54.8061 17.02C55.0728 16.76 55.2061 16.3933 55.2061 15.92V15.84C55.2061 15.3667 55.0728 15 54.8061 14.74C54.5461 14.48 54.1761 14.35 53.6961 14.35C53.2161 14.35 52.8428 14.48 52.5761 14.74C52.3161 15 52.1861 15.3667 52.1861 15.84V15.92C52.1861 16.3933 52.3161 16.76 52.5761 17.02C52.8428 17.28 53.2161 17.41 53.6961 17.41Z" fill="white"/>
<path d="M119.7 13.98C120.187 13.98 120.55 13.8733 120.79 13.66C121.037 13.44 121.16 13.16 121.16 12.82V12.75C121.16 12.3767 121.04 12.0967 120.8 11.91C120.567 11.7233 120.26 11.63 119.88 11.63C119.507 11.63 119.203 11.7133 118.97 11.88C118.743 12.04 118.557 12.2533 118.41 12.52L117.78 12.04C117.867 11.9 117.973 11.7633 118.1 11.63C118.227 11.49 118.373 11.3667 118.54 11.26C118.713 11.1533 118.91 11.0667 119.13 11C119.357 10.9333 119.613 10.9 119.9 10.9C120.2 10.9 120.48 10.94 120.74 11.02C121 11.0933 121.227 11.2067 121.42 11.36C121.613 11.5067 121.763 11.69 121.87 11.91C121.983 12.13 122.04 12.38 122.04 12.66C122.04 12.8867 122.003 13.09 121.93 13.27C121.863 13.45 121.767 13.6067 121.64 13.74C121.52 13.8733 121.377 13.9867 121.21 14.08C121.043 14.1733 120.867 14.2433 120.68 14.29V14.33C120.873 14.37 121.06 14.4367 121.24 14.53C121.42 14.6167 121.58 14.7333 121.72 14.88C121.86 15.02 121.97 15.1933 122.05 15.4C122.137 15.6 122.18 15.83 122.18 16.09C122.18 16.39 122.12 16.6667 122 16.92C121.887 17.1667 121.723 17.38 121.51 17.56C121.303 17.7333 121.05 17.87 120.75 17.97C120.457 18.07 120.13 18.12 119.77 18.12C119.463 18.12 119.19 18.0867 118.95 18.02C118.717 17.9533 118.507 17.8633 118.32 17.75C118.14 17.6367 117.98 17.51 117.84 17.37C117.707 17.23 117.587 17.0833 117.48 16.93L118.11 16.45C118.203 16.59 118.3 16.7167 118.4 16.83C118.5 16.9433 118.613 17.0433 118.74 17.13C118.873 17.21 119.023 17.2733 119.19 17.32C119.357 17.3667 119.55 17.39 119.77 17.39C120.263 17.39 120.64 17.2767 120.9 17.05C121.167 16.8233 121.3 16.5 121.3 16.08V16C121.3 15.5867 121.17 15.2667 120.91 15.04C120.657 14.8133 120.273 14.7 119.76 14.7H118.93V13.98H119.7ZM128.066 18H123.406V17.14L125.736 15.04C126.076 14.7333 126.356 14.42 126.576 14.1C126.796 13.7733 126.906 13.43 126.906 13.07V12.95C126.906 12.53 126.796 12.2067 126.576 11.98C126.356 11.7467 126.029 11.63 125.596 11.63C125.169 11.63 124.839 11.74 124.606 11.96C124.379 12.1733 124.209 12.46 124.096 12.82L123.346 12.54C123.413 12.3333 123.503 12.1333 123.616 11.94C123.736 11.74 123.886 11.5633 124.066 11.41C124.246 11.2567 124.463 11.1333 124.716 11.04C124.976 10.9467 125.276 10.9 125.616 10.9C125.963 10.9 126.269 10.95 126.536 11.05C126.809 11.15 127.036 11.29 127.216 11.47C127.403 11.65 127.543 11.8633 127.636 12.11C127.736 12.3567 127.786 12.6267 127.786 12.92C127.786 13.1867 127.746 13.4367 127.666 13.67C127.593 13.9033 127.486 14.1267 127.346 14.34C127.213 14.5533 127.049 14.7633 126.856 14.97C126.669 15.17 126.459 15.37 126.226 15.57L124.276 17.27H128.066V18Z" fill="white"/>
</svg>
