<svg width="2401" height="708" viewBox="0 0 2401 708" fill="none" xmlns="http://www.w3.org/2000/svg">
<path d="M265.234 4.00381C265.409 3.98559 265.586 4.03327 265.733 4.1337C265.879 4.23409 265.982 4.38039 266.027 4.53897C266.298 5.51063 266.565 6.47851 266.83 7.44815C266.994 8.04753 267.159 8.64893 267.321 9.24502C267.42 9.61251 267.517 9.97908 267.616 10.3417C267.8 11.0267 267.987 11.7234 268.169 12.413C268.241 12.6843 268.312 12.9556 268.384 13.2265C268.552 13.8608 268.72 14.5054 268.886 15.1435C268.887 15.1471 268.888 15.1506 268.889 15.1542C268.971 15.468 269.052 15.7813 269.133 16.0907C269.38 17.0463 269.623 17.9917 269.865 18.955C269.994 19.4637 270.124 20.0026 270.254 20.5321C270.326 20.8274 270.399 21.1222 270.47 21.411C270.508 21.5689 270.547 21.7288 270.585 21.8896C271.483 25.5811 272.335 29.2112 273.148 32.8398C273.964 36.5112 274.746 40.2567 275.481 43.9013C276.214 47.5217 276.918 51.2894 277.578 54.9862C281.771 78.4057 284.677 102.399 285.687 126.35C285.832 129.814 285.933 133.354 285.996 136.76C286.06 140.196 286.08 143.692 286.059 147.143C286.053 148.198 286.043 149.268 286.027 150.378C285.915 157.976 283.599 165.077 282.409 172.457C294.345 156.021 306.607 139.785 319.481 124.006C336.05 103.778 352.95 83.9634 371.305 64.7958C380.68 55.0759 389.747 46.0935 400.679 36.9442C405.592 32.8834 411.648 28.1763 418.134 24.3886C421.975 22.2218 424.315 20.8897 429.809 19.1132C432.329 18.3804 434.513 17.8905 437.745 17.7685C441.261 17.6554 445.198 18.3305 448.757 20.2265C450.817 21.3217 452.736 22.67 454.44 24.2118C470.927 42.7686 465.274 59.2262 464.035 73.1806C461.644 87.3796 457.691 100.531 453.262 113.465C444.272 139.336 433.224 163.798 421.289 187.857C406.379 216.899 391.203 245.598 373.502 273.022C383.854 276.071 393.789 281.123 402.365 287.855C402.421 287.9 402.478 287.944 402.534 287.988C407.132 291.604 411.357 295.693 415.096 300.117C420.569 306.6 425.104 313.887 428.462 321.711C452.939 313.364 478.083 306.58 504.874 303.224C519.714 292.524 536.144 283.95 553.869 277.975C571.355 273.166 591.29 266.447 613.812 280.367C625.163 288.192 628.379 303.772 626.965 313.855C625.802 324.599 622.27 333.588 618.246 342.154C611 357.409 604.238 372.576 598.805 387.996C596.132 395.658 593.805 403.39 592.556 410.61C591.935 414.227 591.629 417.686 591.819 420.41C591.901 421.685 592.131 422.837 592.348 423.419C592.382 423.513 592.415 423.592 592.443 423.657C592.459 423.662 592.477 423.667 592.495 423.672C592.887 423.774 593.887 423.877 595.071 423.802C597.566 423.666 600.899 422.902 604.314 421.778C611.161 419.521 618.41 416.05 625.582 412.198C639.652 404.595 653.833 395.316 667.589 385.779C676.036 379.884 684.344 373.85 692.326 367.588C692.648 365.491 693.042 363.598 693.421 361.751C694.746 355.89 696.193 350.564 698.478 341.759C699.716 337.085 701.225 331.396 703.518 324.759C704.419 322.152 705.478 319.324 706.678 316.434C706.708 316.63 706.781 316.708 706.848 316.742C707.373 316.932 711.338 308.557 717.005 300.767C719.351 297.544 721.808 294.599 724.691 292.003C727.084 290.151 729.149 287.342 736.402 285.804C744.377 284.478 756.268 287.514 761.688 297.965C766.765 308.276 763.856 317.655 761.472 324.076C758.677 331.046 755.105 336.333 750.701 341.989C746.723 347.027 742.049 352.186 735.816 358.345C732.191 361.914 729.334 364.37 726.931 366.405C725.232 367.837 723.725 369.076 722.329 370.276C721.073 371.356 720.341 372.189 719.378 373.239C718.994 373.659 718.587 374.1 718.126 374.576C718.173 377.844 718.476 380.96 719.086 383.847C721.236 392.501 724.154 395.647 731.484 397.176C759.83 398.531 795.147 378.378 824.493 355.135C826.93 341.139 831.991 327.36 838.711 313.301C843.166 304.27 848.226 295.27 855.434 286.267C859.231 281.792 862.923 277.176 870.516 272.949C874.287 270.996 881.206 268.403 889.043 271.915C896.623 275.77 898.604 280.825 900.357 284.828C906.111 304.292 897.246 315.383 891.584 325.561C885.102 335.611 877.69 344.126 869.802 352.261C863.265 358.839 856.85 364.731 850.216 370.238C850.206 373.039 850.504 375.665 851.034 377.431C851.423 378.733 851.804 379.433 852.105 379.822C852.139 379.825 852.174 379.83 852.211 379.833C852.975 379.908 854.654 379.832 856.237 379.579C859.814 379.029 863.857 377.843 868.089 376.305C895.745 365.528 922.913 347.631 947.96 328.674C949.075 326.263 950.213 323.866 951.373 321.464C959.912 304.53 968.416 287.272 984.609 264.554C988.702 259.269 992.844 253.549 1000.73 247.995C1003.17 246.403 1005.76 244.922 1009.63 243.945C1013.42 242.954 1018.9 243.031 1023.51 245.401C1027.56 247.382 1031.79 250.885 1034.13 256.209C1036.39 261.322 1036.27 266.35 1035.61 270.197C1034.22 277.656 1031.1 283.035 1028.25 287.623C1025.17 292.425 1022.2 295.993 1019.37 299.234C1016.07 302.991 1012.92 306.274 1009.21 310.169C996.283 323.648 982.685 335.304 970.159 345.273C968.594 349.245 967.111 353.231 965.729 357.216C965.048 359.188 964.392 361.169 963.766 363.145C966.187 360.245 968.657 357.3 971.199 354.365C981.77 342.262 993.201 329.899 1008.76 320.37C1025.28 309.105 1052.98 306.48 1071.27 318.6C1094.36 329.953 1132.8 327.593 1159.5 316.413C1166.13 313.509 1172.14 309.558 1175.31 305.472C1175.48 305.256 1175.63 305.042 1175.78 304.833C1174.27 304.978 1172.78 305.084 1171.31 305.145C1156.67 305.939 1136.75 301.654 1123.96 285.646C1117.75 277.785 1113.36 268.017 1113.8 256.103C1114.15 250.24 1115.78 243.165 1121.75 237.133C1127.7 230.95 1137.24 229.378 1143.42 230.479C1153.34 232.15 1159.45 236.366 1165.25 240.533C1176.47 249.63 1189.21 258.988 1197.12 272.559C1236.45 261.123 1277.98 247.453 1319.55 243.859C1331.26 242.287 1342.22 243.737 1352.37 246.932C1361.98 232.328 1372.4 217.973 1392.34 207.889C1431.77 198.308 1456.94 223.962 1472.52 238.793C1478.29 244.885 1483.61 251.525 1488.37 259.489C1492.35 266.328 1496.23 274.063 1497.91 284.374C1499.93 293.959 1496.82 310.855 1483.67 318.557C1472.26 326.317 1453.41 332.146 1434.87 326.214C1416.58 320.744 1401.4 308.507 1385.15 296.307C1376.58 289.66 1368.12 283.741 1359.83 279.201C1333.79 317.303 1310.17 362.928 1284.43 407.761C1407.68 377.658 1532.88 354.788 1657.2 333.523C1788.49 311.563 1920.41 292.869 2052.19 276.283C2110.77 268.912 2168.4 262.089 2225.88 255.632C2269.41 250.74 2312.19 246.135 2355.8 241.615C2361.87 240.986 2367.73 240.52 2372.07 240.326C2376.42 240.133 2378.9 240.226 2378.93 240.598C2378.96 240.97 2376.54 241.598 2372.25 242.351C2367.95 243.105 2362.12 243.922 2356.06 244.637C2312.17 249.801 2269.07 255.06 2225.3 260.6C2177.92 266.603 2128.65 273.085 2080.57 279.704C2072.7 279.19 2061.99 279.417 2042.48 281.507C2032.43 282.586 2018.45 284.366 2007.48 286.156C1997.73 287.748 1990.48 289.21 1983.63 290.6C1976.46 292.055 1969.69 293.437 1960.97 294.819C1946.12 297.175 1932.63 299.76 1917.39 302.659C1911.95 303.7 1906.43 304.763 1900.76 305.836C1855.22 312.831 1808.8 320.264 1763.2 327.934C1745.21 330.671 1728.98 333.214 1715.4 335.547C1703.5 337.592 1691.52 339.949 1680.34 342.276C1673.21 343.547 1666.13 344.818 1659.11 346.091C1613.72 354.311 1567.8 363.041 1522.36 372.212C1486.78 378.757 1449.3 385.903 1401.23 396.223C1380.63 400.651 1359.38 405.232 1340.4 409.45C1316.35 414.811 1294.5 419.892 1274.38 425.013C1258.35 452.052 1241.33 478.405 1222.29 502.202C1209.89 517.837 1196.44 533.134 1180.05 546.086C1139.19 577.931 1092.76 601.597 1043.5 616.824C1018.87 624.286 993.354 629.791 966.9 630.854C953.691 631.275 940.097 630.749 926.19 626.837C913.046 623.344 895.163 613.254 892.273 594.247C889.773 564.701 911.029 550.355 925.834 538.02C942.545 525.588 958.628 516.812 976.748 507.784C1011.46 490.775 1047.59 477.138 1084.24 464.619C1138.53 446.697 1193.52 430.879 1248.97 416.642C1254.23 408.875 1259.5 400.827 1264.83 392.35C1274.39 377.175 1285.99 357.01 1300.98 330.828C1311.01 313.445 1322.38 293.277 1336.74 270.564C1332.07 269.777 1327.47 269.684 1322.96 270.423C1285.56 274.588 1256.37 282.72 1229.58 290.928C1220.68 293.558 1212.37 295.974 1204.67 298.19C1204.68 298.429 1204.7 298.669 1204.71 298.909C1204.33 313.797 1194.79 324.76 1187.19 330.618C1179.27 336.777 1171.65 340.165 1165.29 342.683C1154.83 346.721 1143.83 349.393 1131.81 351.064C1111.06 352.992 1088.19 356.676 1057.56 341.989C1047.05 335.982 1036.31 335.506 1022.46 344.089C1008.99 352.636 998.389 364.961 988.931 376.081C984.166 381.729 979.702 387.296 974.825 392.833C972.246 395.716 969.845 398.402 966.227 401.526C964.284 403.125 962.232 404.871 958.35 406.6C955.98 407.544 953.573 408.475 949.05 408.256C944.756 408.025 940.316 405.833 937.626 403.139C935.443 401.034 934.076 398.67 933.234 396.674C932.531 395.004 932.112 393.453 931.824 391.991C931.318 389.347 931.253 387.226 931.257 385.37C931.297 381.706 931.696 378.699 932.179 375.73C932.387 374.505 932.611 373.318 932.846 372.158C930.72 373.527 928.76 374.76 926.986 375.847C909.81 386.113 891.547 397.567 868.117 404.61C860.033 406.172 851.029 410.562 836.83 402.423C831.226 398.189 827.865 393.246 825.866 388.19C820.931 391.44 815.737 394.674 810.186 397.967C795.064 406.44 777.867 416.266 752.058 421.866C743.646 423.461 735.34 424.242 726.708 422.81C720.236 421.724 713.802 419.228 708.461 415.163C700.593 409.119 696.277 401.294 693.981 393.551C690.896 395.872 687.835 398.173 684.724 400.469C683.21 401.584 681.654 402.719 680.045 403.875C674.401 407.93 668.681 411.889 662.182 415.918C659.628 417.5 656.561 419.299 653.859 420.831C651.104 422.393 647.95 424.15 645.626 425.467C635.737 431.069 626.388 436.394 616.907 440.478C610.496 443.181 604.16 445.431 596.882 446.029C590.334 446.597 583.311 445.211 578.438 441.477C573.553 437.763 571.652 433.645 570.457 430.754C569.241 427.611 568.769 425.138 568.516 422.813C568.344 420.647 568.353 418.418 568.453 416.496C568.566 414.639 568.771 412.793 568.96 411.164C568.975 411.037 568.988 410.913 569.003 410.787C570.519 400.326 573.495 391.286 576.636 382.542C582.954 365.374 590.519 349.363 598.487 332.621C599.521 330.456 600.426 328.375 601.201 326.387C602.718 322.507 603.764 318.604 604.284 314.969C604.981 310.292 604.714 306.028 603.699 303.142C602.411 296.831 591.142 293.285 578.662 294.613C568.012 295.616 557.271 298.706 547.227 303.012C555.796 305.605 564.295 310.109 570.691 317.858C579.312 328.19 581.358 341.868 580.464 353.331C578.385 376.715 568.351 396.667 557.069 414.914C532.602 449.202 506.169 488.609 452.826 491.966C444.939 491.123 435.984 488.837 428.49 482.38C420.923 475.974 417.254 466.193 416.42 457.901C414.876 440.976 419.466 426.833 424.357 413.353C434.797 386.564 449.028 362.685 466.311 340.102C470.037 335.423 473.963 330.92 478.076 326.609C476.76 326.94 475.452 327.276 474.157 327.615C460.612 330.976 447.126 334.784 433.724 338.957C434.354 342.33 434.771 345.758 434.957 349.226C435.102 351.983 435.098 354.786 434.928 357.603C434.525 364.327 432.955 371.191 430.749 377.788C429.096 382.759 426.932 387.918 424.707 392.554C423.466 395.147 422.076 397.842 420.728 400.316C386.789 458.274 336.128 503.441 278.761 537.73C258.787 548.92 237.528 559.123 213.683 561.675C208.797 562.136 203.571 562.141 198.39 561.374C197.197 564.966 195.967 568.553 194.691 572.133C188.62 589.101 181.638 605.856 173.02 621.938C164.326 637.991 154.144 653.643 140.017 666.684C139.061 667.558 138.094 668.41 137.116 669.239C112.35 691.745 66.3867 708.546 34.3265 679.522C3.79838 651.273 7.09033 605.565 22.2835 573.366C42.0573 531.76 65.9177 492.616 89.429 453.806C97.9428 439.892 106.749 425.774 115.543 411.886C124.316 398.032 133.064 384.418 142.15 370.489C144.925 366.233 147.686 362.018 150.599 357.594C174.145 321.831 199.754 289.435 224.589 254.422C234.626 240.297 244.55 226.007 254.545 211.715C254.498 210.626 254.462 209.353 254.448 207.832C254.412 203.888 254.664 200.509 254.836 198.042C254.925 196.77 254.999 195.709 255.005 194.889C255.016 193.492 255.075 191.738 255.122 190.039C255.198 187.371 255.26 184.659 255.144 183.103C255.103 182.55 255.042 181.967 254.977 181.336C254.795 179.599 254.569 177.548 254.565 174.689C254.559 171.69 254.863 169.834 255.361 167.973C255.563 167.21 256.194 166.567 256.844 165.9C257.767 164.955 258.728 163.96 258.554 162.512C258.513 162.173 258.397 161.808 258.275 161.425C258.05 160.725 257.807 159.947 257.978 159.219C258.038 158.961 258.21 158.741 258.378 158.525C258.563 158.288 258.745 158.055 258.77 157.78C258.864 156.753 258.88 155.745 258.893 154.848C258.91 153.69 258.922 152.714 259.091 152.116C259.392 151.052 259.229 149.846 259.059 148.647C258.928 147.743 258.795 146.828 258.865 145.947C259.065 143.444 258.779 139.878 258.185 136.283C257.96 134.93 258.355 133.797 258.858 132.334C259.171 131.424 259.526 130.385 259.796 129.082C259.949 128.343 259.639 127.706 259.352 127.117C259.087 126.574 258.841 126.067 258.993 125.575C259.128 125.137 259.676 124.866 260.196 124.608C260.774 124.322 261.318 124.051 261.22 123.583C261.168 123.333 260.9 123.026 260.582 122.662C260.457 122.518 260.323 122.365 260.192 122.202C260.302 122.212 260.4 122.215 260.475 122.216C261.002 122.223 261.285 121.749 261.563 121.281C261.674 121.095 261.783 120.908 261.908 120.756C262.364 120.194 262.448 119.119 262.434 118.294C262.428 117.945 262.593 117.629 262.786 117.26C262.958 116.932 263.151 116.562 263.265 116.089C263.33 115.819 263.484 115.612 263.613 115.44C263.705 115.316 263.785 115.21 263.806 115.112C263.824 115.027 263.673 114.958 263.503 114.88C263.381 114.824 263.249 114.763 263.162 114.688C262.956 114.511 262.894 114.279 262.961 114.126C262.992 114.054 263.051 113.998 263.11 113.941C263.178 113.876 263.247 113.81 263.272 113.72C263.383 113.306 263.211 112.902 263.033 112.482C262.836 112.021 262.632 111.54 262.784 111.003C262.832 110.834 262.942 110.653 263.049 110.478C263.161 110.296 263.268 110.118 263.296 109.967C263.412 109.352 263.034 108.774 262.685 108.243C262.453 107.89 262.235 107.556 262.184 107.245C262.09 106.675 261.636 106.371 261.3 106.147C261.126 106.031 260.983 105.937 260.94 105.837C260.952 105.745 260.966 105.652 260.982 105.56C261.014 105.476 261.048 105.39 261.036 105.309C261.036 105.302 261.033 105.296 261.033 105.29C261.138 104.778 261.29 104.273 261.441 103.77C261.779 102.637 262.112 101.529 261.903 100.387C261.858 100.139 261.667 99.8876 261.474 99.6327C261.237 99.3206 260.995 99.0012 261.007 98.6718C261.036 97.8863 261.332 97.0866 261.621 96.2958C262.057 95.1068 262.48 93.9361 261.968 92.8759C261.799 92.526 261.522 92.1867 261.243 91.8466C261.088 91.657 260.931 91.4661 260.793 91.2733C261.042 91.3091 261.274 91.3261 261.492 91.3417C261.939 91.374 262.322 91.402 262.651 91.5829C263.428 92.0105 264.495 92.4914 265.264 92.4189C265.472 92.3991 265.705 92.4066 265.94 92.4149C266.528 92.4359 267.13 92.4569 267.393 92.036C267.57 91.7523 267.973 91.0232 267.513 90.5751C267.413 90.4776 267.217 90.4218 266.999 90.3593C266.609 90.2469 266.146 90.1127 266.029 89.6806C266.009 89.6079 265.99 89.529 265.973 89.4472C265.904 89.1213 265.829 88.7714 265.514 88.6444C265.151 88.4999 264.74 88.544 264.262 88.5946C263.639 88.6607 262.899 88.7383 261.996 88.4315C261.818 88.3707 261.754 88.2473 261.705 88.1542C261.671 88.0888 261.643 88.0388 261.59 88.0351C261.529 88.0312 261.402 88.0556 261.242 88.0868C260.678 88.1972 259.691 88.3888 259.63 87.7001C259.614 87.5137 259.655 87.2984 259.693 87.1054C259.748 86.8211 259.793 86.5846 259.63 86.5575C259.568 86.5475 259.501 86.541 259.432 86.536C259.445 86.3103 259.458 86.0844 259.471 85.8583C259.656 85.5632 259.627 85.1564 259.59 84.6483C259.581 84.525 259.573 84.3949 259.566 84.2597C259.592 83.8114 259.618 83.3618 259.644 82.912C259.714 82.5539 259.835 82.1703 260.033 81.7626C260.431 80.9456 261.108 80.2205 261.768 79.5087C262.046 79.2087 262.323 78.9108 262.574 78.6093C262.61 78.7215 262.651 78.8224 262.706 78.8993C263.084 79.4265 263.795 79.6184 264.45 79.7948C264.886 79.9121 265.297 80.0235 265.567 80.2216C266.06 80.584 266.621 80.5266 267.035 80.4843C267.25 80.4624 267.426 80.4453 267.533 80.4921C267.618 80.53 267.661 80.6229 267.705 80.7187C267.744 80.802 267.784 80.8877 267.854 80.9413C268.699 81.5922 269.17 81.3727 269.855 81.0517C270.232 80.8747 270.676 80.6676 271.283 80.5585C271.926 80.4606 272.116 80.4796 272.385 80.828C272.695 80.5387 273.005 80.2493 273.314 79.9589C273.289 79.85 273.087 79.773 272.751 79.6679C272.152 79.4802 271.912 78.8089 271.723 78.2831C271.636 78.0398 271.559 77.8277 271.464 77.7099C270.957 77.0835 270.292 77.2962 269.706 77.4833C269.385 77.5862 269.087 77.6811 268.853 77.6249C268.753 77.601 268.656 77.6447 268.557 77.6884C268.481 77.7221 268.403 77.7563 268.322 77.7607C267.733 77.7911 267.282 77.4278 266.863 77.0907C266.622 76.8977 266.392 76.7135 266.153 76.6161C266.08 76.5865 266.006 76.5633 265.934 76.5419C265.829 76.5106 265.729 76.4802 265.642 76.4296C265.445 76.312 265.306 76.0716 265.154 75.8085C265.076 75.6735 264.993 75.5329 264.899 75.4003C264.776 75.2284 264.541 75.1735 264.295 75.1161C264.121 75.0756 263.942 75.0336 263.792 74.9482C263.522 74.7934 263.413 74.463 263.312 74.1562C263.268 74.0226 263.224 73.8933 263.17 73.7851C263.148 73.741 263.107 73.7211 263.052 73.7187C262.846 73.2162 262.637 72.7359 262.432 72.2685C261.403 69.923 260.508 67.8919 260.929 64.7333C261.009 64.1371 260.953 63.4953 260.831 62.8632C260.956 60.8503 261.081 58.8205 261.205 56.7773C261.712 56.3443 262.128 55.825 262.442 55.2196C263.031 54.0826 263.101 52.9407 263.181 51.5868C263.24 50.5934 263.303 49.4409 263.587 48.1679C264.064 46.0119 264.435 43.7883 264.524 41.2792C264.613 38.7881 264.589 35.8797 264.498 33.871C264.451 32.7907 264.832 31.6162 265.184 30.5165C265.679 28.9702 266.118 27.5707 265.242 26.8144C264.961 26.573 264.493 26.3567 264.037 26.1464C263.713 25.9965 263.395 25.8484 263.156 25.6972C263.186 25.2361 263.214 24.7735 263.244 24.3105C263.709 23.4518 264.171 22.1344 263.46 20.9608C263.491 20.4803 263.52 19.9934 263.552 19.5321C263.618 18.5461 263.686 17.5771 263.753 16.5966C263.776 16.2765 263.798 15.9525 263.821 15.6278C263.821 15.6249 263.821 15.622 263.822 15.619C263.866 14.9653 263.911 14.3051 263.956 13.6542C263.976 13.3754 263.995 13.0957 264.014 12.8163C264.062 12.1065 264.109 11.3898 264.158 10.6835C264.185 10.3096 264.21 9.93172 264.236 9.55264C264.278 8.93765 264.319 8.31631 264.361 7.69717C264.428 6.69603 264.498 5.69577 264.566 4.69034C264.577 4.52599 264.65 4.36163 264.773 4.23331C264.896 4.10493 265.059 4.02209 265.234 4.00381ZM246.826 270.4C238.606 282.419 233.251 289.777 227.587 297.256C225.282 300.302 222.879 302.735 220.404 305.244C216.893 308.803 213.228 312.527 209.498 318.414C208.628 319.788 207.76 321.296 206.855 322.872C205.191 325.768 203.398 328.9 201.217 331.865C200.457 332.899 199.689 333.742 198.937 334.569C198.112 335.474 197.291 336.382 196.518 337.501C193.626 341.686 190.885 345.794 188.462 349.439C185.333 354.146 182.75 358.052 180.982 360.433C177.831 364.675 174.814 369.576 171.788 374.516C169.467 378.305 167.197 382.034 164.734 385.689C157.753 396.044 148.76 410.475 139.83 425.551C136.542 431.114 133.038 435.876 128.781 441.651C126.094 445.305 123.213 449.197 119.529 454.542C117.455 457.55 116.091 460.308 114.841 462.845C113.69 465.182 112.634 467.333 111.221 469.311C109.973 471.058 108.8 471.905 107.684 472.715C106.403 473.677 105.2 474.582 104.056 476.613C103.447 477.693 102.883 479.11 102.221 480.785C101.959 481.447 101.68 482.153 101.378 482.892C101.306 482.799 101.227 482.739 101.164 482.699C100.718 482.419 99.2481 484.258 97.8245 486.041C97.2558 486.753 96.692 487.46 96.2015 488.021C94.4307 490.028 91.5811 494.514 89.4798 497.99C88.5957 499.452 87.6551 500.678 86.5667 502.098C85.6009 503.357 84.5176 504.77 83.2679 506.617C82.5555 507.67 81.9237 508.42 81.4017 509.037C81.0225 509.486 80.7073 509.855 80.4466 510.247C80.2119 510.601 80.165 510.973 80.1126 511.39C80.075 511.689 80.0334 512.015 79.9183 512.374C79.6426 513.233 79.1183 514.226 78.6585 514.863C78.4462 515.157 78.2494 515.372 78.054 515.584C77.8262 515.831 77.5986 516.077 77.347 516.45C76.1929 518.163 75.3253 519.953 74.4407 521.791C73.4688 523.81 72.4743 525.891 71.0687 527.975C70.6393 528.609 70.0414 529.407 69.5101 530.1C68.9451 530.842 68.4011 531.558 67.9954 532.194C66.3476 534.78 65.2639 537.396 64.3011 539.757C63.6607 541.327 63.0721 542.787 62.4056 544.052C61.1507 546.427 60.711 548.12 60.4681 549.226C60.3329 549.816 60.2254 550.296 60.0218 550.744C59.7898 551.129 59.5533 551.518 59.3226 551.894C59.0948 552.231 58.8609 552.578 58.68 552.923C58.6662 552.949 58.6535 552.976 58.6399 553.002C57.3462 555.084 56.0757 557.049 54.8538 558.946C51.8538 563.673 49.0401 568.176 46.7601 573.009C46.2008 574.182 45.7818 575.412 45.3821 576.625C44.8923 578.111 44.4297 579.574 43.7698 580.888C43.3938 581.636 43.0177 582.361 42.6438 583.061C41.3497 585.509 40.0751 587.853 38.8802 590.254C36.5023 595.035 34.5496 599.843 33.9534 604.555C33.7553 606.113 33.7164 607.627 33.7171 609.131C33.7131 609.993 33.7237 610.851 33.7278 611.703C33.5103 611.489 33.2951 611.358 33.095 611.236C32.6837 610.984 32.3284 610.768 32.1478 609.892C31.7194 607.812 31.1548 605.444 30.3528 605.51C30.1343 605.533 29.9185 605.429 29.7024 605.32C29.163 605.047 28.5953 604.763 27.9534 606.562C27.5228 607.722 26.524 611.031 26.7288 613.133C26.7697 613.593 26.9309 613.888 27.1106 614.213C27.4374 614.797 27.8045 615.526 27.7542 617.479C27.7466 617.808 27.7377 618.165 27.7288 618.532C27.6903 619.989 27.7051 621.628 28.0062 622.258C28.3519 622.972 28.7676 622.823 29.2493 622.658C29.8798 622.438 30.6167 622.21 31.5003 623.668C31.6757 623.956 31.7376 624.498 31.7894 624.905C31.8255 625.192 31.8569 625.41 31.9104 625.431C31.9721 625.453 32.0968 625.36 32.2552 625.242C32.8241 624.819 33.7705 624.125 33.9114 627.018C33.9566 627.815 33.9642 628.72 33.9856 629.524C34.016 630.709 34.076 631.676 34.2513 631.787C34.3179 631.828 34.3882 631.854 34.4603 631.876C34.5497 632.822 34.658 633.757 34.7854 634.678C34.7826 635.88 35.0934 637.532 35.6067 639.549C35.7309 640.036 35.8674 640.545 36.013 641.068C36.4499 642.824 36.976 644.575 37.5667 646.241C38.0011 647.614 38.467 649.052 38.9612 650.56C39.9781 653.628 40.8301 656.352 41.8919 658.975C42.346 660.087 42.8414 661.178 43.4056 662.242C43.0835 661.914 42.7899 661.618 42.5472 661.401C40.8913 659.907 39.8235 659.56 38.8079 659.235C38.1364 659.014 37.4972 658.792 36.7942 658.166C35.5115 657.004 35.1275 657.422 34.8284 657.742C34.6755 657.907 34.5488 658.039 34.344 657.898C34.1792 657.784 33.9321 657.44 33.6819 657.079C33.4638 656.765 33.2416 656.436 33.0618 656.245C30.9012 653.888 30.8908 654.876 30.9124 656.454C30.9274 657.315 30.9718 658.323 30.6497 658.99C30.2696 659.62 30.0339 659.63 28.9778 658.222C29.3404 659.574 29.7313 660.891 30.2034 662.248C30.5099 662.698 30.9016 662.938 31.4935 663.232C32.5381 663.765 34.6063 666.327 36.4085 668.146C37.2297 668.991 37.9819 669.704 38.4466 670.063C40.9389 671.94 40.7785 670.776 40.6575 669.834C40.5919 669.306 40.5445 668.823 40.9173 668.874C41.0764 668.895 41.0207 668.697 40.9671 668.497C40.9255 668.342 40.8832 668.184 40.9378 668.124C41.3396 667.693 42.8264 668.618 44.2356 669.351C45.0455 669.78 45.8266 670.155 46.3294 670.268C46.4825 670.303 46.6144 670.318 46.7396 670.329C46.9223 670.345 47.0987 670.361 47.3304 670.439C47.858 670.618 48.7782 671.176 49.8128 671.735C50.3424 672.022 50.9008 672.31 51.4417 672.556C52.1433 672.872 52.5002 672.814 52.8704 672.756C53.1326 672.714 53.4029 672.671 53.8069 672.738C54.5378 672.863 55.7992 673.454 57.0042 673.934C57.5302 674.146 58.0334 674.334 58.471 674.473C58.6488 674.529 58.7468 674.527 58.7864 674.484C60.7946 675.149 62.7498 675.621 64.6741 675.958C74.3747 677.445 82.8049 676.703 95.6067 673.296C97.9816 672.633 100.584 671.606 103.038 670.408C111.214 667.002 119.094 662.197 126.477 656.571C126.575 656.53 126.673 656.486 126.773 656.442C128.39 655.769 130.249 654.74 132.323 653.263C136.346 650.409 140.047 646.691 144.077 642.021C147.057 638.563 150.238 634.551 153.894 629.772C160.034 621.727 165.74 612.86 171.304 602.351C176.865 591.897 182.409 579.441 185.989 570.483C187.438 566.882 189.12 563.202 190.769 559.625C186.16 558.15 181.746 555.895 177.824 552.614C167.546 544.063 163.409 531.273 161.936 519.293C157.393 495.77 169.853 474.344 183.391 458.238C196.539 443.758 210.939 431.039 226.206 419.629C227.486 410.435 228.876 401.269 230.262 392.103C232.25 379.036 234.285 365.982 236.34 352.939C237.336 352.001 238.266 350.839 239.142 349.18C239.082 348.978 239.026 348.777 238.974 348.575C238.899 348.356 238.827 348.134 238.755 347.91L239.791 347.832C239.951 347.471 240.109 347.09 240.265 346.687L240.294 346.531C240.187 346.452 240.089 346.358 240.004 346.253C239.773 345.964 239.66 345.61 239.681 345.267C239.836 342.775 239.996 340.29 240.159 337.809C240.344 335.045 240.533 332.286 240.728 329.531C241.325 329.481 241.875 329.397 242.367 329.261C242.838 327.72 243.392 326.213 244.022 324.74C243.975 324.676 243.928 324.612 243.881 324.55C243.514 324.061 243.165 323.597 243.112 323.078C243.02 322.196 242.537 321.281 242.03 320.319C241.845 319.969 241.657 319.612 241.484 319.249C241.683 316.617 241.888 313.987 242.095 311.358C242.451 310.398 242.76 309.512 242.852 308.726C242.934 308.022 242.742 307.324 242.473 306.613C242.506 306.207 242.538 305.8 242.571 305.393C242.783 302.768 242.998 300.148 243.215 297.528C244.01 295.609 244.814 293.58 245.516 290.896C245.819 289.738 246.261 288.622 246.686 287.548C247.313 285.961 247.903 284.463 247.947 283.07C247.976 282.137 248.372 281.225 248.766 280.314C249.294 279.093 249.822 277.869 249.462 276.601C249.236 275.802 248.918 275.057 248.623 274.363C248.154 273.261 247.742 272.297 247.848 271.514C247.97 270.608 247.924 269.748 247.822 268.941C247.493 269.422 247.163 269.909 246.826 270.4ZM1237.19 434.733C1228.35 437.021 1219.33 439.343 1210.73 441.602C1188.36 447.482 1166.72 453.469 1146.28 460.372C1133.65 464.647 1123.02 468.512 1112.03 472.566C1095.43 478.737 1080.88 484.439 1067.83 489.263C1043.22 498.352 1021.92 507.597 1004.43 516.03C982.577 526.554 965.256 536.313 950.642 545.228C948.645 546.438 945.671 548.311 942.929 550.129C937.436 553.778 930.216 558.866 923.48 565.528C916.905 572.024 909.449 581.884 911.088 591.04C911.957 596.537 915.712 601.312 922.615 604.727C933.852 610.145 947.744 610.814 960.695 610.304C979.813 609.383 998.432 605.659 1018.31 600.981C1021.23 600.287 1024.34 599.638 1027.21 599.001C1030.84 598.196 1033.93 597.452 1035.73 596.736C1041 594.649 1049.26 591.422 1058.11 587.501C1064.59 584.638 1071.41 581.401 1077.55 578.224C1108.53 564.493 1137.93 547.086 1164.25 526.101C1177.99 515.075 1190.5 500.793 1202.06 485.87C1214.52 469.721 1226.12 452.395 1237.19 434.733ZM427.785 340.831C408.71 346.934 389.816 353.758 371.18 361.077C364.351 363.252 356.062 366.187 346.411 370.01C328.294 377.213 310.027 385.592 289.115 396.57C273.73 404.704 256.736 414.257 238.026 426.768C234.211 429.507 230.213 432.348 226.151 435.31C226.161 435.743 226.143 436.241 226.089 436.766C225.616 441.402 224.982 446.264 224.332 450.839C223.894 453.87 223.492 456.567 223.003 459.597C222.73 461.32 222.439 463.084 222.135 464.876C221.575 468.191 220.966 471.614 220.354 474.92C220.113 476.221 219.864 477.538 219.609 478.871C219.009 481.997 218.409 485.028 217.754 488.202C217.75 488.22 217.746 488.238 217.742 488.257C217.435 489.756 217.12 491.268 216.799 492.778C215.797 497.481 214.782 502.039 213.689 506.712C213.132 509.109 212.507 511.702 211.905 514.159C211.566 515.541 211.221 516.928 210.877 518.295C210.689 519.042 210.495 519.801 210.298 520.565C207.59 531.149 204.64 541.658 201.375 552.108C205.197 552.591 209.155 552.609 213.039 552.272C234.138 550.289 253.908 541.031 269.257 533.009C286.293 523.968 303.54 513.004 318.935 501.81C340.63 486.084 358.555 469.832 368.195 458.766C371.295 455.222 374.094 451.603 376.706 448.097C378.562 445.606 380.439 443.044 382.234 440.635C387.489 434.697 392.658 428.459 397.515 422.071C406.34 411.105 419.718 392.65 425.323 372.471C426.933 367.384 428.076 362.094 428.458 357.16C428.662 354.552 428.711 351.945 428.618 349.371C428.511 346.502 428.23 343.651 427.785 340.831ZM224.664 436.399C198.131 455.882 169.513 480.653 171.848 516.27C171.913 516.693 171.984 517.116 172.063 517.54L172.117 517.899C173.219 528.372 176.601 538.668 184.098 545.039C187.146 547.702 190.806 549.55 194.788 550.742C196.753 546.186 198.236 542.152 198.573 539.19C198.72 537.9 198.662 536.611 198.613 535.328C198.576 534.419 198.54 533.526 198.571 532.674C199.294 530.602 199.997 528.556 200.701 526.472C202.35 522.892 204.616 517.231 205.592 511.46C206.266 509.31 206.943 507.109 207.575 505.035C208.956 500.482 210.261 496.045 211.561 491.452C211.982 489.967 212.399 488.481 212.808 487.007C212.812 486.993 212.816 486.979 212.82 486.965C213.674 483.867 214.473 480.918 215.276 477.864C215.619 476.559 215.953 475.269 216.282 473.996C217.116 470.758 217.948 467.413 218.735 464.161C219.159 462.404 219.568 460.674 219.964 458.982C220.65 456.009 221.254 453.361 221.893 450.384C222.866 445.893 223.828 441.118 224.634 436.558C224.643 436.504 224.655 436.452 224.664 436.399ZM535.178 319.26C531.012 318.565 525.456 318.654 519.367 319.18C516.839 321.083 514.39 323.056 511.985 325.1C509.522 327.195 507.081 329.389 504.695 331.633C505.056 330.993 505.186 330.576 505.308 330.187C505.568 329.386 505.784 328.673 508.05 326.411C510.409 324.037 513.01 321.597 515.075 319.609C512.559 319.893 509.989 320.234 507.421 320.611C502.804 324.067 497.002 328.833 493.371 332.857C492.202 334.121 491.595 335 490.926 335.978C489.737 337.763 488.268 339.767 483.475 345.436C482.675 346.393 481.813 347.442 480.936 348.537C480.425 349.174 479.911 349.828 479.402 350.485C476.443 354.298 473.576 358.405 472.648 360.168C471.347 362.617 472.023 362.385 472.812 362.096C473.859 361.712 474.979 361.349 472.435 366.594C471.918 367.656 470.738 369.507 469.864 370.914C469.244 371.909 468.769 372.685 468.764 372.791C468.761 372.908 469.074 372.66 469.471 372.348C470.911 371.25 473.177 369.358 466.749 379.585C465.034 382.361 463.065 385.553 461.346 388.453C458.825 392.695 456.849 396.301 456.736 396.858C456.694 397.068 456.683 397.228 456.688 397.367C454.831 400.823 453.054 404.306 451.372 407.814C449.074 412.245 446.184 418.642 443.433 426.688C442.774 428.627 442.117 430.699 441.511 432.818C439.466 439.793 438.12 446.882 438.274 453.018C438.336 457.896 439.371 462.125 441.53 464.913C443.934 468.23 448.999 470.555 455.054 471.561C458.445 472.22 462.625 471.99 466.661 471.148C470.916 470.259 475.175 468.769 479.486 466.809C477.847 467.704 476.399 468.435 475.305 468.985C467.553 472.759 464.612 473.771 461.67 474.911C459.812 475.576 457.886 476.176 454.913 476.183C454.789 476.182 454.668 476.18 454.55 476.179C448.821 475.891 449.511 476.318 449.779 476.856C449.943 477.111 450.101 477.33 449.277 477.254C448.584 477.185 447.06 476.846 445.65 476.396C444.367 475.997 443.054 475.46 442.279 475.144C437.405 473.06 436.134 471.564 435.9 471.902C435.7 472.135 436.947 473.845 438.797 475.451C440.903 477.327 443.819 478.952 445.082 479.982C446.163 480.879 445.61 481.452 439.613 478.871C443.893 481.474 448.658 482.956 453.714 483.831C453.821 483.849 453.929 483.868 454.036 483.886C456.043 484.053 457.611 483.884 459.776 483.431C463.535 482.949 475.42 479.79 483.567 475.007C487.411 472.913 490.562 470.848 492.323 469.599C501.404 462.861 498.251 464.036 495.551 465.302C494.06 465.956 492.701 466.503 493.499 465.682C493.838 465.328 493.217 465.638 492.593 465.937C492.111 466.169 491.618 466.401 491.555 466.346C491.096 465.956 496.319 461.963 500.763 457.849C503.37 455.475 505.66 453.199 506.899 451.788C507.271 451.363 507.556 451.01 507.821 450.677C508.214 450.184 508.566 449.732 509.186 449.048C510.579 447.51 513.693 444.399 516.865 440.921C518.505 439.129 520.21 437.199 521.743 435.372C523.74 432.987 524.294 431.973 524.886 430.919C525.303 430.17 525.737 429.394 526.653 428.071C528.317 425.683 531.931 421.049 535.055 416.608C536.416 414.685 537.713 412.776 538.759 411.163C539.186 410.505 539.362 410.172 539.363 410.073C544.208 402.584 548.312 395.217 551.776 387.795C565.043 359.787 570.754 323.832 535.178 319.26ZM370.944 276.949C360.238 293.234 348.596 309.051 335.535 324.199C333.639 326.168 331.186 328.54 328.926 330.268C315.53 340.478 301.743 350.327 286.159 357.844C278.363 361.451 270.016 364.799 260.568 364.824C253.732 365.251 246.957 361.366 242.751 356C240.138 368.422 237.55 380.816 234.995 393.267C233.406 401.046 231.813 408.831 230.292 416.62C267.634 389.541 309.859 369.918 351.486 351.389C375.347 341.946 398.846 332.095 422.922 323.63C419.927 316.386 415.845 309.579 410.867 303.483C407.409 299.247 403.478 295.314 399.176 291.821C399.135 291.788 399.094 291.754 399.053 291.721C390.796 285.021 381.11 279.974 370.944 276.949ZM947.168 381.34C947.151 381.358 947.173 381.345 947.229 381.308C947.197 381.325 947.178 381.338 947.168 381.34ZM355.369 273.831C343.291 272.511 330.818 273.69 319.06 276.609C315.535 277.483 312.192 278.462 308.69 279.641C305.878 280.589 303.182 281.56 300.44 282.62C290.53 286.454 280.841 291.143 271.999 297.023C265.159 301.606 258.507 307.088 253.206 313.459C251.471 318.759 249.729 324.058 247.994 329.357C246.967 332.497 245.944 335.629 244.926 338.779C244.167 341.119 243.413 343.466 242.662 345.821C242.66 345.829 242.655 345.837 242.653 345.845L242.871 346.491C242.926 346.854 242.989 347.216 243.067 347.585L244.547 347.475C244.341 348.453 244.135 349.432 243.929 350.41C244.901 352.807 246.987 355.728 249.241 357.01C251.406 358.307 253.345 358.557 255.069 358.583C256.913 358.595 258.54 358.361 260.697 358.181C264.335 357.842 267.746 356.397 271.105 354.591C272.366 353.917 273.546 353.214 274.825 352.443C285.64 347.695 295.878 340.647 305.687 333.225C309.653 330.56 313.229 327.997 316.141 325.642C318.055 324.093 319.74 322.514 321.347 320.89C321.744 320.449 322.171 319.947 322.623 319.387C323.204 318.826 323.938 318.078 324.498 317.473C325.05 316.878 325.627 316.236 326.226 315.548C334.025 306.439 340.82 296.073 347.462 285.552C350.091 281.912 352.781 278.08 355.615 273.858C355.533 273.849 355.451 273.84 355.369 273.831ZM741.174 308.79C740.516 309.396 739.621 310.372 738.729 311.51C736.805 313.953 734.867 317.018 733.076 320.272C730.14 325.621 727.541 331.517 725.365 337.519C731.815 330.337 737.545 322.582 740.235 315.632C741.586 312.394 741.585 309.644 741.467 308.873C741.463 308.872 741.459 308.87 741.455 308.868C741.4 308.842 741.301 308.814 741.174 308.79ZM741.38 308.68C741.379 308.691 741.416 308.748 741.453 308.8C741.428 308.671 741.401 308.626 741.38 308.68ZM437.963 44.2382C437.526 44.3777 436.899 44.6083 436.187 44.9306C435.51 45.2397 434.721 45.6392 433.841 46.1327C432.584 46.4125 431.044 46.946 429.569 47.5487C428.265 48.0378 426.866 48.6705 425.375 49.4667C421.149 51.8116 417.013 54.886 410.596 60.412C406.622 63.7954 401.023 68.9287 395.469 74.0399C384.498 84.1775 374.382 95.9233 368.471 103.417C367.198 105.028 365.912 106.672 364.527 108.457C359.101 115.45 352.883 123.54 340.642 139.622C329.001 154.946 319.294 167.738 311.935 177.52C308.235 182.443 305.129 186.61 302.782 189.853C298.689 195.502 293.951 202.029 289.02 208.882C285.183 214.209 281.428 219.471 278.097 224.19C276.79 230.742 275.343 237.264 273.778 243.735C271.15 254.604 268.183 265.381 265.012 276.064C261.845 286.73 258.469 297.327 255.034 307.875C254.964 308.09 254.893 308.304 254.823 308.519C259.554 303.377 265.052 298.849 270.66 294.932C279.583 288.754 289.362 283.798 299.36 279.714C302.108 278.593 304.803 277.564 307.617 276.556C311.201 275.275 314.633 274.198 318.262 273.227C330.29 270.002 343.213 268.528 355.872 269.686C356.655 269.757 357.437 269.837 358.219 269.928C360.615 266.264 363.125 262.3 365.787 257.923C368.721 253.099 371.801 248.191 374.621 243.622C378.843 236.777 382.713 230.302 385.668 224.301C387.622 220.33 389.972 216.323 392.314 212.259C395.424 206.868 398.502 201.401 400.465 196.086C401.702 192.74 402.722 189.61 403.65 186.712C405.13 182.092 406.383 178.056 407.933 174.611C410.87 168.085 412.903 162.338 414.697 157.146C416.827 150.96 418.525 145.778 420.765 141.508C421.103 140.864 421.5 140.132 421.946 139.31C424.288 134.967 428.05 128.009 431.369 117.115C432.5 113.369 433.317 109.508 433.994 105.924C434.949 100.81 435.888 95.4495 437.529 90.3603C437.785 89.5595 438.175 88.7635 438.525 88.0429C438.97 87.1264 439.35 86.3322 439.319 85.8026C439.236 84.2132 439.245 81.9913 439.264 79.2519C439.264 77.3054 439.217 75.3076 439.076 73.5243C441.362 62.0976 440.345 47.3968 437.963 44.2382ZM1453.22 253.39C1438.05 237.391 1414.83 224.789 1399.9 230.081C1391.45 238.359 1383.38 247.588 1375.59 257.57C1383.8 262.44 1391.26 267.926 1397.89 272.977C1424.72 294 1448.68 313.102 1470.26 297.271C1478.9 296.487 1469.21 268.09 1453.22 253.39ZM883.007 297.241C883.046 297.202 883.022 297.211 882.946 297.261C882.971 297.252 882.992 297.246 883.007 297.241ZM1140.47 256.951C1140.37 257.772 1140.32 258.94 1140.59 260.185C1141.06 262.85 1142.37 265.823 1144.27 268.338C1149.13 275.1 1157.95 278.38 1168.2 278.46C1162.94 272.601 1156.19 266.838 1149.29 261.735C1146 259.267 1142.6 257.478 1140.47 256.951ZM436.695 43.3876C436.821 43.4585 436.948 43.5197 437.073 43.5761C436.958 43.5049 436.844 43.4495 436.695 43.3876Z" fill="white"/>
</svg>
