<svg width="40" height="40" viewBox="0 0 40 40" fill="none" xmlns="http://www.w3.org/2000/svg">
<path fill-rule="evenodd" clip-rule="evenodd" d="M19.0569 0.0211396C30.6664 -0.50451 40.192 8.84186 39.9973 20.3493C39.8411 30.9409 31.2899 39.6442 20.6741 39.9948C18.9406 40.0335 17.2848 39.8775 15.6877 39.527C15.2397 39.4297 14.8691 39.0791 14.7717 38.612L10.7786 21.0299C10.6618 20.699 11.0712 20.5043 11.2659 20.777L16.0383 28.1178C16.4083 28.6624 17.1675 28.74 17.6155 28.2536L17.7522 28.1178C18.7066 27.0662 19.9533 26.3258 21.3167 25.9557C24.5503 25.06 30.6865 23.2888 32.7708 21.8092C35.5366 19.8037 35.8284 16.8048 35.7893 15.3639C35.7696 14.9358 35.4003 14.5857 34.9524 14.6051L24.5501 15.0524C23.2256 15.1106 21.9012 14.7993 20.7131 14.1764L18.4143 12.9303C17.0507 12.2101 15.4727 11.8988 13.9338 12.1129L9.47388 12.6969C6.74712 13.0667 4.44752 14.8581 3.47388 17.4088C2.71395 19.4141 1.87669 21.8679 1.27271 24.3405C1.15558 24.7293 0.571397 24.7294 0.473879 24.3209C0.103672 22.6076 -0.0707506 20.7963 0.0266138 18.9079C0.591578 8.60806 8.75263 0.488669 19.0569 0.0211396ZM17.4055 15.2477C18.2853 15.125 19.0948 15.7564 19.218 16.6344C19.341 17.5119 18.7072 18.3191 17.8274 18.442C16.9477 18.5824 16.1205 17.9506 16.0149 17.0553C15.8918 16.1777 16.5258 15.3706 17.4055 15.2477Z" fill="white"/>
</svg>
