<?xml version="1.0" encoding="UTF-8"?>
<svg xmlns="http://www.w3.org/2000/svg" width="29" height="29" viewBox="0 0 29 29" fill="none">
  <path d="M15.1048 21.1458C15.1048 21.3061 15.0411 21.4598 14.9278 21.5731C14.8145 21.6864 14.6609 21.75 14.5006 21.75C14.3404 21.75 14.1867 21.6864 14.0734 21.5731C13.9601 21.4598 13.8965 21.3061 13.8965 21.1458C13.8965 20.9856 13.9601 20.8319 14.0734 20.7186C14.1867 20.6053 14.3404 20.5417 14.5006 20.5417C14.6609 20.5417 14.8145 20.6053 14.9278 20.7186C15.0411 20.8319 15.1048 20.9856 15.1048 21.1458Z" fill="black"></path>
  <path d="M3.62485 10.1947C9.80547 4.65693 19.1942 4.65693 25.3748 10.1947M6.84747 13.7992C8.95202 11.917 11.6764 10.8764 14.4998 10.8764C17.3233 10.8764 20.0477 11.917 22.1522 13.7992M10.0689 17.4012C11.2874 16.3112 12.8649 15.7085 14.4998 15.7085C16.1348 15.7085 17.7123 16.3112 18.9308 17.4012M15.104 21.1458C15.104 21.3061 15.0404 21.4597 14.9271 21.5731C14.8138 21.6864 14.6601 21.75 14.4998 21.75C14.3396 21.75 14.1859 21.6864 14.0726 21.5731C13.9593 21.4597 13.8957 21.3061 13.8957 21.1458C13.8957 20.9856 13.9593 20.8319 14.0726 20.7186C14.1859 20.6053 14.3396 20.5417 14.4998 20.5417C14.6601 20.5417 14.8138 20.6053 14.9271 20.7186C15.0404 20.8319 15.104 20.9856 15.104 21.1458Z" stroke="black" stroke-width="1.5" stroke-linecap="round" stroke-linejoin="round"></path>
</svg>
