<?xml version="1.0" encoding="UTF-8"?>
<svg xmlns="http://www.w3.org/2000/svg" width="21" height="21" viewBox="0 0 21 21" fill="none">
  <path d="M10.1559 14.3231C11.261 14.3231 12.3208 13.8841 13.1022 13.1027C13.8836 12.3213 14.3226 11.2615 14.3226 10.1564C14.3226 9.05134 13.8836 7.99154 13.1022 7.21013C12.3208 6.42873 11.261 5.98975 10.1559 5.98975C9.05086 5.98975 7.99105 6.42873 7.20965 7.21013C6.42824 7.99154 5.98926 9.05134 5.98926 10.1564C5.98926 11.2615 6.42824 12.3213 7.20965 13.1027C7.99105 13.8841 9.05086 14.3231 10.1559 14.3231Z" stroke="white" stroke-width="1.5625" stroke-linecap="round" stroke-linejoin="round"></path>
  <path d="M0.78125 14.3229V5.98958C0.78125 4.60825 1.32998 3.28349 2.30674 2.30674C3.28349 1.32998 4.60825 0.78125 5.98958 0.78125H14.3229C15.7043 0.78125 17.029 1.32998 18.0058 2.30674C18.9825 3.28349 19.5312 4.60825 19.5312 5.98958V14.3229C19.5312 15.7043 18.9825 17.029 18.0058 18.0058C17.029 18.9825 15.7043 19.5312 14.3229 19.5312H5.98958C4.60825 19.5312 3.28349 18.9825 2.30674 18.0058C1.32998 17.029 0.78125 15.7043 0.78125 14.3229Z" stroke="white" stroke-width="1.5625"></path>
  <path d="M15.8857 4.43703L15.8957 4.42603" stroke="white" stroke-width="1.5625" stroke-linecap="round" stroke-linejoin="round"></path>
</svg>
