<?xml version="1.0" encoding="UTF-8"?>
<svg xmlns="http://www.w3.org/2000/svg" width="29" height="29" viewBox="0 0 29 29" fill="none">
  <path d="M10.4023 14.1858C10.12 14.1858 9.87411 14.0811 9.66466 13.8716C9.4552 13.6622 9.35048 13.4163 9.35048 13.134C9.35048 12.8517 9.4552 12.6058 9.66466 12.3963C9.87411 12.1869 10.12 12.0822 10.4023 12.0822C10.6846 12.0822 10.9305 12.1869 11.1399 12.3963C11.3494 12.6058 11.4541 12.8517 11.4541 13.134C11.4541 13.4163 11.3494 13.6622 11.1399 13.8716C10.9305 14.0811 10.6846 14.1858 10.4023 14.1858ZM18.5983 14.1858C18.316 14.1858 18.0702 14.0811 17.8607 13.8716C17.6512 13.6622 17.5465 13.4163 17.5465 13.134C17.5465 12.8517 17.6512 12.6058 17.8607 12.3963C18.0702 12.1869 18.316 12.0822 18.5983 12.0822C18.8807 12.0822 19.1265 12.1869 19.336 12.3963C19.5454 12.6058 19.6502 12.8517 19.6502 13.134C19.6502 13.4163 19.5454 13.6622 19.336 13.8716C19.1265 14.0811 18.8807 14.1858 18.5983 14.1858ZM5.77973 26.7941C5.16776 26.7941 4.64686 26.5791 4.21702 26.1493C3.78718 25.7195 3.57227 25.199 3.57227 24.588V19.1758C3.57227 18.8608 3.66743 18.5844 3.85776 18.3467C4.04718 18.1099 4.30217 17.9596 4.62273 17.8959H4.93827V11.768C4.93827 10.4402 5.1878 9.19807 5.68685 8.04152C6.18589 6.88496 6.86935 5.87275 7.73722 5.00488C8.60509 4.13701 9.62186 3.45355 10.7875 2.9545C11.9532 2.45546 13.1908 2.20593 14.5003 2.20593C15.8281 2.20593 17.0702 2.45546 18.2268 2.9545C19.3833 3.45355 20.3956 4.13701 21.2634 5.00488C22.1313 5.87275 22.8148 6.88496 23.3138 8.04152C23.8129 9.19807 24.0624 10.4402 24.0624 11.768V17.8973H24.352C24.6725 17.9601 24.9321 18.1104 25.1306 18.348C25.3291 18.5848 25.4284 18.8608 25.4284 19.1758V24.588C25.4284 25.1981 25.2135 25.7186 24.7836 26.1493C24.3538 26.5791 23.8333 26.7941 23.2223 26.7941H5.77973ZM4.93827 19.1758V24.588C4.93827 24.8329 5.01705 25.0342 5.17459 25.1917C5.33214 25.3493 5.53385 25.4281 5.77973 25.4281H8.35329V19.1758H4.93827ZM9.7193 25.4281H13.8173V19.1758H9.7193V25.4281ZM6.30428 17.8098H13.8173V3.62248C11.8776 3.73085 10.1405 4.5418 8.606 6.05534C7.07152 7.56979 6.30428 9.474 6.30428 11.768V17.8098ZM15.1833 17.8098H22.6964V11.768C22.6964 9.47309 21.9296 7.56888 20.396 6.05534C18.8606 4.5418 17.1231 3.73085 15.1833 3.62248V17.8098ZM15.1833 25.4281H19.2814V19.1758H15.1833V25.4281ZM20.6474 25.4281H23.2223C23.4673 25.4281 23.6685 25.3493 23.8261 25.1917C23.9836 25.0342 24.0624 24.8329 24.0624 24.588V19.1758H20.6474V25.4281Z" fill="black"></path>
</svg>
