<?xml version="1.0" encoding="UTF-8"?>
<svg xmlns="http://www.w3.org/2000/svg" width="29" height="29" viewBox="0 0 29 29" fill="none">
  <path d="M22.1681 5.4375H6.83192C6.07188 5.4375 5.4375 6.07188 5.4375 6.83192V13.804C5.4375 14.5628 6.07188 15.1972 6.83192 15.1972H22.1681C22.9281 15.1972 23.5625 14.5628 23.5625 13.8028V6.83071C23.5625 6.07188 22.9281 5.4375 22.1681 5.4375Z" stroke="black" stroke-width="1.46394" stroke-linecap="round" stroke-linejoin="round"></path>
  <path d="M20.0769 15.1972V12.4084C20.0769 11.6495 19.4426 11.0139 18.6837 11.0139H10.316C9.55717 11.0139 8.92279 11.6495 8.92279 12.4084V15.1972M8.22559 22.1693C10.2073 22.1693 10.316 20.2311 10.316 18.682M20.7729 22.1681C18.7913 22.1681 18.6825 20.2311 18.6825 18.682M14.5005 23.5625V18.682" stroke="black" stroke-width="1.46394" stroke-linecap="round" stroke-linejoin="round"></path>
</svg>
