<?xml version="1.0" encoding="UTF-8"?>
<svg xmlns="http://www.w3.org/2000/svg" width="29" height="29" viewBox="0 0 29 29" fill="none">
  <path d="M17.3994 2.77539H26.0996C27.4086 2.77539 28.4871 3.85313 28.4873 5.16211V26.9121C28.4873 27.4238 28.0615 27.8496 27.5498 27.8496H1.4502C0.938538 27.8496 0.512695 27.4238 0.512695 26.9121V18.2129C0.512695 16.9039 1.59043 15.8254 2.89941 15.8252H3.41211V13.8623C3.41222 13.3508 3.8381 12.9249 4.34961 12.9248H5.7998C6.3114 12.9248 6.7372 13.3507 6.7373 13.8623C6.7373 14.374 6.31146 14.7998 5.7998 14.7998H5.28711V15.8252H10.6621V14.7998H10.1494C9.63793 14.7996 9.21191 14.3738 9.21191 13.8623C9.21202 13.3509 9.638 12.925 10.1494 12.9248H11.5996C12.1112 12.9248 12.537 13.3507 12.5371 13.8623V15.8252H15.0127V5.16211C15.0129 3.85326 16.0906 2.7756 17.3994 2.77539ZM2.3877 25.9746H15.0127V22.0498H2.3877V25.9746ZM16.8877 25.9746H26.6123V13.3496H16.8877V25.9746ZM2.89941 17.7002C2.61376 17.7004 2.3877 17.9272 2.3877 18.2129V20.1748H15.0127V17.7002H2.89941ZM17.3994 4.65039C17.1139 4.6506 16.8879 4.87658 16.8877 5.16211V11.4746H26.6123V5.16211C26.6121 4.87645 26.3853 4.65039 26.0996 4.65039H17.3994Z" fill="black" stroke="#F4E9E1" stroke-width="0.3"></path>
  <path d="M18.8502 10.9625C19.4447 10.9625 19.9377 10.4695 19.9377 9.87499V8.42499C19.9377 7.83049 19.4447 7.33749 18.8502 7.33749C18.2557 7.33749 17.7627 7.83049 17.7627 8.42499V9.87499C17.7627 10.4695 18.2557 10.9625 18.8502 10.9625Z" fill="black"></path>
  <path d="M18.8502 14.5875C18.2557 14.5875 17.7627 15.0805 17.7627 15.675V17.125C17.7627 17.7195 18.2557 18.2125 18.8502 18.2125C19.4447 18.2125 19.9377 17.7195 19.9377 17.125V15.675C19.9377 15.0805 19.4447 14.5875 18.8502 14.5875Z" fill="black"></path>
</svg>
