<?xml version="1.0" encoding="UTF-8"?>
<svg xmlns="http://www.w3.org/2000/svg" width="17" height="19" viewBox="0 0 17 19" fill="none">
  <path d="M12.9583 2.9375C12.2464 2.12451 11.8541 1.08062 11.8542 0H8.63542V12.9167C8.61111 13.6158 8.31617 14.2782 7.81282 14.7641C7.30947 15.2499 6.63708 15.5213 5.9375 15.5208C4.45833 15.5208 3.22917 14.3125 3.22917 12.8125C3.22917 11.0208 4.95833 9.67708 6.73958 10.2292V6.9375C3.14583 6.45833 0 9.25 0 12.8125C0 16.2812 2.875 18.75 5.92708 18.75C9.19792 18.75 11.8542 16.0938 11.8542 12.8125V6.26042C13.1594 7.19776 14.7264 7.70067 16.3333 7.69792V4.47917C16.3333 4.47917 14.375 4.57292 12.9583 2.9375Z" fill="white"></path>
</svg>
