<svg xmlns="http://www.w3.org/2000/svg" width="900" height="1100" viewBox="0 0 900 1100">
    <defs><linearGradient id="g7" x1="0" y1="0" x2="1" y2="1">
      <stop offset="0" stop-color="#efefe5"/><stop offset="0.6" stop-color="#d9d9c8"/><stop offset="1" stop-color="#111112"/>
    </linearGradient></defs>
    <rect width="900" height="1100" fill="url(#g7)"/>
    <path d="M0 20.0 Q 56.3 25.8 112.5 14.0 Q 168.8 22.5 225.0 34.6 Q 281.3 30.3 337.5 20.9 Q 393.8 42.2 450.0 32.5 Q 506.3 -5.5 562.5 34.9 Q 618.8 2.6 675.0 10.8 Q 731.3 49.6 787.5 6.8 Q 843.8 13.0 900.0 5.9 Q 956.3 -5.7 1012.5 25.2" fill="none" stroke="#111112" stroke-width="1.2" opacity="0.28"/><path d="M0 177.1 Q 56.3 202.6 112.5 186.4 Q 168.8 191.6 225.0 164.1 Q 281.3 184.2 337.5 177.0 Q 393.8 159.4 450.0 188.9 Q 506.3 151.3 562.5 186.2 Q 618.8 155.9 675.0 163.0 Q 731.3 190.1 787.5 184.3 Q 843.8 198.9 900.0 186.7 Q 956.3 197.3 1012.5 184.4" fill="none" stroke="#111112" stroke-width="1.2" opacity="0.28"/><path d="M0 334.3 Q 56.3 306.5 112.5 329.5 Q 168.8 313.3 225.0 339.1 Q 281.3 327.3 337.5 328.3 Q 393.8 351.7 450.0 328.7 Q 506.3 356.8 562.5 336.0 Q 618.8 316.3 675.0 333.1 Q 731.3 338.7 787.5 331.7 Q 843.8 322.2 900.0 344.5 Q 956.3 340.3 1012.5 329.9" fill="none" stroke="#111112" stroke-width="1.2" opacity="0.28"/><path d="M0 491.4 Q 56.3 504.5 112.5 494.0 Q 168.8 485.4 225.0 493.6 Q 281.3 475.7 337.5 479.0 Q 393.8 496.9 450.0 492.2 Q 506.3 488.7 562.5 485.3 Q 618.8 488.5 675.0 478.8 Q 731.3 507.7 787.5 482.5 Q 843.8 468.7 900.0 501.9 Q 956.3 497.7 1012.5 495.0" fill="none" stroke="#111112" stroke-width="1.2" opacity="0.28"/><path d="M0 648.6 Q 56.3 674.5 112.5 641.0 Q 168.8 647.4 225.0 645.4 Q 281.3 656.5 337.5 654.0 Q 393.8 632.5 450.0 639.3 Q 506.3 655.6 562.5 633.6 Q 618.8 635.6 675.0 656.9 Q 731.3 664.6 787.5 646.5 Q 843.8 640.6 900.0 648.8 Q 956.3 633.8 1012.5 642.3" fill="none" stroke="#111112" stroke-width="1.2" opacity="0.28"/><path d="M0 805.7 Q 56.3 826.3 112.5 799.2 Q 168.8 811.4 225.0 792.5 Q 281.3 828.3 337.5 811.3 Q 393.8 802.6 450.0 795.9 Q 506.3 825.4 562.5 799.4 Q 618.8 789.0 675.0 804.4 Q 731.3 822.2 787.5 801.6 Q 843.8 775.8 900.0 803.3 Q 956.3 782.2 1012.5 820.4" fill="none" stroke="#111112" stroke-width="1.2" opacity="0.28"/><path d="M0 962.9 Q 56.3 949.5 112.5 965.1 Q 168.8 968.4 225.0 974.8 Q 281.3 976.1 337.5 977.1 Q 393.8 948.3 450.0 954.7 Q 506.3 962.6 562.5 959.7 Q 618.8 980.0 675.0 963.1 Q 731.3 989.5 787.5 971.2 Q 843.8 963.1 900.0 975.3 Q 956.3 956.2 1012.5 965.4" fill="none" stroke="#111112" stroke-width="1.2" opacity="0.28"/><g transform="translate(555,682)">
    <path d="M -230.99999999999997 -66 Q -264 -330 0 -346.5 Q 280.5 -330 237.6 -33 L 257.40000000000003 82.5 Q 132 148.5 66 132 L -198 148.5 Q -264 33 -230.99999999999997 -66 Z" fill="#111112" opacity="0.92"/>
    <path d="M -181.50000000000003 -16.5 Q -33 -92.4 165 -26.400000000000002 L 181.50000000000003 39.6 Q 33 66 -165 49.5 Z" fill="#efefe5" opacity="0.85"/>
    <circle cx="49.5" cy="-115.49999999999999" r="39.6" fill="#d9d9c8"/>
  </g>
  </svg>