<svg xmlns="http://www.w3.org/2000/svg" width="1200" height="630" viewBox="0 0 1200 630">
    <defs><linearGradient id="g99" x1="0" y1="0" x2="1" y2="1">
      <stop offset="0" stop-color="#2b3524"/><stop offset="0.6" stop-color="#3f5a2e"/><stop offset="1" stop-color="#d2ff00"/>
    </linearGradient></defs>
    <rect width="1200" height="630" fill="url(#g99)"/>
    <path d="M0 20.0 Q 75.0 42.4 150.0 10.8 Q 225.0 40.3 300.0 15.7 Q 375.0 33.3 450.0 24.0 Q 525.0 -3.9 600.0 25.7 Q 675.0 47.9 750.0 8.9 Q 825.0 28.4 900.0 17.8 Q 975.0 40.9 1050.0 31.4 Q 1125.0 18.1 1200.0 13.8 Q 1275.0 1.0 1350.0 26.9" fill="none" stroke="#d2ff00" stroke-width="1.2" opacity="0.28"/><path d="M0 110.0 Q 75.0 133.0 150.0 124.4 Q 225.0 98.5 300.0 114.7 Q 375.0 126.9 450.0 104.0 Q 525.0 108.4 600.0 112.9 Q 675.0 106.1 750.0 97.1 Q 825.0 140.0 900.0 119.2 Q 975.0 80.5 1050.0 108.2 Q 1125.0 121.7 1200.0 120.4 Q 1275.0 110.5 1350.0 107.0" fill="none" stroke="#d2ff00" stroke-width="1.2" opacity="0.28"/><path d="M0 200.0 Q 75.0 228.7 150.0 213.8 Q 225.0 187.5 300.0 198.1 Q 375.0 192.4 450.0 210.7 Q 525.0 187.3 600.0 213.0 Q 675.0 184.9 750.0 208.2 Q 825.0 185.5 900.0 206.1 Q 975.0 192.7 1050.0 191.7 Q 1125.0 207.1 1200.0 214.4 Q 1275.0 222.6 1350.0 214.7" fill="none" stroke="#d2ff00" stroke-width="1.2" opacity="0.28"/><path d="M0 290.0 Q 75.0 318.6 150.0 282.8 Q 225.0 302.3 300.0 279.4 Q 375.0 290.1 450.0 278.7 Q 525.0 282.9 600.0 284.8 Q 675.0 298.0 750.0 302.1 Q 825.0 276.4 900.0 277.3 Q 975.0 298.6 1050.0 276.0 Q 1125.0 261.8 1200.0 288.5 Q 1275.0 294.6 1350.0 280.0" fill="none" stroke="#d2ff00" stroke-width="1.2" opacity="0.28"/><path d="M0 380.0 Q 75.0 353.9 150.0 365.7 Q 225.0 393.0 300.0 367.5 Q 375.0 362.4 450.0 378.5 Q 525.0 357.2 600.0 383.1 Q 675.0 390.5 750.0 394.4 Q 825.0 386.5 900.0 377.0 Q 975.0 378.6 1050.0 383.1 Q 1125.0 379.0 1200.0 365.8 Q 1275.0 350.2 1350.0 389.9" fill="none" stroke="#d2ff00" stroke-width="1.2" opacity="0.28"/><path d="M0 470.0 Q 75.0 446.5 150.0 457.1 Q 225.0 442.3 300.0 483.7 Q 375.0 449.9 450.0 467.3 Q 525.0 444.4 600.0 467.0 Q 675.0 489.7 750.0 470.1 Q 825.0 445.7 900.0 471.2 Q 975.0 483.3 1050.0 478.9 Q 1125.0 488.8 1200.0 458.4 Q 1275.0 496.9 1350.0 463.2" fill="none" stroke="#d2ff00" stroke-width="1.2" opacity="0.28"/><path d="M0 560.0 Q 75.0 577.2 150.0 565.4 Q 225.0 542.6 300.0 554.6 Q 375.0 565.0 450.0 570.7 Q 525.0 578.0 600.0 551.6 Q 675.0 543.6 750.0 545.8 Q 825.0 581.9 900.0 565.6 Q 975.0 583.9 1050.0 561.9 Q 1125.0 562.0 1200.0 546.4 Q 1275.0 547.2 1350.0 548.1" fill="none" stroke="#d2ff00" stroke-width="1.2" opacity="0.28"/><g transform="translate(773,391)">
    <path d="M -132.29999999999998 -37.800000000000004 Q -151.20000000000002 -189 0 -198.45000000000002 Q 160.65 -189 136.07999999999998 -18.900000000000002 L 147.42000000000002 47.25 Q 75.60000000000001 85.05 37.800000000000004 75.60000000000001 L -113.39999999999999 85.05 Q -151.20000000000002 18.900000000000002 -132.29999999999998 -37.800000000000004 Z" fill="#111112" opacity="0.92"/>
    <path d="M -103.95 -9.450000000000001 Q -18.900000000000002 -52.92 94.5 -15.120000000000001 L 103.95 22.68 Q 18.900000000000002 37.800000000000004 -94.5 28.349999999999998 Z" fill="#2b3524" opacity="0.85"/>
    <circle cx="28.349999999999998" cy="-66.14999999999999" r="22.68" fill="#3f5a2e"/>
  </g>
  </svg>