<svg width="189" height="21" viewBox="0 0 189 21" fill="none" xmlns="http://www.w3.org/2000/svg">
<g clip-path="url(#clip0_1032_43698)">
<path d="M6.34802 5.49745L5.53271 8.49831L10.1994 5.48037L7.14729 16.8678L10.247 16.8704L14.7558 0.0506592" fill="white"/>
<path d="M1.32521 12.0832L0.04142 16.8705H6.39463L8.99431 7.13178L1.32521 12.0832ZM23.394 7.86841C23.2387 8.44559 22.9395 8.86956 22.4933 9.14029C22.0481 9.41051 21.4233 9.54613 20.6168 9.54613H18.0543L18.954 6.19171H21.5164C22.3219 6.19171 22.8753 6.3263 23.1755 6.60066C23.4758 6.87502 23.5482 7.29432 23.394 7.8741V7.86841ZM26.047 7.80163C26.3731 6.59031 26.2385 5.65853 25.6422 5.00628C25.0469 4.35921 24.0022 4.03308 22.5114 4.03308H16.7928L13.3504 16.8762H16.1287L17.516 11.6996H19.3381C19.7471 11.6996 20.0691 11.7669 20.3041 11.8963C20.5396 12.0309 20.6778 12.2638 20.7203 12.6003L21.2162 16.8762H24.1927L23.7103 12.8902C23.6119 11.9998 23.2045 11.477 22.4886 11.3217C23.4012 11.0577 24.1658 10.6177 24.7818 10.0068C25.3935 9.40048 25.8306 8.6405 26.047 7.8068V7.80163ZM32.8003 12.2794C32.5674 13.149 32.2102 13.8065 31.7272 14.2672C31.2437 14.7279 30.666 14.9557 29.992 14.9557C29.3056 14.9557 28.8403 14.7331 28.5944 14.2827C28.348 13.8323 28.3397 13.1801 28.5685 12.326C28.7973 11.4718 29.1622 10.804 29.6644 10.3226C30.1665 9.8412 30.7535 9.60049 31.4275 9.60049C32.1005 9.60049 32.5612 9.83343 32.7941 10.2957C33.0323 10.76 33.0374 11.4242 32.8045 12.2887L32.8003 12.2794ZM34.0179 7.73433L33.67 9.03365C33.5199 8.56776 33.2284 8.19505 32.7978 7.91551C32.366 7.64115 31.8318 7.50139 31.1946 7.50139C30.4129 7.50139 29.6623 7.70327 28.9428 8.10705C28.2232 8.51082 27.5917 9.08024 27.0533 9.81532C26.5149 10.5504 26.1215 11.3838 25.8679 12.3208C25.6194 13.2629 25.5676 14.086 25.7178 14.8004C25.873 15.5199 26.1992 16.0686 26.7013 16.4517C27.2086 16.8399 27.8557 17.0315 28.6477 17.0315C29.277 17.0346 29.8993 16.8985 30.4698 16.6329C31.0339 16.3784 31.5357 16.0039 31.94 15.5354L31.5776 16.8896H34.2643L36.7175 7.73899H34.0256L34.0179 7.73433ZM46.3718 7.73433H38.5588L38.0126 9.7739H42.5587L36.5487 14.966L36.0352 16.8813H44.1003L44.6464 14.8418H39.7753L45.8774 9.57202L46.3718 7.73433ZM53.2488 12.2638C53.0071 13.1646 52.6484 13.8417 52.1747 14.2827C51.7011 14.7279 51.1275 14.9505 50.454 14.9505C49.046 14.9505 48.5832 14.0549 49.0636 12.2638C49.3017 11.3735 49.662 10.7041 50.1434 10.2533C50.6248 9.80082 51.2082 9.57512 51.8941 9.57512C52.5671 9.57512 53.0216 9.79927 53.2556 10.2507C53.4896 10.701 53.4875 11.3724 53.2488 12.2628V12.2638ZM54.8215 8.07857C54.2029 7.69344 53.4135 7.50087 52.4506 7.50087C51.4759 7.50087 50.5736 7.6924 49.7433 8.07547C48.9164 8.45614 48.1897 9.02439 47.6209 9.73508C47.0359 10.4546 46.6151 11.2984 46.3568 12.2612C46.1031 13.2205 46.072 14.0627 46.2688 14.7838C46.4655 15.5033 46.8796 16.0572 47.5008 16.4403C48.1271 16.8265 48.9243 17.0185 49.9027 17.0185C50.8656 17.0185 51.7611 16.8249 52.5842 16.4398C53.4072 16.0526 54.1113 15.5028 54.6962 14.7781C55.2812 14.0565 55.7005 13.2148 55.9593 12.2519C56.2181 11.2891 56.2492 10.4484 56.0525 9.72576C55.8558 9.00622 55.4468 8.45232 54.8308 8.06667L54.8215 8.07857ZM64.4127 10.1787L65.1011 7.68878C64.8682 7.56972 64.5628 7.5076 64.1797 7.5076C63.5637 7.5076 62.9736 7.65979 62.4041 7.96831C61.9144 8.23025 61.4982 8.59986 61.1462 9.06264L61.5034 7.72191L60.7233 7.72501H58.808L56.3387 16.872H59.0632L60.3444 12.0904C60.5307 11.3952 60.8662 10.848 61.3502 10.4598C61.8316 10.07 62.4321 9.87485 63.1568 9.87485C63.602 9.87485 64.0161 9.97682 64.4095 10.1803L64.4127 10.1787ZM71.9932 12.3078C71.7603 13.162 71.4083 13.8142 70.9268 14.2646C70.4454 14.717 69.8657 14.9427 69.1927 14.9427C68.5197 14.9427 68.059 14.7149 67.8157 14.2594C67.5673 13.8013 67.5621 13.1413 67.795 12.2737C68.028 11.4066 68.3852 10.7414 68.8769 10.2807C69.3687 9.81635 69.9485 9.58444 70.6214 9.58444C71.284 9.58444 71.7292 9.82256 71.9673 10.304C72.2055 10.7854 72.2106 11.4532 71.9818 12.3073L71.9932 12.3078ZM73.8868 8.09359C73.3821 7.68981 72.7376 7.48793 71.956 7.48793C71.2711 7.48793 70.6183 7.64322 69.9992 7.95693C69.3806 8.27011 68.8785 8.69718 68.4928 9.23761L68.5021 9.17549L68.9592 7.72087H66.2985L65.6203 10.2522L65.5996 10.3402L62.8043 20.7679H65.5323L66.9404 15.5189C67.0801 15.9858 67.3648 16.3523 67.7997 16.6173C68.2345 16.8813 68.7713 17.0123 69.4096 17.0123C70.2016 17.0123 70.9574 16.8208 71.6743 16.4377C72.3939 16.0536 73.0151 15.5007 73.5431 14.7864C74.0711 14.072 74.463 13.2438 74.713 12.3068C74.9667 11.3683 75.0184 10.5312 74.8735 9.79875C74.7259 9.06523 74.3993 8.49736 73.8951 8.09566L73.8868 8.09359ZM82.936 12.2706C82.703 13.1351 82.3459 13.7977 81.8644 14.2532C81.383 14.7118 80.8032 14.9401 80.1303 14.9401C79.4418 14.9401 78.9759 14.7175 78.7326 14.2672C78.4841 13.8168 78.479 13.1646 78.7067 12.3104C78.9345 11.4563 79.2979 10.7885 79.8 10.3071C80.3021 9.82567 80.8897 9.58548 81.5637 9.58548C82.2366 9.58548 82.6922 9.81842 82.9303 10.2791C83.1684 10.7414 83.17 11.4056 82.9381 12.2721L82.936 12.2706ZM84.1525 7.72294L83.8041 9.02226C83.654 8.55378 83.3641 8.18107 82.9344 7.90412C82.4996 7.62769 81.9664 7.49 81.3297 7.49C80.548 7.49 79.7933 7.69188 79.0727 8.09566C78.3532 8.49943 77.7216 9.06575 77.1833 9.79875C76.6449 10.5318 76.2515 11.3673 75.9978 12.3042C75.7468 13.2448 75.6976 14.0694 75.8477 14.7869C75.9994 15.5013 76.326 16.0531 76.8312 16.4382C77.3354 16.8213 77.9856 17.0149 78.7776 17.0149C79.4144 17.0149 80.0226 16.8824 80.5998 16.6163C81.1626 16.3607 81.663 15.9857 82.0663 15.5173L81.704 16.8725H84.3906L86.8433 7.72553H84.1566L84.1525 7.72294ZM98.1225 7.72605L98.1241 7.72346H96.4727C96.4199 7.72346 96.3733 7.72605 96.3252 7.72709H95.4685L95.0285 8.33792L94.9198 8.48286L94.8732 8.55534L91.3919 13.4048L90.6724 7.72605H87.8211L89.2654 16.3554L86.0766 20.771H88.9185L89.6899 19.6772C89.7116 19.6451 89.7313 19.6182 89.7572 19.584L90.6579 18.3054L90.6838 18.2692L94.7179 12.5491L98.1189 7.73485L98.1241 7.73174H98.1225V7.72605Z" fill="white"/>
</g>
<path d="M97.3761 19.5682L104.492 3.77774H106.194L99.0782 19.5682H97.3761ZM110.407 12.0216C108.644 11.5909 106.921 10.6271 106.921 8.33032C106.921 5.972 108.787 4.39296 111.761 4.39296C115.227 4.39296 116.724 6.56671 116.867 8.90452H115.247C115.186 7.22293 114.119 5.84896 111.699 5.84896C109.751 5.84896 108.562 6.73076 108.562 8.20728C108.562 9.58125 109.587 10.1144 110.961 10.4631L113.278 11.0373C115.042 11.4679 116.765 12.5138 116.765 14.8106C116.765 17.1689 114.898 18.7479 111.884 18.7479C108.418 18.7479 106.88 16.5742 106.716 14.2364H108.336C108.418 15.9179 109.526 17.2919 111.945 17.2919C113.935 17.2919 115.124 16.4101 115.124 14.9131C115.124 13.5596 114.14 12.9444 112.725 12.5958L110.407 12.0216ZM117.951 18.5428V4.59803H122.873C125.621 4.59803 127.528 6.15657 127.528 8.78147C127.528 11.4064 125.621 12.9649 122.873 12.9649H119.592V18.5428H117.951ZM119.592 11.4884H122.77C124.821 11.4884 125.847 10.4425 125.847 8.88401V8.67894C125.847 7.1204 124.821 6.07454 122.77 6.07454H119.592V11.4884ZM128.276 18.5428V4.59803H133.321C135.966 4.59803 137.853 6.11555 137.853 8.67894C137.853 11.1603 136.089 12.6163 133.587 12.7188L138.12 18.5428H136.089L131.742 12.7188H129.917V18.5428H128.276ZM129.917 11.2833H133.218C135.064 11.2833 136.171 10.34 136.171 8.78147V8.5764C136.171 7.01786 135.064 6.07454 133.218 6.07454H129.917V11.2833ZM138.721 18.5428V4.59803H140.362V18.5428H138.721ZM141.796 18.5428V4.59803H144.708L150.532 15.4873L151.701 17.7021H151.722L151.701 15.2002V4.59803H153.28V18.5428H150.348L144.544 7.65358L143.375 5.43882H143.355L143.375 7.94068V18.5428H141.796ZM158.477 18.5428V6.07454H153.904V4.59803H164.691V6.07454H160.118V18.5428H158.477ZM165.002 6.13606V4.18789H167.053V6.13606L166.151 8.69945H164.736L165.864 6.13606H165.002ZM167.918 9.31466C168 6.36164 169.805 4.39296 172.655 4.39296C175.362 4.39296 177.187 6.17707 177.187 8.71995C177.187 10.7502 176.039 12.2062 173.927 14.0313L170.441 17.0663H177.29V18.5428H168.144V17.0663L172.635 13.1495C174.706 11.3449 175.526 10.3195 175.526 8.78147C175.526 6.91533 174.316 5.86947 172.594 5.86947C170.81 5.86947 169.62 7.01786 169.579 9.31466H167.918ZM182.941 18.7479C179.988 18.7479 177.937 16.7177 177.937 12.1857V11.3654C177.937 6.64874 180.009 4.39296 183.023 4.39296C185.792 4.39296 187.391 6.27961 187.555 8.49437H185.874C185.751 6.87431 184.582 5.86947 182.941 5.86947C180.788 5.86947 179.598 7.57156 179.598 11.1603V11.9191C180.132 10.6066 181.526 9.74531 183.269 9.74531C185.792 9.74531 187.74 11.4884 187.74 14.1338C187.74 16.8203 185.751 18.7479 182.941 18.7479ZM179.701 14.0313C179.701 15.6719 180.829 17.2714 182.941 17.2714C184.725 17.2714 186.079 16.164 186.079 14.2364C186.079 12.3087 184.807 11.1398 182.839 11.1398C180.972 11.1398 179.701 12.2882 179.701 14.0313Z" fill="white"/>
<defs>
<clipPath id="clip0_1032_43698">
<rect width="98.1479" height="20.3306" fill="white"/>
</clipPath>
</defs>
</svg>
